<?xml version="1.0" standalone="no"?>
<!DOCTYPE svg PUBLIC "-//W3C//DTD SVG 1.1//EN" "http://www.w3.org/Graphics/SVG/1.1/DTD/svg11.dtd" >
<svg>
<metadata>
Created by FontForge 20090914 at Thu Nov 23 18:38:20 2017
 By www-data
Copyright &#194;&#169;2010 by Jeremy Dooley. All rights reserved.
</metadata>
<defs>
<font id="Sancoale-Light" horiz-adv-x="965" >
  <font-face 
    font-family="Sancoale Light"
    font-weight="300"
    font-stretch="normal"
    units-per-em="2048"
    panose-1="2 0 5 3 5 0 0 2 0 4"
    ascent="1603"
    descent="-445"
    x-height="942.001"
    cap-height="1282"
    bbox="-142 -404.001 2208 1621"
    underline-thickness="89"
    underline-position="-89"
    unicode-range="U+0020-U+FB06"
  />
<missing-glyph horiz-adv-x="495" 
 />
    <glyph glyph-name="uniE040" unicode="ffj" horiz-adv-x="1280" 
d="M34 880l0.00195312 64h117v60c0 72.667 20.167 129.167 60.5 169.5s101.166 60.5 182.499 60.5c69.333 0 132.666 -13.667 189.999 -41c29.333 89.333 95.333 134 198 134c57.333 0 109 -7.66699 155 -23l-13 -59c-37.333 12 -80 18 -128 18
c-100 0 -150 -60.667 -150 -182v-137h410v-1101c0 -72 -18.5 -128 -55.5 -168s-91.5 -60 -163.5 -60c-44.667 0 -85.667 6.66699 -123 20l14 60c38 -10.667 72 -16 102 -16c46 0 82.167 13.833 108.5 41.5s39.5 69.167 39.5 124.5v1035h-332v-880h-78v880h-338v-880h-79v880
h-117zM230.002 944h337.999v139c0 23.333 0.666992 40.333 2 51c-54 24 -110.333 36 -169 36c-61.333 0 -105.166 -14.5 -131.499 -43.5s-39.5 -69.833 -39.5 -122.5v-60z" />
    <glyph glyph-name="uniE041" unicode="fj" horiz-adv-x="847" 
d="M34 880l-0.000976562 64h117v139c0 77.333 18 137.333 54 180s89.333 64 160 64c57.333 0 109 -7.66699 155 -23l-12 -59c-39.333 12 -82.666 18 -129.999 18c-98.667 0 -148 -60.667 -148 -182v-137h438v-1101c0 -72 -18.5 -128 -55.5 -168s-91.5 -60 -163.5 -60
c-44.667 0 -85.667 6.66699 -123 20l14 60c38 -10.667 72 -16 102 -16c46 0 82 13.833 108 41.5s39 69.167 39 124.5v1035h-359v-880h-79v880h-117z" />
    <glyph glyph-name="uniFB00" unicode="ff" horiz-adv-x="915" 
d="M34 880l0.00195312 64h117v60c0 72.667 20.167 129.167 60.5 169.5s101.166 60.5 182.499 60.5c69.333 0 132.666 -13.667 189.999 -41c29.333 89.333 95.333 134 198 134c57.333 0 109 -7.66699 155 -23l-13 -59c-37.333 12 -80 18 -128 18
c-100 0 -150 -60.667 -150 -182v-137h191v-64h-191v-880h-78v880h-338v-880h-79v880h-117zM230.002 944h337.999v139c0 23.333 0.666992 40.333 2 51c-54 24 -110.333 36 -169 36c-61.333 0 -105.166 -14.5 -131.499 -43.5s-39.5 -69.833 -39.5 -122.5v-60z" />
    <glyph glyph-name="uniFB01" unicode="fi" horiz-adv-x="847" 
d="M34 880l-0.00195312 63.999h117v139c0 77.333 18 137.333 54 180s89.333 64 160 64c57.333 0 109 -7.66699 155 -23l-12 -59c-39.333 12 -82.666 18 -129.999 18c-98.667 0 -148 -60.667 -148 -182v-137h436v-766c0 -39.333 6.33301 -68.166 19 -86.499
s33.667 -27.5 63 -27.5c23.333 0 52.333 4.33301 87 13l14 -54c-37.333 -15.333 -75.666 -23 -114.999 -23c-48.667 0 -85 13.5 -109 40.5s-36 72.833 -36 137.5v702h-359v-880h-79v880h-117z" />
    <glyph glyph-name="uniFB02" unicode="fl" horiz-adv-x="847" 
d="M34 880l-0.00195312 63.999h117v139c0 77.333 18 137.333 54 180s89.333 64 160 64c57.333 0 109 -7.66699 155 -23l-12 -59c-39.333 12 -82.666 18 -129.999 18c-98.667 0 -148 -60.667 -148 -182v-137h359v356h77v-1122c0 -39.333 6.33301 -68.166 19 -86.499
s33.667 -27.5 63 -27.5c23.333 0 52.333 4.33301 87 13l14 -54c-37.333 -15.333 -75.666 -23 -114.999 -23c-48.667 0 -85 13.5 -109 40.5s-36 72.833 -36 137.5v702h-359v-880h-79v880h-117z" />
    <glyph glyph-name="uniFB03" unicode="ffi" horiz-adv-x="1316" 
d="M34 880l0.00195312 63.999h117v60c0 72.667 20.167 129.167 60.5 169.5s101.166 60.5 182.499 60.5c69.333 0 132.666 -13.667 189.999 -41c29.333 89.333 95.333 134 198 134c57.333 0 109 -7.66699 155 -23l-13 -59c-37.333 12 -80 18 -128 18
c-100 0 -150 -60.667 -150 -182v-137h401v-766c0 -39.333 6.33301 -68.166 19 -86.499s33.667 -27.5 63 -27.5c24.667 0 53.667 4.33301 87 13l15 -54c-35.333 -15.333 -73.333 -23 -114 -23c-48.667 0 -85.167 13.5 -109.5 40.5s-36.5 72.833 -36.5 137.5v702h-325v-880
h-78v880h-338v-880h-79v880h-117zM230.002 943.999h337.999v139c0 23.333 0.666992 40.333 2 51c-54 24 -110.333 36 -169 36c-61.333 0 -105.166 -14.5 -131.499 -43.5s-39.5 -69.833 -39.5 -122.5v-60z" />
    <glyph glyph-name="uniFB04" unicode="ffl" horiz-adv-x="1316" 
d="M34 880l0.00195312 63.999h117v60c0 72.667 20.167 129.167 60.5 169.5s101.166 60.5 182.499 60.5c69.333 0 132.666 -13.667 189.999 -41c29.333 89.333 95.333 134 198 134c57.333 0 109 -7.66699 155 -23l-13 -59c-37.333 12 -80 18 -128 18
c-100 0 -150 -60.667 -150 -182v-137h325v356h76v-1122c0 -39.333 6.33301 -68.166 19 -86.499s33.667 -27.5 63 -27.5c24.667 0 53.667 4.33301 87 13l15 -54c-35.333 -15.333 -73.333 -23 -114 -23c-48.667 0 -85.167 13.5 -109.5 40.5s-36.5 72.833 -36.5 137.5v702h-325
v-880h-78v880h-338v-880h-79v880h-117zM230.002 943.999h337.999v139c0 23.333 0.666992 40.333 2 51c-54 24 -110.333 36 -169 36c-61.333 0 -105.166 -14.5 -131.499 -43.5s-39.5 -69.833 -39.5 -122.5v-60z" />
    <glyph glyph-name=".notdef" horiz-adv-x="495" 
 />
    <glyph glyph-name="space" unicode=" " horiz-adv-x="400" 
 />
    <glyph glyph-name="exclam" unicode="!" horiz-adv-x="300" 
d="M123 4v151h80v-151h-80zM123 312v981h80v-981h-80z" />
    <glyph glyph-name="quotedbl" unicode="&#x22;" horiz-adv-x="575" 
d="M144 1280h84l-20 -404h-44zM347 1280h84l-20 -404h-44z" />
    <glyph glyph-name="numbersign" unicode="#" horiz-adv-x="1057" 
d="M71 313v75h210l127 339h-209v74h236l101 271h78l-101 -271h212l101 271h79l-102 -271h185v-74h-212l-126 -339h214v-75h-242l-116 -313h-79l116 313h-212l-116 -313h-78l116 313h-182zM360 388h212l126 339h-212z" />
    <glyph glyph-name="dollar" unicode="$" horiz-adv-x="901" 
d="M80 23l11.001 61c149.333 -26 261 -39 335 -39c53.333 0 99.833 6.5 139.5 19.5s70.334 29.167 92.001 48.5s39.167 42.5 52.5 69.5s21.833 52 25.5 75s5.5 47.5 5.5 73.5c0 47.333 -7.33301 89.166 -22 125.499s-34.334 66 -59.001 89s-53.167 43.167 -85.5 60.5
s-66.166 32.333 -101.499 45l-106.5 38.5c-35.667 13 -69.667 28.333 -102 46s-60.833 38.167 -85.5 61.5s-44.334 53.333 -59.001 90s-22 79.334 -22 128.001c0 98.667 30 169.5 90 212.5s144 66.5 252 70.5v177h80v-177c85.333 -3.33301 176.666 -16.333 273.999 -39
l-9 -60c-110.667 26 -211 39 -301 39c-45.333 0 -85 -3 -119 -9s-65.833 -16.833 -95.5 -32.5s-52.334 -38.5 -68.001 -68.5s-23.5 -67 -23.5 -111c0 -41.333 7.33301 -77.333 22 -108s34.334 -55.667 59.001 -75s53.167 -36.5 85.5 -51.5s66.333 -28.667 102 -41
s71.167 -25.333 106.5 -39s69.166 -30.5 101.499 -50.5s60.833 -43.333 85.5 -70s44.334 -61.167 59.001 -103.5s22 -90.833 22 -145.5c0 -94 -24.667 -172 -74 -234s-126.333 -99 -231 -111v-191h-81v185c-59.333 0 -113.833 2.5 -163.5 7.5s-113.5 16.167 -191.5 33.5z
" />
    <glyph glyph-name="percent" unicode="%" horiz-adv-x="1426" 
d="M100 958v20c0 96.667 22.333 171.5 67 224.5s110 79.5 196 79.5c86.667 0 152.667 -26.5 198 -79.5s68 -127.833 68 -224.5v-20c0 -96.667 -22.667 -171.334 -68 -224.001s-111.333 -79 -198 -79s-152.167 26.333 -196.5 79s-66.5 127.334 -66.5 224.001zM180 958
c0 -77.333 15.167 -137.333 45.5 -180s76.166 -64 137.499 -64s107.666 21.333 138.999 64s47 102.667 47 180v20c0 78 -15.667 138.167 -47 180.5s-77.666 63.5 -138.999 63.5s-107.166 -21.167 -137.499 -63.5s-45.5 -102.5 -45.5 -180.5v-20zM417 0l493 1280h87
l-493 -1280h-87zM800 301v20c0 97.333 22.167 172.333 66.5 225s109.833 79 196.5 79s152.334 -26.5 197.001 -79.5s67 -127.833 67 -224.5v-20c0 -96.667 -22.333 -171.334 -67 -224.001s-110.334 -79 -197.001 -79s-152.167 26.333 -196.5 79s-66.5 127.334 -66.5 224.001
zM878 301c0 -76.667 15.5 -136.5 46.5 -179.5s77.167 -64.5 138.5 -64.5c60.667 0 106.667 21.5 138 64.5s47 102.833 47 179.5v20c0 77.333 -15.667 137.333 -47 180s-77.333 64 -138 64c-61.333 0 -107.5 -21.167 -138.5 -63.5s-46.5 -102.5 -46.5 -180.5v-20z" />
    <glyph glyph-name="ampersand" unicode="&#x26;" horiz-adv-x="1381" 
d="M112 342v27.001c0 96.667 24.333 172.667 73 228s125.334 92 230.001 110c-72 19.333 -124.667 50.833 -158 94.5s-50 100.5 -50 170.5v24c0 106 34.667 183.167 104 231.5s178.333 72.5 327 72.5c104 0 190.667 -6.66699 260 -20l-11 -58
c-86.667 10.667 -165 16 -235 16c-124 0 -214.667 -19.333 -272 -58s-86 -100 -86 -184v-22c0 -80 25.167 -139.833 75.5 -179.5s130.833 -61.167 241.5 -64.5h730v-62h-296v-668h-80v668h-351c-146 0 -251.667 -24 -317 -72s-98 -123.667 -98 -227v-25
c0 -102 33.333 -177.167 100 -225.5s173 -72.5 319 -72.5c90.667 0 185.667 7.33301 285 22l7 -63c-90.667 -15.333 -192.667 -23 -306 -23c-170.667 0 -295.334 29.667 -374.001 89s-118 149.666 -118 270.999z" />
    <glyph glyph-name="quotesingle" unicode="'" horiz-adv-x="361" 
d="M141 1282h82l-18 -406h-47z" />
    <glyph glyph-name="parenleft" unicode="(" horiz-adv-x="445" 
d="M73 572c0 161.333 24.167 315 72.5 461s114.833 263 199.5 351l27 -25c-64 -81.333 -115.333 -195.333 -154 -342s-58 -295 -58 -445s19.333 -298.333 58 -445s90 -260.667 154 -342l-27 -25c-84.667 88 -151.167 205 -199.5 351s-72.5 299.667 -72.5 461z" />
    <glyph glyph-name="parenright" unicode=")" horiz-adv-x="445" 
d="M73 -215c64 81.333 115.333 195.333 154 342s58 295 58 445s-19.333 298.333 -58 445s-90 260.667 -154 342l27 25c84.667 -88 151.167 -205 199.5 -351s72.5 -299.667 72.5 -461s-24.167 -315 -72.5 -461s-114.833 -263 -199.5 -351z" />
    <glyph glyph-name="asterisk" unicode="*" horiz-adv-x="626" 
d="M30 1093l23 59l239 -91l-12 248h69l-12 -248l236 91l24 -59l-246 -71l158 -206l-51 -43l-145 224l-146 -224l-49 43l160 206z" />
    <glyph glyph-name="plus" unicode="+" horiz-adv-x="851" 
d="M12 443v66h383v397h68v-397h378v-66h-378v-398h-68v398h-383z" />
    <glyph glyph-name="comma" unicode="," horiz-adv-x="245" 
d="M37 -187l79 338h87l-101 -338h-65z" />
    <glyph glyph-name="hyphen" unicode="-" horiz-adv-x="658" 
d="M148 493v70h367v-70h-367z" />
    <glyph glyph-name="period" unicode="." horiz-adv-x="333" 
d="M123 0v151h85v-151h-85z" />
    <glyph glyph-name="slash" unicode="/" horiz-adv-x="689" 
d="M52 0l493 1280h85l-493 -1280h-85z" />
    <glyph glyph-name="zero" unicode="0" horiz-adv-x="988" 
d="M85 623l-0.000976562 43c0 200.667 34.333 356.5 103 467.5s171 166.5 307 166.5c134.667 0 236.334 -55.667 305.001 -167s103 -267 103 -467v-43c0 -200.667 -34.5 -357.667 -103.5 -471s-170.5 -170 -304.5 -170c-136 0 -238.333 56.5 -307 169.5
s-103 270.167 -103 471.5zM174.999 623c0 -182 26.667 -322.999 80 -422.999s133.333 -150 240 -150c105.333 0 184.833 50.167 238.5 150.5s80.5 241.166 80.5 422.499v43c0 183.333 -26.667 323.5 -80 420.5s-133 145.5 -239 145.5c-213.333 0 -320 -188.667 -320 -566
v-43z" />
    <glyph glyph-name="one" unicode="1" horiz-adv-x="400" 
d="M118 1213v67h163v-1280h-80v1213h-83z" />
    <glyph glyph-name="two" unicode="2" horiz-adv-x="967" 
d="M105 0l-0.000976562 178.001c0 43.333 11.5 84 34.5 122s53 71.333 90 100s77.667 56.5 122 83.5l133.5 81c44.667 27 85.5 54.5 122.5 82.5s67 60.167 90 96.5s34.5 75.166 34.5 116.499v162c0 66 -22.167 117.833 -66.5 155.5s-114.166 56.5 -209.499 56.5
c-50.667 0 -107.5 -8.33301 -170.5 -25s-111.833 -34.334 -146.5 -53.001l-25 60c40.667 22.667 93.834 42.334 159.501 59.001s127.5 25 185.5 25c120 0 208.833 -24 266.5 -72s86.5 -115.333 86.5 -202v-177c0 -46 -11.5 -89 -34.5 -129s-52.833 -74.833 -89.5 -104.5
s-77.334 -58.167 -122.001 -85.5l-133.5 -80c-44.333 -26 -84.833 -52.5 -121.5 -79.5s-66.5 -58.167 -89.5 -93.5s-34.5 -73 -34.5 -113v-89h666v-75h-748z" />
    <glyph glyph-name="three" unicode="3" horiz-adv-x="812" 
d="M32 5l4.99902 62.999c104 -14.667 202.667 -22 296 -22c118 0 204.167 24.167 258.5 72.5s81.5 123.5 81.5 225.5v25c0 103.333 -29 179 -87 227s-151.667 72 -281 72h-88v62h75c102.667 0 177.834 20.333 225.501 61s71.5 101.667 71.5 183v22
c0 84 -23.5 145.333 -70.5 184s-120.833 58 -221.5 58c-66.667 0 -147.334 -5.33301 -242.001 -16l-9 58c74 13.333 163.667 20 269 20c124.667 0 215.834 -24.167 273.501 -72.5s86.5 -125.5 86.5 -231.5v-24c0 -140 -62.333 -228.333 -187 -265
c94.667 -18 163.667 -54.667 207 -110s65 -131.333 65 -228v-27c0 -121.333 -33.333 -211.666 -100 -270.999s-171.667 -89 -315 -89c-112.667 0 -217 7.66699 -313 23z" />
    <glyph glyph-name="four" unicode="4" horiz-adv-x="931" 
d="M85 242v183.996c0 47.333 11.5 92 34.5 134s52.833 79.167 89.5 111.5s77.167 64 121.5 95l133 94c44.333 31.667 84.833 64.334 121.5 98.001s66.5 72.834 89.5 117.501s34.5 92 34.5 142v66h82v-77c0 -53.333 -11.5 -103.5 -34.5 -150.5s-52.833 -87.833 -89.5 -122.5
s-77.167 -67.834 -121.5 -99.501l-133 -93c-44.333 -30.333 -84.833 -61.166 -121.5 -92.499s-66.5 -67.166 -89.5 -107.499s-34.5 -83.166 -34.5 -128.499v-98h531v333h86v-333h62v-73h-62v-242h-86v242h-613z" />
    <glyph glyph-name="five" unicode="5" horiz-adv-x="910" 
d="M109 5l5.00098 62.9971c101.333 -14.667 198.666 -22 291.999 -22c118 0 204.167 24.167 258.5 72.5s81.5 123.5 81.5 225.5v57c0 104 -29 180.167 -87 228.5s-151.667 72.5 -281 72.5h-214l35 580h633v-75h-556l-27 -443h116c74.667 0 140.167 -6.66699 196.5 -20
s101.5 -30.666 135.5 -51.999s61.333 -48.166 82 -80.499s34.834 -65 42.501 -98s11.5 -70.167 11.5 -111.5v-60c0 -121.333 -33.333 -211.666 -100 -270.999s-172 -89 -316 -89c-114.667 0 -217.334 7.66699 -308.001 23z" />
    <glyph glyph-name="six" unicode="6" horiz-adv-x="952" 
d="M85 402v161.002c0 175.333 62.333 330.666 187 465.999s300.667 225.666 528 270.999l14 -61c-171.333 -36 -310.833 -99.833 -418.5 -191.5s-179.5 -199.834 -215.5 -324.501c73.333 84 178.333 126 315 126c123.333 0 216.5 -36.833 279.5 -110.5
s94.5 -176.167 94.5 -307.5v-29c0 -131.333 -33.167 -234.166 -99.5 -308.499s-163.833 -111.5 -292.5 -111.5c-130 0 -227.833 37 -293.5 111s-98.5 177 -98.5 309zM166 404.002c0 -113.333 26 -201.499 78 -264.499s129.667 -94.5 233 -94.5
c102 0 179.167 31.667 231.5 95s78.5 151.333 78.5 264v27c0 113.333 -26 200.666 -78 261.999s-129.333 92 -232 92c-104 0 -181.833 -30.5 -233.5 -91.5s-77.5 -148.5 -77.5 -262.5v-27z" />
    <glyph glyph-name="seven" unicode="7" horiz-adv-x="897" 
d="M85 1211l-0.00195312 72.999h727v-182c0 -60 -11.167 -116 -33.5 -168s-51.5 -97.333 -87.5 -136s-75.5 -76.334 -118.5 -113.001l-129.5 -111c-43.333 -37.333 -83 -76 -119 -116s-65.167 -87 -87.5 -141s-33.5 -112.333 -33.5 -175v-142h-78v153
c0 58.667 8.66699 113.834 26 165.501s40.333 96.334 69 134.001s61.334 74.834 98.001 111.501s74 69.667 112 99s75.333 61 112 95s69.334 67.5 98.001 100.5s51.667 71.667 69 116s26 91.166 26 140.499v96h-650z" />
    <glyph glyph-name="eight" unicode="8" horiz-adv-x="1011" 
d="M100 351v23c0 84.667 19.667 155.667 59 213s98 97.333 176 120c-127.333 40.667 -191 133.334 -191 278.001v19c0 94.667 30.167 167.667 90.5 219s150.833 77 271.5 77c120 0 210.167 -25.667 270.5 -77s90.5 -124.333 90.5 -219v-19
c0 -144.667 -64 -237.334 -192 -278.001c78 -22.667 137 -62.667 177 -120s60 -128.333 60 -213v-23c0 -116 -34.167 -206.5 -102.5 -271.5s-169.5 -97.5 -303.5 -97.5c-134.667 0 -236 32.5 -304 97.5s-102 155.5 -102 271.5zM183 351c0 -96 26.834 -170.833 80.501 -224.5
s134.5 -80.5 242.5 -80.5s189 26.833 243 80.5s81 128.5 81 224.5v23c0 96.667 -26.833 171 -80.5 223s-134.834 78 -243.501 78c-108 0 -188.833 -26 -242.5 -78s-80.5 -126.333 -80.5 -223v-23zM223.001 979c0 -77.333 23.5 -137 70.5 -179s117.833 -63 212.5 -63
c94 0 164.667 21 212 63s71 101.667 71 179v18c0 77.333 -23.667 136.833 -71 178.5s-118 62.5 -212 62.5c-94.667 0 -165.5 -20.833 -212.5 -62.5s-70.5 -101.167 -70.5 -178.5v-18z" />
    <glyph glyph-name="nine" unicode="9" horiz-adv-x="952" 
d="M84 851v28.999c0 131.333 33 234.166 99 308.499s163.333 111.5 292 111.5c130 0 227.833 -37 293.5 -111s98.5 -177 98.5 -309v-161c0 -85.333 -15.333 -167 -46 -245s-75.334 -149.667 -134.001 -215s-133.667 -122.166 -225 -170.499s-194.333 -83.833 -309 -106.5
l-14 61c170.667 36 309.667 99.833 417 191.5s179 199.834 215 324.501c-73.333 -84 -177.666 -126 -312.999 -126c-123.333 0 -216.5 36.833 -279.5 110.5s-94.5 176.167 -94.5 307.5zM166 850.999c0 -113.333 25.8311 -200.667 77.498 -262s128.834 -92 231.501 -92
c104 0 182 30.5 234 91.5s78 148.5 78 262.5v27c0 113.333 -26.167 201.666 -78.5 264.999s-130.166 95 -233.499 95c-102 0 -179 -31.667 -231 -95s-78 -151.666 -78 -264.999v-27z" />
    <glyph glyph-name="colon" unicode=":" horiz-adv-x="219" 
d="M78 0v148h80v-148h-80zM78 812v150h80v-150h-80z" />
    <glyph glyph-name="semicolon" unicode=";" horiz-adv-x="267" 
d="M34 -187l78 338h87l-101 -338h-64zM96 787v157h89v-157h-89z" />
    <glyph glyph-name="less" unicode="&#x3c;" horiz-adv-x="959" 
d="M87 440v71l762 322v-71l-682 -287l682 -286v-71z" />
    <glyph glyph-name="equal" unicode="=" horiz-adv-x="865" 
d="M14 258v71h834v-71h-834zM16 629v73h832v-73h-832z" />
    <glyph glyph-name="greater" unicode="&#x3e;" horiz-adv-x="890" 
d="M87 118v71l682 286l-682 287v71l762 -322v-71z" />
    <glyph glyph-name="question" unicode="?" horiz-adv-x="869" 
d="M85 1216c40.667 22.667 93.667 42.335 159 59.002s127 25 185 25c120 0 208.5 -24 265.5 -72s85.5 -115.333 85.5 -202v-177c0 -32.667 -6.33301 -63.5 -19 -92.5s-29.334 -54.333 -50.001 -76s-43.334 -42.5 -68.001 -62.5l-74.5 -59c-25 -19.333 -47.833 -39 -68.5 -59
s-37.334 -43 -50.001 -69s-19 -53.333 -19 -82v-128h-82v142c0 31.333 6.33301 61 19 89s29.334 52.5 50.001 73.5s43.5 41.5 68.5 61.5l74.5 59.5c24.667 19.667 47.334 39.667 68.001 60s37.334 43.666 50.001 69.999s19 54.166 19 83.499v162
c0 141.333 -91.333 212 -274 212c-49.333 0 -105.5 -8.5 -168.5 -25.5s-111.833 -34.5 -146.5 -52.5zM344 0.000976562v151h85v-151h-85z" />
    <glyph glyph-name="at" unicode="@" horiz-adv-x="1697" 
d="M151 584l-0.00292969 45.998c0 211.333 57.667 375.833 173 493.5s290 176.5 524 176.5s409.167 -50 525.5 -150s174.5 -239.333 174.5 -418v-48c0 -260 -121.333 -430.333 -364 -511c-92 -36.667 -203 -55 -333 -55c-57.333 0 -108.166 4.33301 -152.499 13
s-84.166 22.667 -119.499 42s-62.333 46.333 -81 81s-28 76.334 -28 125.001v18c0 82.667 31.333 146.334 94 191.001s152 67 268 67c88.667 0 182.334 -16.667 281.001 -50v221c0 62.667 -18.667 110.667 -56 144s-98.666 50 -183.999 50
c-88.667 0 -193.334 -11 -314.001 -33l-12 55c115.333 24.667 226.333 37 333 37c202.667 0 304 -84.333 304 -253v-602c197.333 72.667 296 226 296 460v48c0 168.667 -52.5 296.834 -157.5 384.501s-263.167 131.5 -474.5 131.5c-212 0 -369.5 -52.833 -472.5 -158.5
s-154.5 -258.834 -154.5 -459.501v-46c0 -186 44.667 -333 134 -441s224.333 -169.333 405 -184v-50c-204 14.667 -356.5 81 -457.5 199s-151.5 276.667 -151.5 476zM546.997 378.998c0 -74.667 26.002 -128.666 78.002 -161.999s128.667 -50 230 -50
c103.333 0 189.333 13.333 258 40v345c-24.667 11.333 -61.834 22.166 -111.501 32.499s-102.834 15.5 -159.501 15.5c-196.667 0 -295 -69.333 -295 -208v-13z" />
    <glyph glyph-name="A" unicode="A" horiz-adv-x="1016" 
d="M78 0c12 143.333 31.334 282 58.001 416s55 247.667 85 341s62 178.666 96 255.999s63.333 136.666 88 177.999s45.667 71.666 63 90.999h82c17.333 -19.333 38.166 -49.666 62.499 -90.999s53.333 -100.666 87 -177.999s65.5 -162.666 95.5 -255.999
s58.167 -207 84.5 -341s45.5 -272.667 57.5 -416h-82c-14 147.333 -32.333 280.333 -55 399h-585c-26 -136 -44.333 -269 -55 -399h-82zM230.001 467l555 -0.000976562c-39.333 191.333 -86.5 353.333 -141.5 486s-99.833 217.334 -134.5 254.001
c-34.667 -36.667 -79.5 -121.167 -134.5 -253.5s-103.167 -294.5 -144.5 -486.5z" />
    <glyph glyph-name="B" unicode="B" horiz-adv-x="1022" 
d="M148 7l0.000976562 1272c77.333 14 168.666 21 273.999 21c153.333 0 265 -24 335 -72s105 -125.333 105 -232v-24c0 -136 -65.333 -225 -196 -267c99.333 -19.333 172.333 -56.166 219 -110.499s70 -129.5 70 -225.5v-27c0 -121.333 -40.667 -211.666 -122 -270.999
s-209.333 -89 -384 -89c-116 0 -216.333 8.33301 -301 25zM230.001 60.998c59.333 -8.66699 134.667 -13 226 -13c144 0 248.833 23.833 314.5 71.5s98.5 122.5 98.5 224.5v25c0 103.333 -32.5 179 -97.5 227s-169.5 72 -313.5 72h-228v-607zM230.002 731.998h194.001
c124 0 214 19.5 270 58.5s84 100.167 84 183.5v22c0 83.333 -27.833 144.5 -83.5 183.5s-144.834 58.5 -267.501 58.5c-45.333 0 -111 -5 -197 -15v-491z" />
    <glyph glyph-name="C" unicode="C" horiz-adv-x="956" 
d="M84 620v41.999c0 210.667 40.5 369.667 121.5 477s211.5 161 391.5 161c86.667 0 178.667 -11.333 276 -34l-13 -66c-94.667 21.333 -178.334 32 -251.001 32c-156.667 0 -268.5 -46.667 -335.5 -140s-100.5 -236.666 -100.5 -429.999v-44
c0 -192 34.167 -334.667 102.5 -428s179.5 -140 333.5 -140c82.667 0 168.334 8.33301 257.001 25l10 -66c-98 -18 -191.667 -27 -281 -27c-180.667 0 -311 53.5 -391 160.5s-120 266.167 -120 477.5z" />
    <glyph glyph-name="D" unicode="D" horiz-adv-x="1136" 
d="M148 32l-0.000976562 1231c137.333 24.667 251.333 37 342 37c196 0 339 -51.5 429 -154.5s135 -262.833 135 -479.5v-43c0 -210 -45.667 -366.667 -137 -470s-235.666 -155 -432.999 -155c-113.333 0 -225.333 11.333 -336 34zM231.999 91
c76.667 -16.667 162.667 -25 258 -25c165.333 0 285.5 45.167 360.5 135.5s112.5 230.833 112.5 421.5v43c0 195.333 -37.167 338.5 -111.5 429.5s-193.833 136.5 -358.5 136.5c-90.667 0 -177.667 -8.66699 -261 -26v-1115z" />
    <glyph glyph-name="E" unicode="E" horiz-adv-x="883" 
d="M52 342v27.001c0 96.667 24.167 172.667 72.5 228s124.833 92 229.5 110c-72 19.333 -124.667 50.833 -158 94.5s-50 100.5 -50 170.5v24c0 106 34.667 183.167 104 231.5s178.333 72.5 327 72.5c104 0 190.667 -6.66699 260 -20l-11 -58c-86.667 10.667 -165 16 -235 16
c-124 0 -214.667 -19.333 -272 -58s-86 -100 -86 -184v-22c0 -81.333 26.667 -142.333 80 -183s138.333 -61 255 -61h80v-62h-94c-146 0 -251.667 -24 -317 -72s-98 -123.667 -98 -227v-25c0 -102.667 33.167 -178 99.5 -226s172.5 -72 318.5 -72
c90.667 0 185.667 7.33301 285 22l7 -63c-90.667 -15.333 -192.667 -23 -306 -23c-170 0 -294.333 29.667 -373 89s-118 149.666 -118 270.999z" />
    <glyph glyph-name="F" unicode="F" horiz-adv-x="922" 
d="M148 0l0.000976562 995.999c0 106.667 31.167 184 93.5 232s162.166 72 299.499 72c54.667 0 113.5 -3.5 176.5 -10.5s112.833 -15.5 149.5 -25.5l-12 -58c-122 20 -223 30 -303 30c-110 0 -190.667 -19.167 -242 -57.5s-77 -99.166 -77 -182.499v-298h531v-69h-531v-629
h-85z" />
    <glyph glyph-name="G" unicode="G" horiz-adv-x="1084" 
d="M84 618v43.999c0 210.667 44.333 369.667 133 477s231.667 161 429 161c89.333 0 189.666 -12 300.999 -36l-12 -69c-101.333 22.667 -195.666 34 -282.999 34c-172 0 -294.833 -46.5 -368.5 -139.5s-110.5 -235.5 -110.5 -427.5v-44
c0 -191.333 36.5 -333.5 109.5 -426.5s191.5 -139.5 355.5 -139.5c72.667 0 149.667 5.33301 231 16v557h84v-609c-111.333 -22.667 -218.333 -34 -321 -34c-193.333 0 -333 53.333 -419 160s-129 265.334 -129 476.001z" />
    <glyph glyph-name="H" unicode="H" horiz-adv-x="1104" 
d="M148 0v1282h84v-577h642v577h82v-1282h-82v636h-642v-636h-84z" />
    <glyph glyph-name="I" unicode="I" horiz-adv-x="379" 
d="M148 0v1282h84v-1282h-84z" />
    <glyph glyph-name="J" unicode="J" horiz-adv-x="858" 
d="M36 14l10.001 66c88.667 -18.667 169.667 -28 243 -28c116.667 0 202.5 28 257.5 84s82.5 141.333 82.5 256v890h82v-903c0 -132.667 -32 -232 -96 -298s-165 -99 -303 -99c-44.667 0 -93.834 3.16699 -147.501 9.5s-96.5 13.833 -128.5 22.5z" />
    <glyph glyph-name="K" unicode="K" horiz-adv-x="999" 
d="M148 0v1282h82v-566c29.333 10.667 62.333 26.5 99 47.5s78.167 49 124.5 84s90.333 73.167 132 114.5s81.334 90.166 119.001 146.499s66.5 114.166 86.5 173.499h80c-18 -60.667 -44.167 -119.834 -78.5 -177.501s-71 -107.667 -110 -150s-82 -82.666 -129 -120.999
s-89.333 -69.333 -127 -93s-74.834 -44.834 -111.501 -63.501c37.333 -20.667 75.666 -44.5 114.999 -71.5s83 -61.833 131 -104.5s92.333 -88 133 -136s78.834 -104 114.501 -168s62.5 -129.667 80.5 -197h-80c-20.667 66 -50.5 130.667 -89.5 194s-80 118.333 -123 165
s-88.333 89.834 -136 129.501s-90.5 71.334 -128.5 95.001s-72 41.834 -102 54.501v-638h-82z" />
    <glyph glyph-name="L" unicode="L" horiz-adv-x="851" 
d="M132 397l-0.000976562 885.001h83v-872c0 -114.667 25.333 -199.834 76 -255.501s133.667 -83.5 249 -83.5h279v-71h-303c-133.333 0 -230.666 33 -291.999 99s-92 165.333 -92 298z" />
    <glyph glyph-name="M" unicode="M" horiz-adv-x="1764" 
d="M148 0l0.000976562 1186c50.667 29.333 114.167 55.666 190.5 78.999s147.5 35 213.5 35c156.667 0 264 -32.667 322 -98c56 27.333 119 50.5 189 69.5s136.667 28.5 200 28.5c119.333 0 208.166 -31.333 266.499 -94s87.5 -148.334 87.5 -257.001v-949h-80v955
c0 85.333 -22.5 152.666 -67.5 201.999s-115.167 74 -210.5 74c-56 0 -117.333 -9.16699 -184 -27.5s-117.667 -37.166 -153 -56.499v-1147h-83v1067c0 50.667 -23.333 90.667 -70 120s-120 44 -220 44c-53.333 0 -112.5 -9.83301 -177.5 -29.5s-111.5 -39.5 -139.5 -59.5
v-1142h-84z" />
    <glyph glyph-name="N" unicode="N" horiz-adv-x="1134" 
d="M148 0l0.000976562 1182c55.333 30.667 126.5 58 213.5 82s167.833 36 242.5 36c130.667 0 227.167 -38.333 289.5 -115s93.5 -182 93.5 -316v-869h-82v866c0 114 -24.167 203.333 -72.5 268s-124.5 97 -228.5 97c-62.667 0 -131.834 -10 -207.501 -30
s-130.5 -40.333 -164.5 -61v-1140h-84z" />
    <glyph glyph-name="O" unicode="O" horiz-adv-x="1173" 
d="M84 623l-0.000976562 43c0 201.333 41.833 357.333 125.5 468s209.834 166 378.501 166c166.667 0 292 -55.5 376 -166.5s126 -266.833 126 -467.5v-43c0 -201.333 -42.167 -358.5 -126.5 -471.5s-209.5 -169.5 -375.5 -169.5c-168 0 -294 56.333 -378 169
s-126 270 -126 472zM172.999 623c0 -182 34.333 -322.999 103 -422.999s172.667 -150 312 -150c137.333 0 240.5 50.167 309.5 150.5s103.5 241.166 103.5 422.499v43c0 184 -34.333 324.333 -103 421s-172 145 -310 145c-276.667 0 -415 -188.667 -415 -566v-43z" />
    <glyph glyph-name="P" unicode="P" horiz-adv-x="981" 
d="M148 0l-0.000976562 1272c116.667 18.667 223 28 319 28c160 0 276.167 -33.333 348.5 -100s108.5 -172.667 108.5 -318v-31c0 -138.667 -37 -241.834 -111 -309.501s-191.333 -101.5 -352 -101.5c-81.333 0 -157.666 4.66699 -228.999 14v-454h-84zM231.999 520.001
c66.667 -9.33301 145 -14 235 -14c128.667 0 222.167 28 280.5 84s87.5 143.667 87.5 263v29c0 122 -29.167 211.167 -87.5 267.5s-151.5 84.5 -279.5 84.5c-81.333 0 -160 -5.33301 -236 -16v-698z" />
    <glyph glyph-name="Q" unicode="Q" horiz-adv-x="1173" 
d="M84 623l-0.000976562 43c0 201.333 41.833 357.333 125.5 468s209.834 166 378.501 166c166.667 0 292 -55.5 376 -166.5s126 -266.833 126 -467.5v-43c0 -167.333 -29.667 -304.833 -89 -412.5s-147.333 -177.834 -264 -210.501c33.333 -14 66.333 -30.5 99 -49.5
s65.667 -41 99 -66s63.333 -54 90 -87s47 -67.5 61 -103.5h-82c-18 36.667 -45.167 72.334 -81.5 107.001s-74.833 64 -115.5 88s-79 44 -115 60s-67.333 27 -94 33h-10c-168 0 -294 56.333 -378 169s-126 270 -126 472zM172.999 623c0 -182 34.333 -322.999 103 -422.999
s172.667 -150 312 -150c137.333 0 240.5 50.167 309.5 150.5s103.5 241.166 103.5 422.499v43c0 184 -34.333 324.333 -103 421s-172 145 -310 145c-276.667 0 -415 -188.667 -415 -566v-43z" />
    <glyph glyph-name="R" unicode="R" horiz-adv-x="974" 
d="M148 0l0.00390625 1272c110.667 18.667 212 28 304 28c141.333 0 244.333 -29.5 309 -88.5s97 -151.833 97 -278.5v-30c0 -106.667 -26 -189 -78 -247s-133.333 -93.333 -244 -106c34.667 -23.333 69.5 -51.333 104.5 -84s71.167 -71.667 108.5 -117
s71.166 -98.333 101.499 -159s53.166 -124 68.499 -190h-82c-19.333 71.333 -47.833 140 -85.5 206s-77.334 121.667 -119.001 167s-81.334 82.833 -119.001 112.5s-70.5 50.167 -98.5 61.5c-47.333 0 -109 3.33301 -185 10v-557h-82zM230.004 623
c8.66699 -0.666992 39.667 -3.5 93 -8.5s96.333 -7.5 129 -7.5c111.333 0 192.333 24.333 243 73s76 123.667 76 225v28c0 103.333 -25.333 179.333 -76 228s-131.667 73 -243 73c-61.333 0 -135.333 -6.33301 -222 -19v-592z" />
    <glyph glyph-name="S" unicode="S" horiz-adv-x="901" 
d="M80 23l10.998 61.001c149.333 -26 261 -39 335 -39c53.333 0 99.833 6.5 139.5 19.5s70.334 29.167 92.001 48.5s39.167 42.5 52.5 69.5s21.833 52 25.5 75s5.5 47.5 5.5 73.5c0 47.333 -7.33301 89.166 -22 125.499s-34.334 66 -59.001 89s-53.167 43.167 -85.5 60.5
s-66.166 32.333 -101.499 45l-106.5 38.5c-35.667 13 -69.667 28.333 -102 46s-60.833 38.167 -85.5 61.5s-44.334 53.333 -59.001 90s-22 79.334 -22 128.001c0 44 6.5 82.667 19.5 116s30.5 60.666 52.5 81.999s49.667 38.5 83 51.5s68.5 22.167 105.5 27.5
s78.5 8 124.5 8c96 0 199.667 -13.667 311 -41l-9 -60c-110.667 26 -211 39 -301 39c-45.333 0 -85 -3 -119 -9s-65.833 -16.833 -95.5 -32.5s-52.334 -38.5 -68.001 -68.5s-23.5 -67 -23.5 -111c0 -41.333 7.33301 -77.333 22 -108s34.334 -55.667 59.001 -75
s53.167 -36.5 85.5 -51.5s66.333 -28.667 102 -41s71.167 -25.333 106.5 -39s69.166 -30.5 101.499 -50.5s60.833 -43.333 85.5 -70s44.334 -61.167 59.001 -103.5s22 -90.833 22 -145.5c0 -50 -7 -95.667 -21 -137s-35.667 -78.333 -65 -111s-69.166 -58 -119.499 -76
s-109.5 -27 -177.5 -27c-60.667 0 -115.667 2.5 -165 7.5s-113.666 16.167 -192.999 33.5z" />
    <glyph glyph-name="T" unicode="T" horiz-adv-x="851" 
d="M11 1216v66h830v-66h-374v-1216h-82v1216h-374z" />
    <glyph glyph-name="U" unicode="U" horiz-adv-x="1109" 
d="M148 402l0.000976562 880h80v-878c0 -109.333 26.5 -195.333 79.5 -258s135.167 -94 246.5 -94c53.333 0 113.666 3.66699 180.999 11s116.333 14.666 147 21.999v1197h80v-1246c-52.667 -14 -117.667 -26.5 -195 -37.5s-148.333 -16.5 -213 -16.5
c-139.333 0 -241.833 36.833 -307.5 110.5s-98.5 176.834 -98.5 309.501z" />
    <glyph glyph-name="V" unicode="V" horiz-adv-x="1009" 
d="M78 1282h83.999c15.333 -166.667 39 -325.334 71 -476.001s65.667 -274.5 101 -371.5s67.666 -175.667 96.999 -236s53.666 -100.833 72.999 -121.5c20 20.667 44.833 61.334 74.5 122.001s62.334 139.5 98.001 236.5s69.5 220.833 101.5 371.5s55.333 309 70 475h82
c-12 -143.333 -31 -282 -57 -416s-53.667 -247.667 -83 -341s-60.5 -178.666 -93.5 -255.999s-61.833 -136.666 -86.5 -177.999s-45.667 -71.666 -63 -90.999h-84c-17.333 19.333 -38.166 49.666 -62.499 90.999s-53.166 100.666 -86.499 177.999s-65 162.666 -95 255.999
s-58 207 -84 341s-45 272.667 -57 416z" />
    <glyph glyph-name="W" unicode="W" horiz-adv-x="1706" 
d="M78 1282l83.9951 -0.00390625c14 -166.667 36.167 -325.334 66.5 -476.001s62.333 -274.5 96 -371.5s64.334 -175.5 92.001 -235.5s50.834 -100.667 69.501 -122c18.667 21.333 41.834 62 69.501 122s58.5 138.667 92.5 236s66.167 221.333 96.5 372s52.833 309 67.5 475
h82c14.667 -166.667 37.167 -325.334 67.5 -476.001s62.166 -274.5 95.499 -371.5s64 -175.667 92 -236s51 -100.833 69 -121.5c18.667 21.333 41.834 62 69.501 122s58.5 138.667 92.5 236s66.167 221.333 96.5 372s52.833 309 67.5 475h84
c-11.333 -143.333 -29.666 -282 -54.999 -416s-52.166 -247.667 -80.499 -341s-58.333 -178.666 -90 -255.999s-59.167 -136.666 -82.5 -177.999s-43 -71.666 -59 -90.999h-84c-18 20 -40.5 57.333 -67.5 112s-57.167 125.167 -90.5 211.5s-65.333 194.666 -96 324.999
s-54 266.166 -70 407.499c-16.667 -141.333 -40.5 -277.166 -71.5 -407.499s-63 -238.666 -96 -324.999s-63.167 -156.833 -90.5 -211.5s-50 -92 -68 -112h-82c-21.333 26 -47.833 70.333 -79.5 133s-67.167 145.834 -106.5 249.501s-75.833 235.334 -109.5 395.001
s-57.5 327.834 -71.5 504.501z" />
    <glyph glyph-name="X" unicode="X" horiz-adv-x="1043" 
d="M96 0c12 78 31.501 152.994 58.501 224.994s57.833 134.667 92.5 188s67.167 98 97.5 134s60.5 67.333 90.5 94c-30 26 -60.167 57 -90.5 93s-62.833 80.667 -97.5 134s-65.5 116 -92.5 188s-46.5 147.333 -58.5 226h82c12 -66.667 29.833 -131.167 53.5 -193.5
s48.834 -115.833 75.501 -160.5s54.334 -85.167 83.001 -121.5s54.167 -64.666 76.5 -84.999s40.833 -34.166 55.5 -41.499c19.333 10.667 43.833 31.334 73.5 62.001s62.334 70.334 98.001 119.001s69.667 110.5 102 185.5s56.166 153.5 71.499 235.5h80
c-12.667 -78.667 -32.667 -154.167 -60 -226.5s-58.166 -135 -92.499 -188s-66.666 -97.5 -96.999 -133.5s-60.5 -67 -90.5 -93c30 -26.667 60.167 -58.167 90.5 -94.5s62.666 -81 96.999 -134s65.166 -115.5 92.499 -187.5s47.333 -147 60 -225h-80
c-12.667 66 -31 130.167 -55 192.5s-49.333 116.166 -76 161.499s-54.334 86.333 -83.001 123s-54 65.334 -76 86.001s-40.333 34.334 -55 41.001c-14.667 -7.33301 -33.167 -21.166 -55.5 -41.499s-47.833 -48.833 -76.5 -85.5s-56.334 -77.5 -83.001 -122.5
s-51.834 -98.833 -75.501 -161.5s-41.5 -127 -53.5 -193h-82z" />
    <glyph glyph-name="Y" unicode="Y" horiz-adv-x="947" 
d="M48 1282l84.001 -0.00195312c12 -77.333 30 -152.5 54 -225.5s49 -135.5 75 -187.5s53.5 -99.167 82.5 -141.5s54.333 -75.166 76 -98.499s39.834 -40 54.501 -50c19.333 12.667 43.666 36.834 72.999 72.501s61.833 82 97.5 139s69.5 129.333 101.5 217
s55.667 179.167 71 274.5h82c-12 -86 -31 -169.167 -57 -249.5s-53.5 -148.5 -82.5 -204.5s-60.333 -107.833 -94 -155.5s-62.334 -84.167 -86.001 -109.5s-44.834 -45.666 -63.501 -60.999v-502h-85v502c-18.667 15.333 -39.667 35.5 -63 60.5s-52 61.667 -86 110
s-65.5 100.166 -94.5 155.499s-56.667 123.333 -83 204s-45.166 164 -56.499 250z" />
    <glyph glyph-name="Z" unicode="Z" horiz-adv-x="1022" 
d="M100 0v178c0 46.667 8.16699 91 24.5 133s38.333 79.667 66 113s59.5 65.666 95.5 96.999s74 61 114 89l119.5 84c39.667 28 77.5 57.5 113.5 88.5s67.833 63 95.5 96s49.667 70.333 66 112s24.5 85.5 24.5 131.5v89h-700v75h780v-175
c0 -50.667 -8.16699 -98.667 -24.5 -144s-38.333 -85.666 -66 -120.999s-59.5 -69.333 -95.5 -102s-73.833 -63.167 -113.5 -91.5l-118.5 -84.5c-39.333 -28 -77 -56.667 -113 -86s-67.833 -59.666 -95.5 -90.999s-49.667 -66.333 -66 -105s-24.5 -79.334 -24.5 -122.001
v-89h737v-75h-819z" />
    <glyph glyph-name="bracketleft" unicode="[" horiz-adv-x="439" 
d="M144 -198v1480h207v-60h-134v-1357h134v-63h-207z" />
    <glyph glyph-name="backslash" unicode="\" horiz-adv-x="632" 
d="M57 1280h73l500 -1282h-73z" />
    <glyph glyph-name="bracketright" unicode="]" horiz-adv-x="357" 
d="M144 -253h134v1574h-134v70h216v-1713h-216v69z" />
    <glyph glyph-name="asciicircum" unicode="^" horiz-adv-x="863" 
d="M68 792l384 501l383 -501h-85l-298 396l-299 -396h-85z" />
    <glyph glyph-name="underscore" unicode="_" horiz-adv-x="1137" 
d="M148 -89h842v-69h-842v69z" />
    <glyph glyph-name="grave" unicode="`" horiz-adv-x="265" 
d="M-16 1257h84l140 -206h-67z" />
    <glyph glyph-name="a" unicode="a" horiz-adv-x="913" 
d="M75 249l-0.000976562 20c0 83.333 30.833 147.833 92.5 193.5s148.834 68.5 261.501 68.5c87.333 0 179.333 -16.667 276 -50v221c0 63.333 -18.333 111.833 -55 145.5s-96.667 50.5 -180 50.5c-92.667 0 -195.334 -12 -308.001 -36l-12 60
c43.333 10.667 96.833 20 160.5 28s119.834 12 168.501 12c202 0 303 -86.667 303 -260v-663c-89.333 -38 -199.333 -57 -330 -57c-45.333 0 -86.333 2.66699 -123 8s-71 14.333 -103 27s-59 29 -81 49s-39.167 45.5 -51.5 76.5s-18.5 66.5 -18.5 106.5zM157.999 249
c0 -74.667 25.333 -128.833 76 -162.5s124.667 -50.5 222 -50.5c88 0 171 13 249 39v349c-25.333 12 -61.5 23 -108.5 33s-98.5 15 -154.5 15c-189.333 0 -284 -70 -284 -210v-13z" />
    <glyph glyph-name="b" unicode="b" horiz-adv-x="970" 
d="M132 39v1265h78v-408c83.333 44 173 66 269 66c132 0 230.333 -38.5 295 -115.5s97 -188.833 97 -335.5v-18c0 -95.333 -10.5 -176.666 -31.5 -243.999s-51.5 -120.166 -91.5 -158.499s-85.5 -66 -136.5 -83s-109.833 -25.5 -176.5 -25.5
c-56.667 0 -112.667 5.16699 -168 15.5s-100.333 24.166 -135 41.499zM210 83.999c20 -10 51.334 -18.833 94.001 -26.5s86.667 -11.5 132 -11.5c55.333 0 103.666 7.33301 144.999 22s78 38.667 110 72s56.333 79.5 73 138.5s25 130.167 25 213.5v16
c0 258.667 -108.667 388 -326 388c-49.333 0 -98.5 -6.5 -147.5 -19.5s-84.167 -26.833 -105.5 -41.5v-751z" />
    <glyph glyph-name="c" unicode="c" horiz-adv-x="801" 
d="M100 458v27.999c0 317.333 129.333 476 388 476c77.333 0 153.333 -12 228 -36l-13 -60c-68 21.333 -135 32 -201 32c-112.667 0 -194 -34.833 -244 -104.5s-75 -172.167 -75 -307.5v-32c0 -137.333 25.5 -239.666 76.5 -306.999s134.833 -101 251.5 -101
c56 0 122 5.33301 198 16l9 -58c-78 -14.667 -151 -22 -219 -22c-140 0 -241.5 39.833 -304.5 119.5s-94.5 198.5 -94.5 356.5z" />
    <glyph glyph-name="d" unicode="d" horiz-adv-x="956" 
d="M100 458l0.000976562 17c0 156.667 32.333 277.5 97 362.5s160 127.5 286 127.5c86 0 173.667 -20.667 263 -62v401h77v-1268c-35.333 -16 -81.333 -29 -138 -39s-110.334 -15 -161.001 -15c-134.667 0 -239 38.833 -313 116.5s-111 197.5 -111 359.5zM183.001 458
c0 -274.667 114.667 -412 344 -412c40 0 81.5 4 124.5 12s74.5 17 94.5 27v750c-84 42.667 -165.333 64 -244 64c-212.667 0 -319 -141.667 -319 -425v-16z" />
    <glyph glyph-name="e" unicode="e" horiz-adv-x="927" 
d="M100 458v31.999c0 314.667 123.333 472 370 472c118 0 206.667 -38.167 266 -114.5s89 -186.166 89 -329.499v-48h-642v-12c0 -150.667 27.167 -257 81.5 -319s142.5 -93 264.5 -93c101.333 0 197.333 11.333 288 34l11 -60c-92.667 -25.333 -194 -38 -304 -38
c-146 0 -253.167 38 -321.5 114s-102.5 196.667 -102.5 362zM183 526.999h567.001c-2 122.667 -25.5 215.167 -70.5 277.5s-114.833 93.5 -209.5 93.5c-96.667 0 -167.834 -31 -213.501 -93s-70.167 -154.667 -73.5 -278z" />
    <glyph glyph-name="f" unicode="f" horiz-adv-x="468" 
d="M34 880l-0.000976562 64h117v139c0 77.333 18 137.333 54 180s89.333 64 160 64c57.333 0 109 -7.66699 155 -23l-12 -59c-39.333 12 -82.666 18 -129.999 18c-98.667 0 -148 -60.667 -148 -182v-137h190v-64h-190v-880h-79v880h-117z" />
    <glyph glyph-name="g" unicode="g" horiz-adv-x="963" 
d="M69 -329l9 60.001c52.667 -11.333 102 -19.833 148 -25.5s82 -9 108 -10s59.667 -1.5 101 -1.5c196.667 0 295 42 295 126c0 26.667 -10.167 48.834 -30.5 66.501s-47 30.834 -80 39.501s-69.333 16.167 -109 22.5s-79.167 13.333 -118.5 21s-75.5 17.167 -108.5 28.5
s-59.667 28.666 -80 51.999s-30.5 51.666 -30.5 84.999c0 68 36.667 113.333 110 136c-134 47.333 -201 154.666 -201 321.999v23c0 110.667 30.667 196.5 92 257.5s152.333 91.5 273 91.5c117.333 0 207.666 -29.667 270.999 -89c19.333 57.333 65 86 137 86
c38 0 74.667 -7.66699 110 -23l-14 -54c-34.667 8.66699 -64.334 13 -89.001 13c-30 0 -51.833 -7.66699 -65.5 -23s-21.5 -40 -23.5 -74c26 -54 39 -115.667 39 -185v-23c0 -109.333 -30.333 -194.333 -91 -255s-150.334 -91.334 -269.001 -92.001h-25
c-50 0 -91 -9.33301 -123 -28s-48 -45.667 -48 -81c0 -25.333 10.167 -46.166 30.5 -62.499s46.833 -28.5 79.5 -36.5s68.834 -15.167 108.501 -21.5s79.334 -13.5 119.001 -21.5s75.834 -18.167 108.501 -30.5s59.167 -30.833 79.5 -55.5s30.5 -55 30.5 -91
c0 -60 -30.833 -105.833 -92.5 -137.5s-152.5 -47.5 -272.5 -47.5c-140.667 0 -266.667 12.667 -378 38zM164 593.001c0 -90.667 23.667 -161.167 71 -211.5s118 -75.5 212 -75.5c93.333 0 163.5 25.167 210.5 75.5s70.5 120.833 70.5 211.5v23
c0 90.667 -23.5 160.834 -70.5 210.501s-117.167 74.5 -210.5 74.5c-94 0 -164.667 -24.833 -212 -74.5s-71 -119.834 -71 -210.501v-23z" />
    <glyph glyph-name="h" unicode="h" 
d="M132 0l0.00195312 1327h78v-428c106 42 210.667 63 314 63c105.333 0 183 -28.5 233 -85.5s75 -136.5 75 -238.5v-638h-77v632c0 82.667 -19.833 147.334 -59.5 194.001s-101.834 70 -186.501 70c-49.333 0 -104.333 -7 -165 -21s-105.334 -28 -134.001 -42v-833h-78z
" />
    <glyph glyph-name="i" unicode="i" horiz-adv-x="397" 
d="M132 1117v147h85v-147h-85zM135 178l-0.000976562 765.999h77v-766c0 -39.333 6.33301 -68.166 19 -86.499s33.667 -27.5 63 -27.5c24.667 0 53.667 4.33301 87 13l14 -54c-37.333 -15.333 -75.666 -23 -114.999 -23c-48 0 -84.167 13.5 -108.5 40.5
s-36.5 72.833 -36.5 137.5z" />
    <glyph glyph-name="j" unicode="j" horiz-adv-x="343" 
d="M-142 -362l14 59c48 -12 84.667 -18 110 -18c48 0 85 13.833 111 41.5s39 69.167 39 124.5v1099h82v-1101c0 -72 -18.833 -128 -56.5 -168s-92.5 -60 -164.5 -60c-50.667 0 -95.667 7.66699 -135 23zM126 1113v151h88v-151h-88z" />
    <glyph glyph-name="k" unicode="k" horiz-adv-x="853" 
d="M132 0l0.00292969 1327h78v-795c30 8 66.333 23.333 109 46s88.167 50.834 136.5 84.501s94.166 75.167 137.499 124.5s76 100.333 98 153h84c-14.667 -42 -36.334 -83.333 -65.001 -124s-59.334 -76.667 -92.001 -108s-68.5 -61.166 -107.5 -89.499s-75 -52 -108 -71
s-65.167 -35.833 -96.5 -50.5c42 -21.333 85 -46.833 129 -76.5s89.833 -65.167 137.5 -106.5s91 -89.5 130 -144.5s67.833 -111.5 86.5 -169.5h-82c-22 58.667 -55.5 116 -100.5 172s-92.5 103.333 -142.5 142s-97 71 -141 97s-81.667 44 -113 54v-465h-78z" />
    <glyph glyph-name="l" unicode="l" horiz-adv-x="395" 
d="M134 178v1149h78v-1149c0 -40 6.16699 -69 18.5 -87s33.5 -27 63.5 -27c23.333 0 52.333 4.33301 87 13l13 -54c-35.333 -15.333 -73.333 -23 -114 -23c-48.667 0 -85.167 13.5 -109.5 40.5s-36.5 72.833 -36.5 137.5z" />
    <glyph glyph-name="m" unicode="m" horiz-adv-x="1515" 
d="M132 0v874c43.333 23.333 97.833 43.833 163.5 61.5s127.5 26.5 185.5 26.5c134 0 226 -31 276 -93c44.667 26 95.167 48 151.5 66s109.166 27 158.499 27c108 0 187.833 -30 239.5 -90s77.5 -143.333 77.5 -250v-622h-79v616c0 88 -19.667 156.667 -59 206
s-101 74 -185 74c-43.333 0 -91.666 -10.5 -144.999 -31.5s-93.333 -42.167 -120 -63.5v-801h-77v741c0 48 -19.833 85.833 -59.5 113.5s-101.5 41.5 -185.5 41.5c-43.333 0 -91.833 -7 -145.5 -21s-93.167 -28 -118.5 -42v-833h-78z" />
    <glyph glyph-name="n" unicode="n" 
d="M132 0l0.00195312 873.998c46 23.333 105 43.833 177 61.5s140 26.5 204 26.5c108.667 0 189 -28.667 241 -86s78 -136.666 78 -237.999v-638h-77v632c0 82.667 -19.833 147.334 -59.5 194.001s-101.834 70 -186.501 70c-49.333 0 -104.333 -7 -165 -21
s-105.334 -28 -134.001 -42v-833h-78z" />
    <glyph glyph-name="o" unicode="o" horiz-adv-x="990" 
d="M100 458v32c0 148.667 33.167 265 99.5 349s164.833 126 295.5 126c129.333 0 227.5 -42 294.5 -126s100.5 -200.333 100.5 -349v-32c0 -148.667 -33.5 -265.167 -100.5 -349.5s-165.167 -126.5 -294.5 -126.5c-130.667 0 -229.167 42.167 -295.5 126.5
s-99.5 200.833 -99.5 349.5zM183 458c0 -130 26.1689 -231.167 78.502 -303.5s130.166 -108.5 233.499 -108.5s181.166 36.167 233.499 108.5s78.5 173.5 78.5 303.5v32c0 130.667 -26 231.834 -78 303.501s-130 107.5 -234 107.5s-182 -35.833 -234 -107.5
s-78 -172.834 -78 -303.501v-32z" />
    <glyph glyph-name="p" unicode="p" horiz-adv-x="970" 
d="M132 -360v1265c34.667 16.667 79.667 30.334 135 41.001s110.666 16 165.999 16c136.667 0 243.834 -37.667 321.501 -113s116.5 -194.333 116.5 -357v-18c0 -159.333 -33.167 -281.166 -99.5 -365.499s-167.833 -126.5 -304.5 -126.5c-85.333 0 -171 13.667 -257 41
v-383h-78zM210 88.998c20.667 -10 55.167 -19.666 103.5 -28.999s94.5 -14 138.5 -14c112.667 0 197 36.5 253 109.5s84 179.5 84 319.5v15c0 141.333 -31.667 244.666 -95 309.999s-151 98 -263 98c-42.667 0 -85.167 -3.83301 -127.5 -11.5s-73.5 -16.5 -93.5 -26.5v-771z
" />
    <glyph glyph-name="q" unicode="q" horiz-adv-x="970" 
d="M100 484v17.999c0 143.333 40.5 255.833 121.5 337.5s187.167 122.5 318.5 122.5c54.667 0 109.5 -5.16699 164.5 -15.5s99.833 -24.166 134.5 -41.499v-1265h-77v403c-88 -40.667 -175.333 -61 -262 -61c-266.667 0 -400 167.333 -400 502zM183 487.999
c0 -293.333 110.667 -440 332 -440c45.333 0 92.333 6.66699 141 20s84 27 106 41v751c-20 10 -51.167 18.833 -93.5 26.5s-84.833 11.5 -127.5 11.5c-108.667 0 -195.5 -35.167 -260.5 -105.5s-97.5 -166.5 -97.5 -288.5v-16z" />
    <glyph glyph-name="r" unicode="r" horiz-adv-x="609" 
d="M132 0v898c82.667 42.667 183 64 301 64c60 0 118 -6.66699 174 -20l-16 -60c-42 11.333 -91.667 17 -149 17c-92.667 0 -170 -14 -232 -42v-857h-78z" />
    <glyph glyph-name="s" unicode="s" horiz-adv-x="790" 
d="M68 12l8.99805 60.999c100 -18.667 195.333 -28 286 -28c44.667 0 83.834 4.5 117.501 13.5s59.667 20.167 78 33.5s33 29.166 44 47.499s18.167 35.166 21.5 50.499s5 31.666 5 48.999c0 44 -10 81.5 -30 112.5s-46 55.167 -78 72.5s-67.333 32.5 -106 45.5l-116 39.5
c-38.667 13.333 -74 28.833 -106 46.5s-58 42.834 -78 75.501s-30 71.667 -30 117c0 34 5.66699 63.833 17 89.5s26.5 46.334 45.5 62.001s43 28.334 72 38.001s58.833 16.167 89.5 19.5s65.334 5 104.001 5c85.333 0 175.666 -9 270.999 -27l-11 -61
c-92.667 18 -177.334 27 -254.001 27c-38 0 -70.833 -2 -98.5 -6s-54.167 -11 -79.5 -21s-44.5 -25.333 -57.5 -46s-19.5 -46 -19.5 -76c0 -32 7.83301 -59.833 23.5 -83.5s36.167 -42.167 61.5 -55.5s54.333 -26.333 87 -39s65.834 -23.667 99.501 -33
s66.834 -22.333 99.501 -39s61.667 -35.167 87 -55.5s45.833 -48.166 61.5 -83.499s23.5 -76.333 23.5 -123c0 -172 -116.333 -258 -349 -258c-78 0 -174.667 10 -290 30z" />
    <glyph glyph-name="t" unicode="t" horiz-adv-x="480" 
d="M41 880l0.000976562 64h101v203h77v-203h216v-64h-216v-631c0 -57.333 10.667 -102.5 32 -135.5s53.333 -49.5 96 -49.5c45.333 0 84 5.33301 116 16l9 -60c-30.667 -13.333 -75.334 -20 -134.001 -20c-130.667 0 -196 82.667 -196 248v632h-101z" />
    <glyph glyph-name="u" unicode="u" horiz-adv-x="959" 
d="M132 338l-0.000976562 606h76v-602c0 -92 19.667 -164 59 -216s101 -78 185 -78c49.333 0 104.5 5.16699 165.5 15.5s105.833 20.5 134.5 30.5v850h76v-898c-44.667 -16.667 -103.167 -31.5 -175.5 -44.5s-139.166 -19.5 -200.499 -19.5
c-110 0 -190.833 31.167 -242.5 93.5s-77.5 149.833 -77.5 262.5z" />
    <glyph glyph-name="v" unicode="v" horiz-adv-x="860" 
d="M78 942l79 0.000976562c12.667 -117.333 31.667 -230.166 57 -338.499s52.166 -198 80.499 -269s54.333 -129.167 78 -174.5s43.167 -75 58.5 -89c15.333 14.667 34.833 44.5 58.5 89.5s49.667 103.167 78 174.5s55 161.166 80 269.499s43.5 220.833 55.5 337.5h79
c-10 -102.667 -25.5 -202.667 -46.5 -300s-43.5 -180.5 -67.5 -249.5s-49.333 -132.333 -76 -190s-50.167 -102.334 -70.5 -134.001s-37.5 -54.5 -51.5 -68.5h-78c-18.667 18.667 -41.667 52 -69 100s-57.666 110.5 -90.999 187.5s-64.5 173.667 -93.5 290
s-49.167 237.833 -60.5 364.5z" />
    <glyph glyph-name="w" unicode="w" horiz-adv-x="1298" 
d="M64 944l79.998 0.000976562c10.667 -118.667 26.834 -232.167 48.501 -340.5s44.667 -197.833 69 -268.5s46.333 -128.167 66 -172.5s35.834 -74.166 48.501 -89.499c12.667 15.333 29 45.166 49 89.499s42.167 102 66.5 173s47.5 160.667 69.5 269s38 221.5 48 339.5h80
c10.667 -118.667 26.834 -232.167 48.501 -340.5s44.667 -197.833 69 -268.5s46.333 -128.167 66 -172.5s35.834 -74.166 48.501 -89.499c13.333 15.333 30 45.166 50 89.499s42 102 66 173s46.833 160.667 68.5 269s37.834 221.5 48.501 339.5h82
c-10.667 -128.667 -28.5 -251.334 -53.5 -368.001s-52.167 -213.334 -81.5 -290.001s-55.666 -138.5 -78.999 -185.5s-43.333 -80.5 -60 -100.5h-80c-14.667 19.333 -31.5 48 -50.5 86s-40.833 88.667 -65.5 152s-47.834 142.333 -69.501 237s-37.834 194.667 -48.501 300
c-10.667 -105.333 -26.834 -205.333 -48.501 -300s-44.834 -173.667 -69.501 -237s-46.167 -113.833 -64.5 -151.5s-34.5 -66.5 -48.5 -86.5h-82c-16 20.667 -35.333 54.167 -58 100.5s-48.667 108 -78 185s-56.5 173.833 -81.5 290.5s-42.833 239.334 -53.5 368.001z" />
    <glyph glyph-name="x" unicode="x" horiz-adv-x="813" 
d="M64 0c9.33301 56.667 24.168 111 44.501 163s43.666 97.667 69.999 137s51.166 72.5 74.499 99.5s47 51.167 71 72.5c-54 45.333 -106.5 108.333 -157.5 189s-85.167 174.334 -102.5 281.001h73c12.667 -58 31.667 -114.167 57 -168.5s51.833 -99.166 79.5 -134.499
s53.167 -64.333 76.5 -87s42 -37.334 56 -44.001c14.667 6.66699 33.834 21.334 57.501 44.001s49.334 51.667 77.001 87s53.834 80.166 78.501 134.499s42.667 110.5 54 168.5h77c-10 -56.667 -25.333 -111.167 -46 -163.5s-44.167 -98 -70.5 -137s-51.333 -72 -75 -99
s-47.167 -50.5 -70.5 -70.5c24 -21.333 47.667 -45.5 71 -72.5s48.166 -60.167 74.499 -99.5s50 -85 71 -137s36.167 -106.333 45.5 -163h-77c-11.333 58 -29.333 114.167 -54 168.5s-50.834 99.5 -78.501 135.5s-53.334 65.333 -77.001 88s-42.834 37.334 -57.501 44.001
c-37.333 -18.667 -85.666 -68.834 -144.999 -150.501s-100.666 -176.834 -123.999 -285.501h-73z" />
    <glyph glyph-name="y" unicode="y" horiz-adv-x="854" 
d="M77 942l81.001 0.000976562c12 -116.667 30.667 -229 56 -337s52 -197.333 80 -268s54 -128.667 78 -174s43.667 -74.666 59 -87.999l2 -7c84 130 148.833 262.667 194.5 398s68.5 281.666 68.5 438.999v39h77v-41c0 -84.667 -6.33301 -166.167 -19 -244.5
s-32.834 -154.5 -60.501 -228.5s-56.5 -141.833 -86.5 -203.5s-69.5 -128.834 -118.5 -201.501s-93.333 -135.5 -133 -188.5l-152.5 -196.5l-57 39c115.333 148 196.666 256.333 243.999 325c-20 22 -43.667 57.167 -71 105.5s-57.5 111 -90.5 188s-63.667 172.667 -92 287
s-48.166 233.5 -59.499 357.5z" />
    <glyph glyph-name="z" unicode="z" horiz-adv-x="817" 
d="M85 0v143.998c0 43.333 10.167 83.833 30.5 121.5s46.833 70.5 79.5 98.5s68.667 55.167 108 81.5l118 78c39.333 25.667 75.333 52.167 108 79.5s59.167 58.833 79.5 94.5s30.5 73.834 30.5 114.501v62h-539v70h619v-141c0 -46 -10.167 -89.167 -30.5 -129.5
s-47 -75.333 -80 -105s-69.333 -58 -109 -85l-118.5 -79c-39.333 -25.667 -75.5 -51.5 -108.5 -77.5s-59.667 -55.667 -80 -89s-30.5 -68.666 -30.5 -105.999v-63h570v-69h-647z" />
    <glyph glyph-name="braceleft" unicode="{" horiz-adv-x="393" 
d="M18 481l0.00195312 52.998c24 0 45.333 4.33301 64 13s33.667 21.334 45 38.001s20.666 34.334 27.999 53.001s12.833 40.667 16.5 66s6 47.833 7 67.5s1.5 42.167 1.5 67.5v181c0 29.333 1.33301 55.666 4 78.999s8.16699 47.333 16.5 72s19.666 45.167 33.999 61.5
s33.833 29.833 58.5 40.5s54 16 88 16v-53c-48 0 -81.667 -18 -101 -54s-29 -91 -29 -165v-178c0 -85.333 -8.83301 -155.666 -26.5 -210.999s-47.834 -95.333 -90.501 -120c78 -44.667 117 -155.667 117 -333v-147c0 -74 9.66699 -129 29 -165s53 -54 101 -54v-53
c-34 0 -63.333 5.33301 -88 16s-44.167 24.167 -58.5 40.5s-25.666 36.833 -33.999 61.5s-13.833 48.667 -16.5 72s-4 49.666 -4 78.999v150c0 30.667 -0.833008 57.834 -2.5 81.501s-5.5 50.5 -11.5 80.5s-14.5 54.667 -25.5 74s-27 35.833 -48 49.5
s-45.833 20.5 -74.5 20.5z" />
    <glyph glyph-name="bar" unicode="|" horiz-adv-x="352" 
d="M151 -383v1710h75v-1710h-75z" />
    <glyph glyph-name="braceright" unicode="}" horiz-adv-x="416" 
d="M18 -191c48 0 81.668 18.001 101.001 54.001s29 91 29 165v179c0 85.333 8.66699 155.666 26 210.999s47.666 95.333 90.999 120c-44 24.667 -74.5 64.667 -91.5 120s-25.5 126.333 -25.5 213v146c0 74 -9.66699 129 -29 165s-53 54 -101 54v53c42 0 77 -7.5 105 -22.5
s48.833 -36.167 62.5 -63.5s23 -55.333 28 -84s7.5 -61.667 7.5 -99v-149c0 -26 0.5 -48.667 1.5 -68s3.16699 -41.833 6.5 -67.5s8.66602 -47.667 15.999 -66s16.666 -36 27.999 -53s26.166 -29.833 44.499 -38.5s39.5 -13 63.5 -13v-54c-24 0 -45.167 -4.33301 -63.5 -13
s-33.166 -21.334 -44.499 -38.001s-20.666 -34.167 -27.999 -52.5s-12.666 -40.166 -15.999 -65.499s-5.5 -47.833 -6.5 -67.5s-1.5 -42.167 -1.5 -67.5v-182c0 -37.333 -2.5 -70.333 -7.5 -99s-14.333 -56.667 -28 -84s-34.5 -48.5 -62.5 -63.5s-63 -22.5 -105 -22.5v53z
" />
    <glyph glyph-name="asciitilde" unicode="~" horiz-adv-x="893" 
d="M107 481c21.333 41.333 48.499 73.333 81.499 96s68.833 34 107.5 34c26 0 52.5 -6.33301 79.5 -19s50.167 -26.5 69.5 -41.5s42.833 -28.833 70.5 -41.5s55.167 -19 82.5 -19c63.333 0 115 29 155 87l39 -27c-16.667 -44 -43.167 -76.833 -79.5 -98.5
s-75.5 -32.5 -117.5 -32.5c-29.333 0 -58.666 6.33301 -87.999 19s-53.833 26.5 -73.5 41.5s-42.667 28.833 -69 41.5s-51.5 19 -75.5 19c-52.667 0 -98.667 -30.333 -138 -91z" />
    <glyph glyph-name="exclamdown" unicode="&#xa1;" horiz-adv-x="306" 
d="M128 -331v983h80v-983h-80zM128 809v151h80v-151h-80z" />
    <glyph glyph-name="cent" unicode="&#xa2;" horiz-adv-x="801" 
d="M100 458v27.999c0 294 111.667 452 335 474v210h73v-208c64 -2 133.333 -14 208 -36l-13 -60c-68 21.333 -135 32 -201 32c-112.667 0 -194 -34.833 -244 -104.5s-75 -172.167 -75 -307.5v-32c0 -137.333 25.5 -239.666 76.5 -306.999s134.833 -101 251.5 -101
c56 0 122 5.33301 198 16l9 -58c-70 -12.667 -140 -20 -210 -22v-201h-73v205c-116.667 11.333 -201.667 56.333 -255 135s-80 191 -80 337z" />
    <glyph glyph-name="sterling" unicode="&#xa3;" horiz-adv-x="847" 
d="M68 0l-0.000976562 64.001c162.667 85.333 244 209 244 371c0 39.333 -5 88.333 -15 147h-194v64h182c-1.33301 7.33301 -4.5 25.833 -9.5 55.5l-10.5 63c-2 12.333 -4.5 30 -7.5 53s-5.16699 43.167 -6.5 60.5s-2 34 -2 50v35c0 112.667 31.5 196.167 94.5 250.5
s149.833 81.5 260.5 81.5c40 0 114.667 -9 224 -27l-12 -61l-50.5 7c-23.667 3.33301 -42.167 5.83301 -55.5 7.5s-29.833 3.33398 -49.5 5.00098s-37.5 2.5 -53.5 2.5c-37.333 0 -71.833 -4.33301 -103.5 -13s-61.167 -22.834 -88.5 -42.501
s-48.666 -47.334 -63.999 -83.001s-23 -78.167 -23 -127.5v-35c0 -49.333 13 -143.333 39 -282h283v-64h-272c10.667 -65.333 16 -118 16 -158c0 -157.333 -70.333 -276 -211 -356h665v-68h-780z" />
    <glyph glyph-name="currency" unicode="&#xa4;" horiz-adv-x="776" 
d="M11 126l85 81v548l-85 80l58 59l73 -71c62 23.333 143.333 35 244 35c104.667 0 188.667 -12.333 252 -37l78 73l57 -59l-94 -89v-531l94 -89l-57 -58l-80 74c-56.667 -22 -140 -33 -250 -33c-103.333 0 -184 10 -242 30l-75 -71zM182 215
c0 -11.333 22.8311 -21.166 68.498 -29.499s90.834 -12.5 135.501 -12.5c46 0 92 4.16699 138 12.5s69 18.166 69 29.499v540c0 10.667 -23.5 20.5 -70.5 29.5s-92.5 13.5 -136.5 13.5c-43.333 0 -88.166 -4.5 -134.499 -13.5s-69.5 -18.833 -69.5 -29.5v-540z" />
    <glyph glyph-name="yen" unicode="&#xa5;" horiz-adv-x="927" 
d="M37 1280h91l339 -691l331 691h92l-363 -724h308v-70h-327v-132h327v-69h-327v-285h-84v285h-324v69h324v132h-322v70h302z" />
    <glyph glyph-name="brokenbar" unicode="&#xa6;" horiz-adv-x="350" 
d="M148 294h80v-673h-80v673zM148 702v659h80v-659h-80z" />
    <glyph glyph-name="section" unicode="&#xa7;" horiz-adv-x="790" 
d="M62 -153l8.99805 59.9951c100 -18.667 195.667 -28 287 -28c176.667 0 265 64.667 265 194c0 44 -10 81.5 -30 112.5s-46 55.167 -78 72.5s-67.167 32.5 -105.5 45.5l-115.5 39.5c-38.667 13.333 -74 28.833 -106 46.5s-58 42.834 -78 75.501s-30 71.667 -30 117
c0 34 5.83301 63.833 17.5 89.5s27 46.334 46 62.001s43 28.334 72 38.001s59 16.167 90 19.5s65.833 5 104.5 5c20 0 34.667 -0.666992 44 -2c-18 7.33301 -44.5 16.833 -79.5 28.5s-63 21.334 -84 29.001s-45.5 19 -73.5 34s-49.833 30.833 -65.5 47.5
s-29.167 38.334 -40.5 65.001s-17 56.667 -17 90s5.66699 62.666 17 87.999s26.5 45.833 45.5 61.5s42.833 28.167 71.5 37.5s58.167 15.833 88.5 19.5s64.833 5.5 103.5 5.5c95.333 0 187 -9.33301 275 -28l-9 -59c-92.667 17.333 -179.334 26 -260.001 26
c-37.333 0 -69.833 -1.83301 -97.5 -5.5s-54.167 -10.5 -79.5 -20.5s-44.666 -25.333 -57.999 -46s-20 -46.334 -20 -77.001c0 -32 7.83301 -59.833 23.5 -83.5s36.167 -42.167 61.5 -55.5s54.333 -26.333 87 -39s65.834 -23.667 99.501 -33s66.834 -22.166 99.501 -38.499
s61.667 -34.666 87 -54.999s45.833 -48.166 61.5 -83.499s23.5 -76.333 23.5 -123c0 -122.667 -64.667 -202.334 -194 -239.001c57.333 -26 102 -59.167 134 -99.5s48 -95.5 48 -165.5c0 -172 -116.333 -258 -349 -258c-78.667 0 -175.667 10 -291 30zM157.998 585.995
c0 -14 1.66992 -26.999 5.00293 -38.999s7 -22.833 11 -32.5s10.833 -19.167 20.5 -28.5l23.5 -23c6 -6 16.667 -12.833 32 -20.5l33.5 -16.5c7 -3.33301 20.167 -8.5 39.5 -15.5s32.166 -11.5 38.499 -13.5l42.5 -14c47.333 3.33301 87.166 11.666 119.499 24.999
s56.166 30 71.499 50s26 39.333 32 58s9 39 9 61c0 56 -18 103 -54 141c-56.667 11.333 -113 17 -169 17c-38 0 -70.833 -2 -98.5 -6s-54.167 -11 -79.5 -21s-44.5 -25.333 -57.5 -46s-19.5 -46 -19.5 -76z" />
    <glyph glyph-name="dieresis" unicode="&#xa8;" horiz-adv-x="708" 
d="M151 1051v135h77v-135h-77zM484 1051v135h77v-135h-77z" />
    <glyph glyph-name="copyright" unicode="&#xa9;" horiz-adv-x="1558" 
d="M69 632c0 106 17.833 200.5 53.5 283.5s85.5 150.833 149.5 203.5s138.667 92.667 224 120s178.666 41 279.999 41c102 0 195.833 -13.667 281.5 -41s160.667 -67.333 225 -120s114.5 -120.5 150.5 -203.5s54 -177.5 54 -283.5s-18 -200.667 -54 -284
s-86.167 -151.333 -150.5 -204s-139.333 -92.834 -225 -120.501s-179.5 -41.5 -281.5 -41.5c-101.333 0 -194.666 13.833 -279.999 41.5s-160 67.834 -224 120.501s-113.833 120.667 -149.5 204s-53.5 178 -53.5 284zM130 632c0 -98.667 16.167 -186.333 48.5 -263
s77.5 -139 135.5 -187s126 -84.333 204 -109s164 -37 258 -37s180.167 12.333 258.5 37s146.666 61 204.999 109s103.833 110.333 136.5 187s49 164.334 49 263.001c0 98 -16.333 185.333 -49 262s-78.167 139 -136.5 187s-126.666 84.333 -204.999 109s-164.5 37 -258.5 37
s-180 -12.167 -258 -36.5s-146 -60.5 -204 -108.5s-103.167 -110.333 -135.5 -187s-48.5 -164.334 -48.5 -263.001zM431 593.001v27c0 308.667 126 463 378 463c74 0 148 -12 222 -36l-12 -59c-66 21.333 -131.333 32 -196 32c-109.333 0 -188.333 -33.833 -237 -101.5
s-73 -167.167 -73 -298.5v-31c0 -134 24.833 -233.667 74.5 -299s131.167 -98 244.5 -98c54.667 0 118.667 5.33301 192 16l9 -57c-72.667 -14 -144 -21 -214 -21c-135.333 0 -233.833 38.833 -295.5 116.5s-92.5 193.167 -92.5 346.5z" />
    <glyph glyph-name="ordfeminine" unicode="&#xaa;" horiz-adv-x="724" 
d="M75 782l0.00195312 14.001c0 58.667 21.667 104.167 65 136.5s104.666 48.5 183.999 48.5c62 0 127.333 -11.667 196 -35v155c0 45.333 -13 79.666 -39 102.999s-68.333 35 -127 35c-68.667 0 -141.667 -8 -219 -24l-9 42c81.333 19.333 159.333 29 234 29
c142 0 213 -61.667 213 -185v-467c-62.667 -27.333 -140.334 -41 -233.001 -41c-176.667 0 -265 63 -265 189zM134.002 782.001c0 -101.333 70 -152 210 -152c63.333 0 122 9.66699 176 29v246c-52.667 22.667 -115 34 -187 34c-132.667 0 -199 -49.333 -199 -148v-9z" />
    <glyph glyph-name="guillemotleft" unicode="&#xab;" horiz-adv-x="717" 
d="M53 513l312 370l52 -44l-266 -326l264 -324l-50 -47zM303 513l311 370l52 -44l-265 -326l263 -324l-50 -47z" />
    <glyph glyph-name="logicalnot" unicode="&#xac;" horiz-adv-x="993" 
d="M2 630v72h846v-446h-73v374h-773z" />
    <glyph glyph-name="registered" unicode="&#xae;" horiz-adv-x="1556" 
d="M46 632c0 106 17.833 200.5 53.5 283.5s85.5 150.833 149.5 203.5s138.667 92.667 224 120s178.666 41 279.999 41c102 0 195.833 -13.667 281.5 -41s160.667 -67.333 225 -120s114.5 -120.5 150.5 -203.5s54 -177.5 54 -283.5s-18 -200.667 -54 -284
s-86.167 -151.333 -150.5 -204s-139.333 -92.834 -225 -120.501s-179.5 -41.5 -281.5 -41.5c-101.333 0 -194.666 13.833 -279.999 41.5s-160 67.834 -224 120.501s-113.833 120.667 -149.5 204s-53.5 178 -53.5 284zM107 632c0 -98.667 16.167 -186.333 48.5 -263
s77.5 -139 135.5 -187s126 -84.333 204 -109s164 -37 258 -37s180.167 12.333 258.5 37s146.666 61 204.999 109s103.833 110.333 136.5 187s49 164.334 49 263.001c0 98 -16.333 185.333 -49 262s-78.167 139 -136.5 187s-126.666 84.333 -204.999 109s-164.5 37 -258.5 37
s-180 -12.167 -258 -36.5s-146 -60.5 -204 -108.5s-103.167 -110.333 -135.5 -187s-48.5 -164.334 -48.5 -263.001zM481 171.001l0.00488281 905c75.333 14 156.666 21 243.999 21c111.333 0 192.5 -21 243.5 -63s76.5 -109.333 76.5 -202v-22
c0 -74.667 -19.167 -132.5 -57.5 -173.5s-98.5 -66.833 -180.5 -77.5c26.667 -18 52.834 -38.667 78.501 -62s52.5 -51.166 80.5 -83.499s53.167 -69.5 75.5 -111.5s39.166 -85.667 50.499 -131h-79c-14.667 49.333 -36.334 97.166 -65.001 143.499
s-58.834 85.5 -90.501 117.5s-61.834 58.5 -90.501 79.5s-53.334 35.167 -74.001 42.5c-39.333 0 -84 2.33301 -134 7v-390h-78zM559.005 622.001c4.66699 0 26.999 -2.16699 66.999 -6.5s72.333 -6.5 97 -6.5c82.667 0 143.167 16.5 181.5 49.5s57.5 84.167 57.5 153.5v20
c0 70 -19.667 121.333 -59 154s-98.666 49 -177.999 49c-48 0 -103.333 -4.33301 -166 -13v-400z" />
    <glyph glyph-name="macron" unicode="&#xaf;" horiz-adv-x="690" 
d="M148 1051v60h399v-60h-399z" />
    <glyph glyph-name="degree" unicode="&#xb0;" horiz-adv-x="487" 
d="M100 1165c0 36.667 13.833 65.334 41.5 86.001s61.167 31 100.5 31c38.667 0 71.834 -10.333 99.501 -31s41.5 -49.334 41.5 -86.001c0 -38 -13.833 -67.167 -41.5 -87.5s-60.834 -30.5 -99.501 -30.5s-72 10.167 -100 30.5s-42 49.5 -42 87.5zM158 1165
c0 -23.333 8.66797 -42 26.001 -56s36.666 -21 57.999 -21c20.667 0 39.5 7 56.5 21s25.5 32.667 25.5 56c0 24 -8.5 42.667 -25.5 56s-35.833 20 -56.5 20c-22 0 -41.5 -6.66699 -58.5 -20s-25.5 -32 -25.5 -56z" />
    <glyph glyph-name="plusminus" unicode="&#xb1;" horiz-adv-x="856" 
d="M11 -27h842v-69h-842v69zM11 465v66h383v397h67v-397h378v-66h-378v-399h-67v399h-383z" />
    <glyph glyph-name="uni00B2" unicode="&#xb2;" horiz-adv-x="886" 
d="M96 338l0.000976562 145.999c0 32 10.5 61.833 31.5 89.5s48.167 52 81.5 73s70.166 41.333 110.499 61l121 58c40.333 19 77.166 38.333 110.499 58s60.5 42.5 81.5 68.5s31.5 53.333 31.5 82v112c0 100 -81.667 150 -245 150c-48 0 -101 -6 -159 -18
s-102.667 -25 -134 -39l-23 59c37.333 16.667 86.333 31.167 147 43.5s117.334 18.5 170.001 18.5c217.333 0 326 -69 326 -207v-128c0 -34 -10.5 -65.667 -31.5 -95s-48.167 -54.833 -81.5 -76.5s-70.333 -42.5 -111 -62.5l-122 -57.5
c-40.667 -18.333 -77.667 -37.166 -111 -56.499s-60.5 -41.333 -81.5 -66s-31.5 -51 -31.5 -79v-62h608v-72h-688z" />
    <glyph glyph-name="uni00B3" unicode="&#xb3;" horiz-adv-x="799" 
d="M91 344l6.99707 57.999c106.667 -9.33301 196.334 -14 269.001 -14c106.667 0 184.334 16.833 233.001 50.5s73 86.5 73 158.5v17c0 71.333 -26.333 124 -79 158s-136.667 51 -252 51h-82v62h71c92 0 159.333 14 202 42s64 70.333 64 127v16
c0 60 -21.167 103.167 -63.5 129.5s-109.166 39.5 -200.499 39.5c-66 0 -139.667 -3.33301 -221 -10l-7 57c57.333 9.33301 140 14 248 14c114.667 0 198.167 -18 250.5 -54s78.5 -94.667 78.5 -176v-16c0 -51.333 -13.333 -92.666 -40 -123.999s-69 -54 -127 -68
c85.333 -14 147.5 -41.167 186.5 -81.5s58.5 -95.833 58.5 -166.5v-19c0 -92 -30.333 -159.833 -91 -203.5s-156.667 -65.5 -288 -65.5c-118 0 -214.667 6 -290 18z" />
    <glyph glyph-name="acute" unicode="&#xb4;" horiz-adv-x="286" 
d="M102 1015l130 221h85l-153 -221h-62z" />
    <glyph glyph-name="mu" unicode="&#xb5;" horiz-adv-x="961" 
d="M130 305l0.00195312 639h78v-647c4.66699 -166 86 -249 244 -249c50.667 0 106.5 10.5 167.5 31.5s105.5 42.5 133.5 64.5v800h77v-944h-77v82c-48.667 -30 -101.834 -54.167 -159.501 -72.5s-112.5 -27.5 -164.5 -27.5c-96.667 0 -170.334 26.333 -221.001 79v-465h-76
v666c-1.33301 8 -2 22.333 -2 43z" />
    <glyph glyph-name="mu" unicode="&#x3bc;" horiz-adv-x="961" 
d="M130 305l0.00195312 639h78v-647c4.66699 -166 86 -249 244 -249c50.667 0 106.5 10.5 167.5 31.5s105.5 42.5 133.5 64.5v800h77v-944h-77v82c-48.667 -30 -101.834 -54.167 -159.501 -72.5s-112.5 -27.5 -164.5 -27.5c-96.667 0 -170.334 26.333 -221.001 79v-465h-76
v666c-1.33301 8 -2 22.333 -2 43z" />
    <glyph glyph-name="paragraph" unicode="&#xb6;" horiz-adv-x="947" 
d="M41 988c0 104 33.332 188.833 99.999 254.5s153.334 98.5 260.001 98.5h367v-1564h-81v1500h-178v-1500h-80v861c-116.667 2 -210.5 34.5 -281.5 97.5s-106.5 147.167 -106.5 252.5z" />
    <glyph glyph-name="periodcentered" unicode="&#xb7;" horiz-adv-x="724" 
d="M118 438v151h80v-151h-80z" />
    <glyph glyph-name="cedilla" unicode="&#xb8;" horiz-adv-x="407" 
d="M78 -289l13.001 23.999c28 -16.667 61.333 -25 100 -25c29.333 0 53.5 6.83301 72.5 20.5s28.5 35.834 28.5 66.501c0 58 -44.667 87 -134 87l56 105h32l-43 -80c41.333 0 76.333 -9.33301 105 -28s43 -46 43 -82c0 -41.333 -14.333 -71.333 -43 -90
s-64.334 -28 -107.001 -28c-50.667 0 -91.667 10 -123 30z" />
    <glyph glyph-name="uni00B9" unicode="&#xb9;" horiz-adv-x="372" 
d="M107 1222v64h158v-948h-80v884h-78z" />
    <glyph glyph-name="ordmasculine" unicode="&#xba;" horiz-adv-x="719" 
d="M93 930v21c0 106.667 23.167 189.5 69.5 248.5s115.5 88.5 207.5 88.5c92.667 0 162.5 -29.667 209.5 -89s70.5 -142 70.5 -248v-21c0 -106 -23.5 -188.667 -70.5 -248s-116.833 -89 -209.5 -89c-92 0 -161.167 29.5 -207.5 88.5s-69.5 141.833 -69.5 248.5zM151 930
c0 -92.667 18.167 -164.5 54.5 -215.5s91.166 -76.5 164.499 -76.5s128.5 25.667 165.5 77s55.5 123 55.5 215v21c0 93.333 -18.5 165.333 -55.5 216s-92.167 76 -165.5 76s-128.166 -25.333 -164.499 -76s-54.5 -122.667 -54.5 -216v-21z" />
    <glyph glyph-name="guillemotright" unicode="&#xbb;" horiz-adv-x="717" 
d="M53 839l52 44l312 -370l-312 -371l-50 47l264 324zM303 839l51 44l312 -370l-312 -371l-49 47l263 324z" />
    <glyph glyph-name="onequarter" unicode="&#xbc;" horiz-adv-x="1818" 
d="M128 1218v64h159v-947h-80v883h-79zM465 -18l511 1318h80l-513 -1318h-78zM1054 173v148.999c0 34 10.5 66.333 31.5 97s48.167 57.834 81.5 81.501s70 46.834 110 69.501l120.5 69c40.333 23.333 77.166 47.5 110.499 72.5s60.5 54 81.5 87s31.5 67.833 31.5 104.5v48
h82v-57c0 -40.667 -10.333 -78.5 -31 -113.5s-47.667 -65.5 -81 -91.5s-70.166 -50.667 -110.499 -74l-120.5 -68c-40 -22 -76.667 -44.333 -110 -67s-60.333 -48.334 -81 -77.001s-31 -59 -31 -91v-70h474v237h87v-237h57v-69h-57v-173h-87v173h-558z" />
    <glyph glyph-name="onehalf" unicode="&#xbd;" horiz-adv-x="1875" 
d="M128 1264v65h159v-948h-80v883h-79zM465 -18l511 1318h80l-513 -1318h-78zM1111 0l0.000976562 145.998c0 32 10.5 61.833 31.5 89.5s48.167 52 81.5 73s70.166 41.333 110.499 61l121 58c40.333 19 77.166 38.333 110.499 58s60.5 42.5 81.5 68.5s31.5 53.333 31.5 82
v112c0 100 -81.667 150 -245 150c-48 0 -100.833 -6 -158.5 -18s-102.167 -25 -133.5 -39l-24 58c37.333 16.667 86.333 31.334 147 44.001s117.334 19 170.001 19c217.333 0 326 -69 326 -207v-128c0 -34 -10.5 -65.667 -31.5 -95s-48.167 -54.833 -81.5 -76.5
s-70.333 -42.5 -111 -62.5l-122 -57.5c-40.667 -18.333 -77.667 -37.166 -111 -56.499s-60.5 -41.333 -81.5 -66s-31.5 -51 -31.5 -79v-63h608v-71h-688z" />
    <glyph glyph-name="threequarters" unicode="&#xbe;" horiz-adv-x="2035" 
d="M116 344l6.99707 57.999c106.667 -9.33301 196.334 -14 269.001 -14c106.667 0 184.334 16.833 233.001 50.5s73 86.5 73 158.5v17c0 71.333 -26.333 124 -79 158s-136.667 51 -252 51h-82v62h71c92 0 159.333 14 202 42s64 70.333 64 127v16
c0 60 -21.167 103.167 -63.5 129.5s-109.166 39.5 -200.499 39.5c-66 0 -139.667 -3.33301 -221 -10l-7 57c57.333 9.33301 140 14 248 14c114.667 0 198.167 -18 250.5 -54s78.5 -94.667 78.5 -176v-16c0 -51.333 -13.333 -92.666 -40 -123.999s-69 -54 -127 -68
c85.333 -14 147.5 -41.167 186.5 -81.5s58.5 -95.833 58.5 -166.5v-19c0 -92 -30.333 -159.833 -91 -203.5s-156.667 -65.5 -288 -65.5c-118 0 -214.667 6 -290 18zM726.997 -18.001l512 1318h81l-513 -1318h-80zM1177 172.999l0.00195312 148.999
c0 30 8.16699 58.833 24.5 86.5s37.666 51.834 63.999 72.501s56.5 41.834 90.5 63.501s68.667 41.667 104 60s70 38.666 104 60.999s64.167 44.5 90.5 66.5s47.666 47.833 63.999 77.5s24.5 60.834 24.5 93.501v48h82v-57c0 -40.667 -10.333 -78.5 -31 -113.5
s-47.667 -65.5 -81 -91.5s-70 -50.667 -110 -74l-120 -68c-40 -22 -76.667 -44.333 -110 -67s-60.333 -48.334 -81 -77.001s-31 -59 -31 -91v-70h474v237h87v-237h57v-69h-57v-173h-87v173h-558z" />
    <glyph glyph-name="questiondown" unicode="&#xbf;" horiz-adv-x="974" 
d="M219 -82v175.999c0 32.667 6.33301 63.5 19 92.5s29.334 54.333 50.001 76s43.334 42.667 68.001 63l74.5 59.5c25 19.333 47.833 39 68.5 59s37.334 43 50.001 69s19 53.333 19 82v128h82v-142c0 -31.333 -6.33301 -61 -19 -89s-29.334 -52.5 -50.001 -73.5
s-43.334 -41.5 -68.001 -61.5l-74.5 -59.5c-25 -19.667 -47.833 -39.667 -68.5 -60s-37.334 -43.666 -50.001 -69.999s-19 -54.166 -19 -83.499v-162c0 -141.333 91.333 -212 274 -212c49.333 0 105.5 8.5 168.5 25.5s111.833 34.5 146.5 52.5l24 -60
c-40.667 -22.667 -93.667 -42.334 -159 -59.001s-127 -25 -185 -25c-120 0 -208.5 24 -265.5 72s-85.5 115.333 -85.5 202zM570 791.999v152h85v-152h-85z" />
    <glyph glyph-name="Agrave" unicode="&#xc0;" horiz-adv-x="1016" 
d="M78 0c12 143.333 31.334 282 58.001 416s55 247.667 85 341s62 178.666 96 255.999s63.333 136.666 88 177.999s45.667 71.666 63 90.999h82c17.333 -19.333 38.166 -49.666 62.499 -90.999s53.333 -100.666 87 -177.999s65.5 -162.666 95.5 -255.999
s58.167 -207 84.5 -341s45.5 -272.667 57.5 -416h-82c-14 147.333 -32.333 280.333 -55 399h-585c-26 -136 -44.333 -269 -55 -399h-82zM230.001 467l555 -0.000976562c-39.333 191.333 -86.5 353.333 -141.5 486s-99.833 217.334 -134.5 254.001
c-34.667 -36.667 -79.5 -121.167 -134.5 -253.5s-103.167 -294.5 -144.5 -486.5zM329.001 1533h84l141 -206h-68z" />
    <glyph glyph-name="Aacute" unicode="&#xc1;" horiz-adv-x="1016" 
d="M78 0c12 143.333 31.334 282 58.001 416s55 247.667 85 341s62 178.666 96 255.999s63.333 136.666 88 177.999s45.667 71.666 63 90.999h82c17.333 -19.333 38.166 -49.666 62.499 -90.999s53.333 -100.666 87 -177.999s65.5 -162.666 95.5 -255.999
s58.167 -207 84.5 -341s45.5 -272.667 57.5 -416h-82c-14 147.333 -32.333 280.333 -55 399h-585c-26 -136 -44.333 -269 -55 -399h-82zM230.001 467l555 -0.000976562c-39.333 191.333 -86.5 353.333 -141.5 486s-99.833 217.334 -134.5 254.001
c-34.667 -36.667 -79.5 -121.167 -134.5 -253.5s-103.167 -294.5 -144.5 -486.5zM477.001 1327l130 221h86l-153 -221h-63z" />
    <glyph glyph-name="Acircumflex" unicode="&#xc2;" horiz-adv-x="1016" 
d="M78 0c12 143.333 31.334 282 58.001 416s55 247.667 85 341s62 178.666 96 255.999s63.333 136.666 88 177.999s45.667 71.666 63 90.999h82c17.333 -19.333 38.166 -49.666 62.499 -90.999s53.333 -100.666 87 -177.999s65.5 -162.666 95.5 -255.999
s58.167 -207 84.5 -341s45.5 -272.667 57.5 -416h-82c-14 147.333 -32.333 280.333 -55 399h-585c-26 -136 -44.333 -269 -55 -399h-82zM230.001 467l555 -0.000976562c-39.333 191.333 -86.5 353.333 -141.5 486s-99.833 217.334 -134.5 254.001
c-34.667 -36.667 -79.5 -121.167 -134.5 -253.5s-103.167 -294.5 -144.5 -486.5zM306.001 1330l202 164l201 -164l-18 -19l-183 123l-184 -123z" />
    <glyph glyph-name="Atilde" unicode="&#xc3;" horiz-adv-x="1016" 
d="M78 0c12 143.333 31.334 282 58.001 416s55 247.667 85 341s62 178.666 96 255.999s63.333 136.666 88 177.999s45.667 71.666 63 90.999h82c17.333 -19.333 38.166 -49.666 62.499 -90.999s53.333 -100.666 87 -177.999s65.5 -162.666 95.5 -255.999
s58.167 -207 84.5 -341s45.5 -272.667 57.5 -416h-82c-14 147.333 -32.333 280.333 -55 399h-585c-26 -136 -44.333 -269 -55 -399h-82zM230.001 467l555 -0.000976562c-39.333 191.333 -86.5 353.333 -141.5 486s-99.833 217.334 -134.5 254.001
c-34.667 -36.667 -79.5 -121.167 -134.5 -253.5s-103.167 -294.5 -144.5 -486.5zM313.001 1364c28.667 56 69.666 84 122.999 84c18.667 0 36.167 -3.83301 52.5 -11.5s29.5 -16 39.5 -25s21.833 -17.333 35.5 -25s27.167 -11.5 40.5 -11.5c34 0 59.333 14.333 76 43l34 -8
c-25.333 -56.667 -64 -85 -116 -85c-21.333 0 -41.666 6.16699 -60.999 18.5l-55.5 36.5c-17.667 12 -35.167 18 -52.5 18c-35.333 0 -63.333 -14.333 -84 -43z" />
    <glyph glyph-name="Adieresis" unicode="&#xc4;" horiz-adv-x="1016" 
d="M78 0c12 143.333 31.334 282 58.001 416s55 247.667 85 341s62 178.666 96 255.999s63.333 136.666 88 177.999s45.667 71.666 63 90.999h82c17.333 -19.333 38.166 -49.666 62.499 -90.999s53.333 -100.666 87 -177.999s65.5 -162.666 95.5 -255.999
s58.167 -207 84.5 -341s45.5 -272.667 57.5 -416h-82c-14 147.333 -32.333 280.333 -55 399h-585c-26 -136 -44.333 -269 -55 -399h-82zM230.001 467l555 -0.000976562c-39.333 191.333 -86.5 353.333 -141.5 486s-99.833 217.334 -134.5 254.001
c-34.667 -36.667 -79.5 -121.167 -134.5 -253.5s-103.167 -294.5 -144.5 -486.5zM305.001 1327v135h76v-135h-76zM638.001 1327v135h76v-135h-76z" />
    <glyph glyph-name="Aring" unicode="&#xc5;" horiz-adv-x="1016" 
d="M78 0c14 168 37.499 328.168 70.499 480.501s69.167 280 108.5 383s75.333 187 108 252s62.334 114.5 89.001 148.5c-58 18.667 -87 55.667 -87 111c0 36.667 13.833 65.334 41.5 86.001s61.167 31 100.5 31c38.667 0 71.834 -10.333 99.501 -31
s41.5 -49.334 41.5 -86.001c0 -55.333 -28.333 -92.333 -85 -111c20 -26.667 42 -61.834 66 -105.501s52.167 -104.5 84.5 -182.5s62.333 -162.167 90 -252.5s53.667 -199.5 78 -327.5s42.166 -260 53.499 -396h-82c-14 147.333 -32.333 280.333 -55 399h-585
c-26 -136 -44.333 -269 -55 -399h-82zM229.999 467.001l555 -0.000976562c-39.333 191.333 -86.5 353.333 -141.5 486s-99.833 217.334 -134.5 254.001c-34.667 -36.667 -79.5 -121.167 -134.5 -253.5s-103.167 -294.5 -144.5 -486.5zM425.999 1375
c0 -23.333 8.5 -42 25.5 -56s36.167 -21 57.5 -21c20.667 0 39.5 7 56.5 21s25.5 32.667 25.5 56c0 24 -8.5 42.667 -25.5 56s-35.833 20 -56.5 20c-22 0 -41.333 -6.66699 -58 -20s-25 -32 -25 -56z" />
    <glyph glyph-name="AE" unicode="&#xc6;" horiz-adv-x="1654" 
d="M78 0c12 143.333 31.332 282.004 57.999 416.004s55 247.667 85 341s62 178.666 96 255.999s63.333 136.666 88 177.999s45.667 71.666 63 90.999h82c38.667 -44.667 87.834 -132.667 147.501 -264s111.5 -292 155.5 -482c44 89.333 134.333 146.333 271 171
c-139.333 37.333 -209 125.666 -209 264.999v24c0 106 34.667 183.167 104 231.5s178.333 72.5 327 72.5c104 0 190.667 -6.66699 260 -20l-10 -58c-86.667 10.667 -165 16 -235 16c-124 0 -214.667 -19.333 -272 -58s-86 -100 -86 -184v-22
c0 -82 26.667 -143.167 80 -183.5s138 -60.5 254 -60.5h81v-62h-95c-146 0 -251.667 -24 -317 -72s-98 -123.667 -98 -227v-25c0 -102 33.333 -177.167 100 -225.5s173 -72.5 319 -72.5c90.667 0 185.667 7.33301 285 22l7 -63c-90.667 -15.333 -192.667 -23 -306 -23
c-177.333 0 -305 32 -383 96l7 -78h-82c-14 147.333 -32.333 280.333 -55 399h-585c-26 -136 -44.333 -269 -55 -399h-82zM229.999 467.004l555 -0.000976562c-39.333 191.333 -86.5 353.333 -141.5 486s-99.833 217.334 -134.5 254.001
c-34.667 -36.667 -79.5 -121.167 -134.5 -253.5s-103.167 -294.5 -144.5 -486.5z" />
    <glyph glyph-name="Ccedilla" unicode="&#xc7;" horiz-adv-x="956" 
d="M84 620l0.000976562 41.9971c0 210.667 40.5 369.667 121.5 477s211.5 161 391.5 161c86.667 0 178.667 -11.333 276 -34l-13 -66c-94.667 21.333 -178.334 32 -251.001 32c-156.667 0 -268.5 -46.667 -335.5 -140s-100.5 -236.666 -100.5 -429.999v-44
c0 -192 34.167 -334.667 102.5 -428s179.5 -140 333.5 -140c82.667 0 168.334 8.33301 257.001 25l10 -66c-82.667 -15.333 -174 -24.333 -274 -27l-34 -64c41.333 0 76.333 -9.33301 105 -28s43 -46 43 -82c0 -41.333 -14.333 -71.333 -43 -90s-64.334 -28 -107.001 -28
c-50.667 0 -91.667 10 -123 30l13 24c28 -16.667 61.333 -25 100 -25c29.333 0 53.5 6.83301 72.5 20.5s28.5 35.834 28.5 66.501c0 58 -44.333 87 -133 87l46 89c-172 5.33301 -296 61.333 -372 168s-114 263.334 -114 470.001z" />
    <glyph glyph-name="Egrave" unicode="&#xc8;" horiz-adv-x="883" 
d="M52 342v27.001c0 96.667 24.167 172.667 72.5 228s124.833 92 229.5 110c-72 19.333 -124.667 50.833 -158 94.5s-50 100.5 -50 170.5v24c0 106 34.667 183.167 104 231.5s178.333 72.5 327 72.5c104 0 190.667 -6.66699 260 -20l-11 -58c-86.667 10.667 -165 16 -235 16
c-124 0 -214.667 -19.333 -272 -58s-86 -100 -86 -184v-22c0 -81.333 26.667 -142.333 80 -183s138.333 -61 255 -61h80v-62h-94c-146 0 -251.667 -24 -317 -72s-98 -123.667 -98 -227v-25c0 -102.667 33.167 -178 99.5 -226s172.5 -72 318.5 -72
c90.667 0 185.667 7.33301 285 22l7 -63c-90.667 -15.333 -192.667 -23 -306 -23c-170 0 -294.333 29.667 -373 89s-118 149.666 -118 270.999zM397 1573h84l141 -207h-68z" />
    <glyph glyph-name="Eacute" unicode="&#xc9;" horiz-adv-x="883" 
d="M52 342v27.001c0 96.667 24.167 172.667 72.5 228s124.833 92 229.5 110c-72 19.333 -124.667 50.833 -158 94.5s-50 100.5 -50 170.5v24c0 106 34.667 183.167 104 231.5s178.333 72.5 327 72.5c104 0 190.667 -6.66699 260 -20l-11 -58c-86.667 10.667 -165 16 -235 16
c-124 0 -214.667 -19.333 -272 -58s-86 -100 -86 -184v-22c0 -81.333 26.667 -142.333 80 -183s138.333 -61 255 -61h80v-62h-94c-146 0 -251.667 -24 -317 -72s-98 -123.667 -98 -227v-25c0 -102.667 33.167 -178 99.5 -226s172.5 -72 318.5 -72
c90.667 0 185.667 7.33301 285 22l7 -63c-90.667 -15.333 -192.667 -23 -306 -23c-170 0 -294.333 29.667 -373 89s-118 149.666 -118 270.999zM545 1366l130 221h85l-153 -221h-62z" />
    <glyph glyph-name="Ecircumflex" unicode="&#xca;" horiz-adv-x="883" 
d="M52 342v27.001c0 96.667 24.167 172.667 72.5 228s124.833 92 229.5 110c-72 19.333 -124.667 50.833 -158 94.5s-50 100.5 -50 170.5v24c0 106 34.667 183.167 104 231.5s178.333 72.5 327 72.5c104 0 190.667 -6.66699 260 -20l-11 -58c-86.667 10.667 -165 16 -235 16
c-124 0 -214.667 -19.333 -272 -58s-86 -100 -86 -184v-22c0 -81.333 26.667 -142.333 80 -183s138.333 -61 255 -61h80v-62h-94c-146 0 -251.667 -24 -317 -72s-98 -123.667 -98 -227v-25c0 -102.667 33.167 -178 99.5 -226s172.5 -72 318.5 -72
c90.667 0 185.667 7.33301 285 22l7 -63c-90.667 -15.333 -192.667 -23 -306 -23c-170 0 -294.333 29.667 -373 89s-118 149.666 -118 270.999zM374 1369l201 164l201 -164l-17 -19l-184 123l-183 -123z" />
    <glyph glyph-name="Edieresis" unicode="&#xcb;" horiz-adv-x="883" 
d="M52 342v27.001c0 96.667 24.167 172.667 72.5 228s124.833 92 229.5 110c-72 19.333 -124.667 50.833 -158 94.5s-50 100.5 -50 170.5v24c0 106 34.667 183.167 104 231.5s178.333 72.5 327 72.5c104 0 190.667 -6.66699 260 -20l-11 -58c-86.667 10.667 -165 16 -235 16
c-124 0 -214.667 -19.333 -272 -58s-86 -100 -86 -184v-22c0 -81.333 26.667 -142.333 80 -183s138.333 -61 255 -61h80v-62h-94c-146 0 -251.667 -24 -317 -72s-98 -123.667 -98 -227v-25c0 -102.667 33.167 -178 99.5 -226s172.5 -72 318.5 -72
c90.667 0 185.667 7.33301 285 22l7 -63c-90.667 -15.333 -192.667 -23 -306 -23c-170 0 -294.333 29.667 -373 89s-118 149.666 -118 270.999zM372 1366v135h77v-135h-77zM705 1366v135h77v-135h-77z" />
    <glyph glyph-name="Igrave" unicode="&#xcc;" horiz-adv-x="379" 
d="M11 1573h83l141 -207h-68zM148 0v1282h84v-1282h-84z" />
    <glyph glyph-name="Iacute" unicode="&#xcd;" horiz-adv-x="379" 
d="M148 0v1282h84v-1282h-84zM158 1366l131 221h85l-153 -221h-63z" />
    <glyph glyph-name="Icircumflex" unicode="&#xce;" horiz-adv-x="379" 
d="M-11 1369l202 164l201 -164l-18 -19l-183 123l-184 -123zM148 0v1282h84v-1282h-84z" />
    <glyph glyph-name="Idieresis" unicode="&#xcf;" horiz-adv-x="379" 
d="M-12 1366v135h76v-135h-76zM148 0v1282h84v-1282h-84zM321 1366v135h76v-135h-76z" />
    <glyph glyph-name="Eth" unicode="&#xd0;" horiz-adv-x="1136" 
d="M2 595l-0.000976562 67h146v601c137.333 24.667 251.333 37 342 37c196 0 339 -51.5 429 -154.5s135 -262.833 135 -479.5v-43c0 -210 -45.667 -366.667 -137 -470s-235.666 -155 -432.999 -155c-113.333 0 -225.333 11.333 -336 34v563h-146zM231.999 91
c76.667 -16.667 162.667 -25 258 -25c165.333 0 285.5 45.167 360.5 135.5s112.5 230.833 112.5 421.5v43c0 195.333 -37.167 338.5 -111.5 429.5s-193.833 136.5 -358.5 136.5c-90.667 0 -177.667 -8.66699 -261 -26v-544h137v-67h-137v-504z" />
    <glyph glyph-name="Ntilde" unicode="&#xd1;" horiz-adv-x="1134" 
d="M148 0l0.000976562 1182c55.333 30.667 126.5 58 213.5 82s167.833 36 242.5 36c130.667 0 227.167 -38.333 289.5 -115s93.5 -182 93.5 -316v-869h-82v866c0 114 -24.167 203.333 -72.5 268s-124.5 97 -228.5 97c-62.667 0 -131.834 -10 -207.501 -30
s-130.5 -40.333 -164.5 -61v-1140h-84zM408.001 1403c28.667 56 69.6641 84 122.997 84c23.333 0 44.5 -6.16699 63.5 -18.5s36.833 -24.5 53.5 -36.5s33.334 -18 50.001 -18c34.667 0 60.334 14.333 77.001 43l34 -7c-25.333 -57.333 -64 -86 -116 -86
c-21.333 0 -41.666 6 -60.999 18s-37.833 24.167 -55.5 36.5s-35.167 18.5 -52.5 18.5c-35.333 0 -63.333 -14.333 -84 -43z" />
    <glyph glyph-name="Ograve" unicode="&#xd2;" horiz-adv-x="1173" 
d="M84 623l-0.000976562 43c0 201.333 41.833 357.333 125.5 468s209.834 166 378.501 166c166.667 0 292 -55.5 376 -166.5s126 -266.833 126 -467.5v-43c0 -201.333 -42.167 -358.5 -126.5 -471.5s-209.5 -169.5 -375.5 -169.5c-168 0 -294 56.333 -378 169
s-126 270 -126 472zM172.999 623c0 -182 34.333 -322.999 103 -422.999s172.667 -150 312 -150c137.333 0 240.5 50.167 309.5 150.5s103.5 241.166 103.5 422.499v43c0 184 -34.333 324.333 -103 421s-172 145 -310 145c-276.667 0 -415 -188.667 -415 -566v-43z
M407.999 1573h84l140 -207h-67z" />
    <glyph glyph-name="Oacute" unicode="&#xd3;" horiz-adv-x="1173" 
d="M84 623l-0.000976562 43c0 201.333 41.833 357.333 125.5 468s209.834 166 378.501 166c166.667 0 292 -55.5 376 -166.5s126 -266.833 126 -467.5v-43c0 -201.333 -42.167 -358.5 -126.5 -471.5s-209.5 -169.5 -375.5 -169.5c-168 0 -294 56.333 -378 169
s-126 270 -126 472zM172.999 623c0 -182 34.333 -322.999 103 -422.999s172.667 -150 312 -150c137.333 0 240.5 50.167 309.5 150.5s103.5 241.166 103.5 422.499v43c0 184 -34.333 324.333 -103 421s-172 145 -310 145c-276.667 0 -415 -188.667 -415 -566v-43z
M555.999 1366l130 221h85l-153 -221h-62z" />
    <glyph glyph-name="Ocircumflex" unicode="&#xd4;" horiz-adv-x="1173" 
d="M84 623l-0.000976562 43c0 201.333 41.833 357.333 125.5 468s209.834 166 378.501 166c166.667 0 292 -55.5 376 -166.5s126 -266.833 126 -467.5v-43c0 -201.333 -42.167 -358.5 -126.5 -471.5s-209.5 -169.5 -375.5 -169.5c-168 0 -294 56.333 -378 169
s-126 270 -126 472zM172.999 623c0 -182 34.333 -322.999 103 -422.999s172.667 -150 312 -150c137.333 0 240.5 50.167 309.5 150.5s103.5 241.166 103.5 422.499v43c0 184 -34.333 324.333 -103 421s-172 145 -310 145c-276.667 0 -415 -188.667 -415 -566v-43z
M384.999 1369l201 164l201 -164l-18 -19l-183 123l-184 -123z" />
    <glyph glyph-name="Otilde" unicode="&#xd5;" horiz-adv-x="1170" 
d="M158 623l-0.000976562 43c0 201.333 41.833 357.333 125.5 468s209.834 166 378.501 166c166.667 0 292.167 -55.5 376.5 -166.5s126.5 -266.833 126.5 -467.5v-43c0 -201.333 -42.333 -358.5 -127 -471.5s-210 -169.5 -376 -169.5c-168 0 -294 56.333 -378 169
s-126 270 -126 472zM247.999 623c0 -182 34.333 -322.999 103 -422.999s172.334 -150 311.001 -150c137.333 0 240.666 50.167 309.999 150.5s104 241.166 104 422.499v43c0 183.333 -34.5 323.5 -103.5 420.5s-172.5 145.5 -310.5 145.5c-276 0 -414 -188.667 -414 -566
v-43zM389.999 1403c28.667 56 69.6641 84 122.997 84c23.333 0 44.5 -6.16699 63.5 -18.5s36.833 -24.5 53.5 -36.5s33.334 -18 50.001 -18c34.667 0 60.334 14.333 77.001 43l34 -7c-25.333 -57.333 -64 -86 -116 -86c-21.333 0 -41.666 6 -60.999 18
s-37.833 24.167 -55.5 36.5s-35.167 18.5 -52.5 18.5c-35.333 0 -63.333 -14.333 -84 -43z" />
    <glyph glyph-name="Odieresis" unicode="&#xd6;" horiz-adv-x="1173" 
d="M84 623l-0.000976562 43c0 201.333 41.833 357.333 125.5 468s209.834 166 378.501 166c166.667 0 292 -55.5 376 -166.5s126 -266.833 126 -467.5v-43c0 -201.333 -42.167 -358.5 -126.5 -471.5s-209.5 -169.5 -375.5 -169.5c-168 0 -294 56.333 -378 169
s-126 270 -126 472zM172.999 623c0 -182 34.333 -322.999 103 -422.999s172.667 -150 312 -150c137.333 0 240.5 50.167 309.5 150.5s103.5 241.166 103.5 422.499v43c0 184 -34.333 324.333 -103 421s-172 145 -310 145c-276.667 0 -415 -188.667 -415 -566v-43z
M382.999 1366v135h76v-135h-76zM715.999 1366v135h76v-135h-76z" />
    <glyph glyph-name="multiply" unicode="&#xd7;" horiz-adv-x="1004" 
d="M112 123l349 351l-345 352l39 40l347 -351l347 351l43 -40l-349 -352l344 -349l-39 -41l-346 351l-347 -351z" />
    <glyph glyph-name="Oslash" unicode="&#xd8;" horiz-adv-x="1173" 
d="M84 623l-0.00195312 43c0 201.333 41.833 357.333 125.5 468s209.834 166 378.501 166c70.667 0 133.334 -10 188.001 -30l18 48h79l-31 -80c165.333 -93.333 248 -284 248 -572v-43c0 -201.333 -42.167 -358.5 -126.5 -471.5s-209.5 -169.5 -375.5 -169.5
c-72 0 -135.667 10 -191 30l-18 -49h-78l28 82c-163.333 94 -245 286.667 -245 578zM172.998 623c0 -250 61 -418.333 183 -505l396 1084c-48 20 -102.667 30 -164 30c-276.667 0 -415 -188.667 -415 -566v-43zM421.998 80c46 -20 101.333 -30 166 -30
c137.333 0 240.5 50.167 309.5 150.5s103.5 241.166 103.5 422.499v43c0 246.667 -61.333 413.334 -184 500.001z" />
    <glyph glyph-name="Ugrave" unicode="&#xd9;" horiz-adv-x="1109" 
d="M148 402l0.000976562 880h80v-878c0 -109.333 26.5 -195.333 79.5 -258s135.167 -94 246.5 -94c53.333 0 113.666 3.66699 180.999 11s116.333 14.666 147 21.999v1197h80v-1246c-52.667 -14 -117.667 -26.5 -195 -37.5s-148.333 -16.5 -213 -16.5
c-139.333 0 -241.833 36.833 -307.5 110.5s-98.5 176.834 -98.5 309.501zM370.001 1573h84l141 -207h-68z" />
    <glyph glyph-name="Uacute" unicode="&#xda;" horiz-adv-x="1109" 
d="M148 402l0.000976562 880h80v-878c0 -109.333 26.5 -195.333 79.5 -258s135.167 -94 246.5 -94c53.333 0 113.666 3.66699 180.999 11s116.333 14.666 147 21.999v1197h80v-1246c-52.667 -14 -117.667 -26.5 -195 -37.5s-148.333 -16.5 -213 -16.5
c-139.333 0 -241.833 36.833 -307.5 110.5s-98.5 176.834 -98.5 309.501zM516.001 1366l130 221h86l-153 -221h-63z" />
    <glyph glyph-name="Ucircumflex" unicode="&#xdb;" horiz-adv-x="1109" 
d="M148 402l0.000976562 880h80v-878c0 -109.333 26.5 -195.333 79.5 -258s135.167 -94 246.5 -94c53.333 0 113.666 3.66699 180.999 11s116.333 14.666 147 21.999v1197h80v-1246c-52.667 -14 -117.667 -26.5 -195 -37.5s-148.333 -16.5 -213 -16.5
c-139.333 0 -241.833 36.833 -307.5 110.5s-98.5 176.834 -98.5 309.501zM347.001 1369l202 164l201 -164l-18 -19l-183 123l-184 -123z" />
    <glyph glyph-name="Udieresis" unicode="&#xdc;" horiz-adv-x="1109" 
d="M148 402l0.000976562 880h80v-878c0 -109.333 26.5 -195.333 79.5 -258s135.167 -94 246.5 -94c53.333 0 113.666 3.66699 180.999 11s116.333 14.666 147 21.999v1197h80v-1246c-52.667 -14 -117.667 -26.5 -195 -37.5s-148.333 -16.5 -213 -16.5
c-139.333 0 -241.833 36.833 -307.5 110.5s-98.5 176.834 -98.5 309.501zM345.001 1366v135h77v-135h-77zM679.001 1366v135h76v-135h-76z" />
    <glyph glyph-name="Yacute" unicode="&#xdd;" horiz-adv-x="947" 
d="M48 1282l84.001 -0.00195312c12 -77.333 30 -152.5 54 -225.5s49 -135.5 75 -187.5s53.5 -99.167 82.5 -141.5s54.333 -75.166 76 -98.499s39.834 -40 54.501 -50c19.333 12.667 43.666 36.834 72.999 72.501s61.833 82 97.5 139s69.5 129.333 101.5 217
s55.667 179.167 71 274.5h82c-12 -86 -31 -169.167 -57 -249.5s-53.5 -148.5 -82.5 -204.5s-60.333 -107.833 -94 -155.5s-62.334 -84.167 -86.001 -109.5s-44.834 -45.666 -63.501 -60.999v-502h-85v502c-18.667 15.333 -39.667 35.5 -63 60.5s-52 61.667 -86 110
s-65.5 100.166 -94.5 155.499s-56.667 123.333 -83 204s-45.166 164 -56.499 250zM442.001 1366l130 221h85l-153 -221h-62z" />
    <glyph glyph-name="Thorn" unicode="&#xde;" horiz-adv-x="981" 
d="M148 0v1282h84v-224c92 12 170.333 18 235 18c160 0 276.167 -33.5 348.5 -100.5s108.5 -173.167 108.5 -318.5v-28c0 -140 -37 -244 -111 -312s-191.333 -102 -352 -102c-76 0 -152.333 5 -229 15v-230h-84zM232 296c71.333 -10 149.667 -14.999 235 -14.999
c128.667 0 222.167 28.167 280.5 84.5s87.5 144.166 87.5 263.499v28c0 122 -29.167 211.333 -87.5 268s-151.5 85 -279.5 85c-81.333 0 -160 -5.33301 -236 -16v-698z" />
    <glyph glyph-name="germandbls" unicode="&#xdf;" horiz-adv-x="1105" 
d="M151 0l-0.000976562 987.998c0 164 105.667 246 317 246c102.667 0 177.334 -16.833 224.001 -50.5s70 -79.167 70 -136.5c0 -48.667 -15 -84.667 -45 -108s-70 -36 -120 -38c-15.333 -0.666992 -27.833 -1.5 -37.5 -2.5s-22.667 -4 -39 -9s-29.166 -12 -38.499 -21
s-17.833 -22.167 -25.5 -39.5s-11.5 -38.333 -11.5 -63c0 -32 6.16699 -60 18.5 -84s29 -43.5 50 -58.5s45 -28.167 72 -39.5s55.5 -21.833 85.5 -31.5l90.5 -29.5c30.333 -10 59 -22.667 86 -38s51 -33.166 72 -53.499s37.667 -46.5 50 -78.5s18.5 -69 18.5 -111
c0 -173.333 -116.667 -260 -350 -260c-77.333 0 -173.666 10 -288.999 30l9 61c100 -18.667 195.667 -28 287 -28c176.667 0 265 65 265 195c0 39.333 -7.83301 73.333 -23.5 102s-36.167 50.834 -61.5 66.501s-54.333 30.334 -87 44.001s-65.834 25 -99.501 34
s-66.834 21 -99.501 36s-61.667 31.833 -87 50.5s-45.833 44.5 -61.5 77.5s-23.5 71.5 -23.5 115.5c0 35.333 5.16699 65.666 15.5 90.999s22 44.5 35 57.5s30 23.333 51 31s37.833 12.167 50.5 13.5s28 2.33301 46 3c81.333 4.66699 122 34.667 122 90
c0 78.667 -73.333 118 -220 118c-158 0 -237 -55.333 -237 -166v-1004h-79z" />
    <glyph glyph-name="agrave" unicode="&#xe0;" horiz-adv-x="913" 
d="M75 249l-0.000976562 20c0 83.333 30.833 147.833 92.5 193.5s148.834 68.5 261.501 68.5c87.333 0 179.333 -16.667 276 -50v221c0 63.333 -18.333 111.833 -55 145.5s-96.667 50.5 -180 50.5c-92.667 0 -195.334 -12 -308.001 -36l-12 60
c43.333 10.667 96.833 20 160.5 28s119.834 12 168.501 12c202 0 303 -86.667 303 -260v-663c-89.333 -38 -199.333 -57 -330 -57c-45.333 0 -86.333 2.66699 -123 8s-71 14.333 -103 27s-59 29 -81 49s-39.167 45.5 -51.5 76.5s-18.5 66.5 -18.5 106.5zM157.999 249
c0 -74.667 25.333 -128.833 76 -162.5s124.667 -50.5 222 -50.5c88 0 171 13 249 39v349c-25.333 12 -61.5 23 -108.5 33s-98.5 15 -154.5 15c-189.333 0 -284 -70 -284 -210v-13zM300.999 1323h84l140 -206h-67z" />
    <glyph glyph-name="aacute" unicode="&#xe1;" horiz-adv-x="913" 
d="M75 249l-0.000976562 20c0 83.333 30.833 147.833 92.5 193.5s148.834 68.5 261.501 68.5c87.333 0 179.333 -16.667 276 -50v221c0 63.333 -18.333 111.833 -55 145.5s-96.667 50.5 -180 50.5c-92.667 0 -195.334 -12 -308.001 -36l-12 60
c43.333 10.667 96.833 20 160.5 28s119.834 12 168.501 12c202 0 303 -86.667 303 -260v-663c-89.333 -38 -199.333 -57 -330 -57c-45.333 0 -86.333 2.66699 -123 8s-71 14.333 -103 27s-59 29 -81 49s-39.167 45.5 -51.5 76.5s-18.5 66.5 -18.5 106.5zM157.999 249
c0 -74.667 25.333 -128.833 76 -162.5s124.667 -50.5 222 -50.5c88 0 171 13 249 39v349c-25.333 12 -61.5 23 -108.5 33s-98.5 15 -154.5 15c-189.333 0 -284 -70 -284 -210v-13zM448.999 1117l130 220h85l-153 -220h-62z" />
    <glyph glyph-name="acircumflex" unicode="&#xe2;" horiz-adv-x="913" 
d="M75 249l-0.000976562 20c0 83.333 30.833 147.833 92.5 193.5s148.834 68.5 261.501 68.5c87.333 0 179.333 -16.667 276 -50v221c0 63.333 -18.333 111.833 -55 145.5s-96.667 50.5 -180 50.5c-92.667 0 -195.334 -12 -308.001 -36l-12 60
c43.333 10.667 96.833 20 160.5 28s119.834 12 168.501 12c202 0 303 -86.667 303 -260v-663c-89.333 -38 -199.333 -57 -330 -57c-45.333 0 -86.333 2.66699 -123 8s-71 14.333 -103 27s-59 29 -81 49s-39.167 45.5 -51.5 76.5s-18.5 66.5 -18.5 106.5zM157.999 249
c0 -74.667 25.333 -128.833 76 -162.5s124.667 -50.5 222 -50.5c88 0 171 13 249 39v349c-25.333 12 -61.5 23 -108.5 33s-98.5 15 -154.5 15c-189.333 0 -284 -70 -284 -210v-13zM277.999 1120l201 164l201 -164l-18 -19l-183 122l-183 -122z" />
    <glyph glyph-name="atilde" unicode="&#xe3;" horiz-adv-x="913" 
d="M75 249l-0.000976562 20c0 83.333 30.833 147.833 92.5 193.5s148.834 68.5 261.501 68.5c87.333 0 179.333 -16.667 276 -50v221c0 63.333 -18.333 111.833 -55 145.5s-96.667 50.5 -180 50.5c-92.667 0 -195.334 -12 -308.001 -36l-12 60
c43.333 10.667 96.833 20 160.5 28s119.834 12 168.501 12c202 0 303 -86.667 303 -260v-663c-89.333 -38 -199.333 -57 -330 -57c-45.333 0 -86.333 2.66699 -123 8s-71 14.333 -103 27s-59 29 -81 49s-39.167 45.5 -51.5 76.5s-18.5 66.5 -18.5 106.5zM157.999 249
c0 -74.667 25.333 -128.833 76 -162.5s124.667 -50.5 222 -50.5c88 0 171 13 249 39v349c-25.333 12 -61.5 23 -108.5 33s-98.5 15 -154.5 15c-189.333 0 -284 -70 -284 -210v-13zM284.999 1154c28.667 56 69.668 84 123.001 84c29.333 0 59.666 -12.167 90.999 -36.5
s56.666 -36.5 75.999 -36.5c35.333 0 61 14 77 42l34 -7c-25.333 -56.667 -64 -85 -116 -85c-21.333 0 -41.666 6.16699 -60.999 18.5l-55.5 36.5c-17.667 12 -35.167 18 -52.5 18c-35.333 0 -63.333 -14.333 -84 -43z" />
    <glyph glyph-name="adieresis" unicode="&#xe4;" horiz-adv-x="913" 
d="M75 249l-0.000976562 20c0 83.333 30.833 147.833 92.5 193.5s148.834 68.5 261.501 68.5c87.333 0 179.333 -16.667 276 -50v221c0 63.333 -18.333 111.833 -55 145.5s-96.667 50.5 -180 50.5c-92.667 0 -195.334 -12 -308.001 -36l-12 60
c43.333 10.667 96.833 20 160.5 28s119.834 12 168.501 12c202 0 303 -86.667 303 -260v-663c-89.333 -38 -199.333 -57 -330 -57c-45.333 0 -86.333 2.66699 -123 8s-71 14.333 -103 27s-59 29 -81 49s-39.167 45.5 -51.5 76.5s-18.5 66.5 -18.5 106.5zM157.999 249
c0 -74.667 25.333 -128.833 76 -162.5s124.667 -50.5 222 -50.5c88 0 171 13 249 39v349c-25.333 12 -61.5 23 -108.5 33s-98.5 15 -154.5 15c-189.333 0 -284 -70 -284 -210v-13zM275.999 1117v135h77v-135h-77zM608.999 1117v135h77v-135h-77z" />
    <glyph glyph-name="aring" unicode="&#xe5;" horiz-adv-x="913" 
d="M75 249l-0.000976562 20c0 83.333 30.833 147.833 92.5 193.5s148.834 68.5 261.501 68.5c87.333 0 179.333 -16.667 276 -50v221c0 63.333 -18.333 111.833 -55 145.5s-96.667 50.5 -180 50.5c-92.667 0 -195.334 -12 -308.001 -36l-12 60
c43.333 10.667 96.833 20 160.5 28s119.834 12 168.501 12c202 0 303 -86.667 303 -260v-663c-89.333 -38 -199.333 -57 -330 -57c-45.333 0 -86.333 2.66699 -123 8s-71 14.333 -103 27s-59 29 -81 49s-39.167 45.5 -51.5 76.5s-18.5 66.5 -18.5 106.5zM157.999 249
c0 -74.667 25.333 -128.833 76 -162.5s124.667 -50.5 222 -50.5c88 0 171 13 249 39v349c-25.333 12 -61.5 23 -108.5 33s-98.5 15 -154.5 15c-189.333 0 -284 -70 -284 -210v-13zM307.999 1223c0 37.333 14 66.334 42 87.001s61.667 31 101 31
c38 0 70.833 -10.5 98.5 -31.5s41.5 -49.833 41.5 -86.5c0 -38 -13.667 -67 -41 -87s-60.333 -30 -99 -30s-72.167 10.167 -100.5 30.5s-42.5 49.166 -42.5 86.499zM366.999 1223c0 -23.333 8.66797 -41.833 26.001 -55.5s36.666 -20.5 57.999 -20.5
c20.667 0 39.334 6.83301 56.001 20.5s25 32.167 25 55.5c0 24 -8.33301 42.833 -25 56.5s-35.334 20.5 -56.001 20.5c-22 0 -41.5 -6.83301 -58.5 -20.5s-25.5 -32.5 -25.5 -56.5z" />
    <glyph glyph-name="ae" unicode="&#xe6;" horiz-adv-x="1535" 
d="M75 249v20c0 83.333 30.833 147.833 92.5 193.5s148.834 68.5 261.501 68.5c87.333 0 179.333 -16.667 276 -50v221c0 63.333 -18.333 111.833 -55 145.5s-96.667 50.5 -180 50.5c-92.667 0 -195.334 -12 -308.001 -36l-12 60c43.333 10.667 96.833 20 160.5 28
s119.834 12 168.501 12c160.667 0 257 -54.667 289 -164c60.667 109.333 163.334 164 308.001 164c122 0 211.5 -39 268.5 -117s85.5 -192.333 85.5 -343v-32h-641v-12c0 -150.667 27 -257 81 -319s142 -93 264 -93c102 0 198.333 11.333 289 34l11 -60
c-92.667 -25.333 -194.334 -38 -305.001 -38c-166.667 0 -282.334 48.667 -347.001 146v-89c-89.333 -38 -199.333 -57 -330 -57c-45.333 0 -86.333 2.66699 -123 8s-71 14.333 -103 27s-59 29 -81 49s-39.167 45.5 -51.5 76.5s-18.5 66.5 -18.5 106.5zM158 249
c0 -74.667 25.333 -128.833 76 -162.5s124.667 -50.5 222 -50.5c88 0 171 13 249 39v349c-25.333 12 -61.5 23 -108.5 33s-98.5 15 -154.5 15c-189.333 0 -284 -70 -284 -210v-13zM789 527.001h566.002c-2 122.667 -25.333 215.167 -70 277.5s-114.334 93.5 -209.001 93.5
c-96.667 0 -167.834 -31 -213.501 -93s-70.167 -154.667 -73.5 -278z" />
    <glyph glyph-name="ccedilla" unicode="&#xe7;" horiz-adv-x="801" 
d="M100 458l0.00195312 27.9961c0 317.333 129.333 476 388 476c77.333 0 153.333 -12 228 -36l-13 -60c-68 21.333 -135 32 -201 32c-112.667 0 -194 -34.833 -244 -104.5s-75 -172.167 -75 -307.5v-32c0 -137.333 25.5 -239.666 76.5 -306.999s134.833 -101 251.5 -101
c56 0 122 5.33301 198 16l9 -58c-62.667 -12 -134 -19.333 -214 -22l-32 -60c41.333 0 76.333 -9.5 105 -28.5s43 -46.5 43 -82.5c0 -41.333 -14.333 -71.166 -43 -89.499s-64.334 -27.5 -107.001 -27.5c-50.667 0 -91.667 10 -123 30l13 23c28 -16.667 61 -25 99 -25
c29.333 0 53.666 6.83301 72.999 20.5s29 35.834 29 66.501c0 58.667 -44.667 88 -134 88l45 85c-130 5.33301 -224.5 47.833 -283.5 127.5s-88.5 195.834 -88.5 348.501z" />
    <glyph glyph-name="egrave" unicode="&#xe8;" horiz-adv-x="927" 
d="M100 458v32c0 314.667 123.333 472 370 472c236.667 0 355 -153.333 355 -460v-32h-642v-12c0 -150.667 27.167 -257 81.5 -319s142.5 -93 264.5 -93c101.333 0 197.333 11.333 288 34l11 -60c-92.667 -25.333 -194 -38 -304 -38c-146 0 -253.167 38 -321.5 114
s-102.5 196.667 -102.5 362zM183 527h567.001c-2 122.667 -25.5 215.167 -70.5 277.5s-114.833 93.5 -209.5 93.5c-96.667 0 -167.834 -31 -213.501 -93s-70.167 -154.667 -73.5 -278zM289.001 1323h83l141 -206h-68z" />
    <glyph glyph-name="eacute" unicode="&#xe9;" horiz-adv-x="927" 
d="M100 458v31.999c0 314.667 123.333 472 370 472c118 0 206.667 -38.167 266 -114.5s89 -186.166 89 -329.499v-48h-642v-12c0 -150.667 27.167 -257 81.5 -319s142.5 -93 264.5 -93c101.333 0 197.333 11.333 288 34l11 -60c-92.667 -25.333 -194 -38 -304 -38
c-146 0 -253.167 38 -321.5 114s-102.5 196.667 -102.5 362zM183 526.999h567.001c-2 122.667 -25.5 215.167 -70.5 277.5s-114.833 93.5 -209.5 93.5c-96.667 0 -167.834 -31 -213.501 -93s-70.167 -154.667 -73.5 -278zM436.001 1117l130 220h86l-153 -220h-63z" />
    <glyph glyph-name="ecircumflex" unicode="&#xea;" horiz-adv-x="927" 
d="M100 458v31.999c0 314.667 123.333 472 370 472c118 0 206.667 -38.167 266 -114.5s89 -186.166 89 -329.499v-48h-642v-12c0 -150.667 27.167 -257 81.5 -319s142.5 -93 264.5 -93c101.333 0 197.333 11.333 288 34l11 -60c-92.667 -25.333 -194 -38 -304 -38
c-146 0 -253.167 38 -321.5 114s-102.5 196.667 -102.5 362zM183 526.999h567.001c-2 122.667 -25.5 215.167 -70.5 277.5s-114.833 93.5 -209.5 93.5c-96.667 0 -167.834 -31 -213.501 -93s-70.167 -154.667 -73.5 -278zM265.001 1120l202 164l201 -164l-18 -19l-183 122
l-184 -122z" />
    <glyph glyph-name="edieresis" unicode="&#xeb;" horiz-adv-x="927" 
d="M100 458v31.999c0 314.667 123.333 472 370 472c118 0 206.667 -38.167 266 -114.5s89 -186.166 89 -329.499v-48h-642v-12c0 -150.667 27.167 -257 81.5 -319s142.5 -93 264.5 -93c101.333 0 197.333 11.333 288 34l11 -60c-92.667 -25.333 -194 -38 -304 -38
c-146 0 -253.167 38 -321.5 114s-102.5 196.667 -102.5 362zM183 526.999h567.001c-2 122.667 -25.5 215.167 -70.5 277.5s-114.833 93.5 -209.5 93.5c-96.667 0 -167.834 -31 -213.501 -93s-70.167 -154.667 -73.5 -278zM264.001 1117v135h76v-135h-76zM597.001 1117v135
h76v-135h-76z" />
    <glyph glyph-name="igrave" unicode="&#xec;" horiz-adv-x="381" 
d="M-11 1323h84l141 -206h-68zM135 178l-0.000976562 765.999h77v-766c0 -39.333 6.33301 -68.166 19 -86.499s33.667 -27.5 63 -27.5c24.667 0 53.667 4.33301 87 13l14 -54c-37.333 -15.333 -75.666 -23 -114.999 -23c-48 0 -84.167 13.5 -108.5 40.5
s-36.5 72.833 -36.5 137.5z" />
    <glyph glyph-name="iacute" unicode="&#xed;" horiz-adv-x="381" 
d="M135 178l-0.000976562 765.999h77v-766c0 -39.333 6.33301 -68.166 19 -86.499s33.667 -27.5 63 -27.5c24.667 0 53.667 4.33301 87 13l14 -54c-37.333 -15.333 -75.666 -23 -114.999 -23c-48 0 -84.167 13.5 -108.5 40.5s-36.5 72.833 -36.5 137.5zM136.999 1117
l130 220h86l-154 -220h-62z" />
    <glyph glyph-name="icircumflex" unicode="&#xee;" horiz-adv-x="381" 
d="M-34 1120l201 164l202 -164l-18 -19l-184 122l-183 -122zM135 178l-0.000976562 765.999h77v-766c0 -39.333 6.33301 -68.166 19 -86.499s33.667 -27.5 63 -27.5c24.667 0 53.667 4.33301 87 13l14 -54c-37.333 -15.333 -75.666 -23 -114.999 -23
c-48 0 -84.167 13.5 -108.5 40.5s-36.5 72.833 -36.5 137.5z" />
    <glyph glyph-name="idieresis" unicode="&#xef;" horiz-adv-x="381" 
d="M-36 1117v135h77v-135h-77zM135 178l-0.000976562 765.999h77v-766c0 -39.333 6.33301 -68.166 19 -86.499s33.667 -27.5 63 -27.5c24.667 0 53.667 4.33301 87 13l14 -54c-37.333 -15.333 -75.666 -23 -114.999 -23c-48 0 -84.167 13.5 -108.5 40.5
s-36.5 72.833 -36.5 137.5zM296.999 1117v135h77v-135h-77z" />
    <glyph glyph-name="eth" unicode="&#xf0;" horiz-adv-x="984" 
d="M150 402l0.000976562 29.001c0 131.333 31.5 233.833 94.5 307.5s156.167 110.5 279.5 110.5c135.333 0 239.666 -42 312.999 -126c-30.667 104 -86.5 197.333 -167.5 280s-184.833 146.667 -311.5 192l-84 -151l-53 26l78 145c-28 8.66699 -59.333 16.667 -94 24l14 61
c64.667 -14.667 102 -23.667 112 -27l59 107l53 -27l-55 -99c175.333 -61.333 310 -154 404 -278s141 -261.667 141 -413v-161c0 -132 -32.833 -235 -98.5 -309s-163.5 -111 -293.5 -111c-128.667 0 -226 37.167 -292 111.5s-99 177.166 -99 308.499zM232.001 404.001
c0 -113.333 26.002 -201.501 78.002 -264.501s129 -94.5 231 -94.5c103.333 0 181.166 31.5 233.499 94.5s78.5 151.167 78.5 264.5v27c0 114 -26 201.5 -78 262.5s-130 91.5 -234 91.5c-102.667 0 -179.834 -30.667 -231.501 -92s-77.5 -148.666 -77.5 -261.999v-27z" />
    <glyph glyph-name="ntilde" unicode="&#xf1;" 
d="M132 0l0.00195312 873.998c46 23.333 105 43.833 177 61.5s140 26.5 204 26.5c108.667 0 189 -28.667 241 -86s78 -136.666 78 -237.999v-638h-77v632c0 82.667 -19.833 147.334 -59.5 194.001s-101.834 70 -186.501 70c-49.333 0 -104.333 -7 -165 -21
s-105.334 -28 -134.001 -42v-833h-78zM317.002 1154c28.667 56 69.668 84 123.001 84c29.333 0 59.666 -12.167 90.999 -36.5s56.666 -36.5 75.999 -36.5c35.333 0 61 14 77 42l34 -7c-25.333 -56.667 -64 -85 -116 -85c-21.333 0 -41.666 6.16699 -60.999 18.5l-55.5 36.5
c-17.667 12 -35.167 18 -52.5 18c-35.333 0 -63.333 -14.333 -84 -43z" />
    <glyph glyph-name="ograve" unicode="&#xf2;" horiz-adv-x="990" 
d="M100 458v32c0 148.667 33.167 265 99.5 349s164.833 126 295.5 126c129.333 0 227.5 -42 294.5 -126s100.5 -200.333 100.5 -349v-32c0 -148.667 -33.5 -265.167 -100.5 -349.5s-165.167 -126.5 -294.5 -126.5c-130.667 0 -229.167 42.167 -295.5 126.5
s-99.5 200.833 -99.5 349.5zM183 458c0 -130 26.1689 -231.167 78.502 -303.5s130.166 -108.5 233.499 -108.5s181.166 36.167 233.499 108.5s78.5 173.5 78.5 303.5v32c0 130.667 -26 231.834 -78 303.501s-130 107.5 -234 107.5s-182 -35.833 -234 -107.5
s-78 -172.834 -78 -303.501v-32zM313.002 1323h84l141 -206h-68z" />
    <glyph glyph-name="oacute" unicode="&#xf3;" horiz-adv-x="990" 
d="M100 458v32c0 148.667 33.167 265 99.5 349s164.833 126 295.5 126c129.333 0 227.5 -42 294.5 -126s100.5 -200.333 100.5 -349v-32c0 -148.667 -33.5 -265.167 -100.5 -349.5s-165.167 -126.5 -294.5 -126.5c-130.667 0 -229.167 42.167 -295.5 126.5
s-99.5 200.833 -99.5 349.5zM183 458c0 -130 26.1689 -231.167 78.502 -303.5s130.166 -108.5 233.499 -108.5s181.166 36.167 233.499 108.5s78.5 173.5 78.5 303.5v32c0 130.667 -26 231.834 -78 303.501s-130 107.5 -234 107.5s-182 -35.833 -234 -107.5
s-78 -172.834 -78 -303.501v-32zM461.002 1117l130 220h86l-153 -220h-63z" />
    <glyph glyph-name="ocircumflex" unicode="&#xf4;" horiz-adv-x="990" 
d="M100 458v32c0 148.667 33.167 265 99.5 349s164.833 126 295.5 126c129.333 0 227.5 -42 294.5 -126s100.5 -200.333 100.5 -349v-32c0 -148.667 -33.5 -265.167 -100.5 -349.5s-165.167 -126.5 -294.5 -126.5c-130.667 0 -229.167 42.167 -295.5 126.5
s-99.5 200.833 -99.5 349.5zM183 458c0 -130 26.1689 -231.167 78.502 -303.5s130.166 -108.5 233.499 -108.5s181.166 36.167 233.499 108.5s78.5 173.5 78.5 303.5v32c0 130.667 -26 231.834 -78 303.501s-130 107.5 -234 107.5s-182 -35.833 -234 -107.5
s-78 -172.834 -78 -303.501v-32zM290.002 1120l202 164l201 -164l-18 -19l-183 122l-184 -122z" />
    <glyph glyph-name="otilde" unicode="&#xf5;" horiz-adv-x="963" 
d="M112 458v32c0 148.667 33.333 265 100 349s165.334 126 296.001 126c129.333 0 227.5 -42 294.5 -126s100.5 -200.333 100.5 -349v-32c0 -148.667 -33.5 -265.167 -100.5 -349.5s-165.167 -126.5 -294.5 -126.5c-130.667 0 -229.334 42.167 -296.001 126.5
s-100 200.833 -100 349.5zM196 458c0 -130 26.168 -231.165 78.501 -303.498s130.166 -108.5 233.499 -108.5s181 36.167 233 108.5s78 173.5 78 303.5v32c0 131.333 -25.833 232.666 -77.5 303.999s-129.5 107 -233.5 107s-182 -35.833 -234 -107.5
s-78 -172.834 -78 -303.501v-32zM287.001 1150c28.667 56 69.667 84 123 84c29.333 0 59.666 -12.167 90.999 -36.5s56.666 -36.5 75.999 -36.5c34.667 0 60.334 14.333 77.001 43l33 -7c-25.333 -57.333 -63.666 -86 -114.999 -86c-21.333 0 -41.833 6.16699 -61.5 18.5
l-56 36.5c-17.667 12 -35.167 18 -52.5 18c-35.333 0 -63 -14 -83 -42z" />
    <glyph glyph-name="odieresis" unicode="&#xf6;" horiz-adv-x="990" 
d="M100 458v32c0 148.667 33.167 265 99.5 349s164.833 126 295.5 126c129.333 0 227.5 -42 294.5 -126s100.5 -200.333 100.5 -349v-32c0 -148.667 -33.5 -265.167 -100.5 -349.5s-165.167 -126.5 -294.5 -126.5c-130.667 0 -229.167 42.167 -295.5 126.5
s-99.5 200.833 -99.5 349.5zM183 458c0 -130 26.1689 -231.167 78.502 -303.5s130.166 -108.5 233.499 -108.5s181.166 36.167 233.499 108.5s78.5 173.5 78.5 303.5v32c0 130.667 -26 231.834 -78 303.501s-130 107.5 -234 107.5s-182 -35.833 -234 -107.5
s-78 -172.834 -78 -303.501v-32zM289.002 1117v135h76v-135h-76zM622.002 1117v135h76v-135h-76z" />
    <glyph glyph-name="divide" unicode="&#xf7;" horiz-adv-x="650" 
d="M46 452v82h563v-82h-563zM290 0v151h80v-151h-80zM290 821v155h80v-155h-80z" />
    <glyph glyph-name="oslash" unicode="&#xf8;" horiz-adv-x="990" 
d="M100 458v32c0 148.667 33.167 265 99.5 349s164.833 126 295.5 126c44 0 87.333 -6 130 -18l103 266h59l-110 -285c70 -33.333 123 -87.833 159 -163.5s54 -167.167 54 -274.5v-32c0 -148.667 -33.5 -265.167 -100.5 -349.5s-165.167 -126.5 -294.5 -126.5
c-60.667 0 -117.667 10.667 -171 32l-107 -279h-57l116 304c-117.333 74 -176 213.667 -176 419zM183 458c0 -164 40 -280.332 120 -348.999l299 776c-31.333 10.667 -67 16 -107 16c-104 0 -182 -35.833 -234 -107.5s-78 -172.834 -78 -303.501v-32zM349 78.001
c41.333 -21.333 90.001 -32 146.001 -32c103.333 0 181.166 36.167 233.499 108.5s78.5 173.5 78.5 303.5v32c0 188 -51.667 312 -155 372z" />
    <glyph glyph-name="ugrave" unicode="&#xf9;" horiz-adv-x="959" 
d="M132 338l-0.000976562 606h76v-602c0 -92 19.667 -164 59 -216s101 -78 185 -78c49.333 0 104.5 5.16699 165.5 15.5s105.833 20.5 134.5 30.5v850h76v-898c-44.667 -16.667 -103.167 -31.5 -175.5 -44.5s-139.166 -19.5 -200.499 -19.5
c-110 0 -190.833 31.167 -242.5 93.5s-77.5 149.833 -77.5 262.5zM293.999 1323h84l140 -206h-67z" />
    <glyph glyph-name="uacute" unicode="&#xfa;" horiz-adv-x="959" 
d="M132 338l-0.000976562 606h76v-602c0 -92 19.667 -164 59 -216s101 -78 185 -78c49.333 0 104.5 5.16699 165.5 15.5s105.833 20.5 134.5 30.5v850h76v-898c-44.667 -16.667 -103.167 -31.5 -175.5 -44.5s-139.166 -19.5 -200.499 -19.5
c-110 0 -190.833 31.167 -242.5 93.5s-77.5 149.833 -77.5 262.5zM439.999 1117l130 220h85l-153 -220h-62z" />
    <glyph glyph-name="ucircumflex" unicode="&#xfb;" horiz-adv-x="959" 
d="M132 338l-0.000976562 606h76v-602c0 -92 19.667 -164 59 -216s101 -78 185 -78c49.333 0 104.5 5.16699 165.5 15.5s105.833 20.5 134.5 30.5v850h76v-898c-44.667 -16.667 -103.167 -31.5 -175.5 -44.5s-139.166 -19.5 -200.499 -19.5
c-110 0 -190.833 31.167 -242.5 93.5s-77.5 149.833 -77.5 262.5zM270.999 1120l201 164l201 -164l-18 -19l-183 122l-183 -122z" />
    <glyph glyph-name="udieresis" unicode="&#xfc;" horiz-adv-x="959" 
d="M132 338l-0.000976562 606h76v-602c0 -92 19.667 -164 59 -216s101 -78 185 -78c49.333 0 104.5 5.16699 165.5 15.5s105.833 20.5 134.5 30.5v850h76v-898c-44.667 -16.667 -103.167 -31.5 -175.5 -44.5s-139.166 -19.5 -200.499 -19.5
c-110 0 -190.833 31.167 -242.5 93.5s-77.5 149.833 -77.5 262.5zM268.999 1117v135h76v-135h-76zM601.999 1117v135h77v-135h-77z" />
    <glyph glyph-name="yacute" unicode="&#xfd;" horiz-adv-x="876" 
d="M102 942l81.001 0.000976562c12 -116.667 30.667 -229 56 -337s52 -197.333 80 -268s54 -128.667 78 -174s43.667 -74.666 59 -87.999l2 -7c84 130 148.833 262.667 194.5 398s68.5 281.666 68.5 438.999v39h77v-41c0 -84.667 -6.33301 -166.167 -19 -244.5
s-32.834 -154.5 -60.501 -228.5s-56.5 -141.833 -86.5 -203.5s-69.5 -128.834 -118.5 -201.501s-93.333 -135.5 -133 -188.5l-152.5 -196.5l-57 39c115.333 148 196.666 256.333 243.999 325c-20 22 -43.667 57.167 -71 105.5s-57.5 111 -90.5 188s-63.667 172.667 -92 287
s-48.166 233.5 -59.499 357.5zM422.001 1117l130 220h86l-154 -220h-62z" />
    <glyph glyph-name="thorn" unicode="&#xfe;" horiz-adv-x="970" 
d="M132 -383v1710h78v-465c88 66.667 182.333 100 283 100c126 0 220.5 -40 283.5 -120s94.5 -191 94.5 -333v-76c0 -140 -32.667 -250.167 -98 -330.5s-159 -120.5 -281 -120.5c-100 0 -194 33.333 -282 100v-465h-78zM210 146c24 -23.333 59.501 -44.832 106.501 -64.499
s99.5 -29.5 157.5 -29.5c102 0 180 33.667 234 101s81 161.666 81 282.999v70c0 125.333 -26.833 221.333 -80.5 288s-130.834 100 -231.501 100c-58.667 0 -111 -10.167 -157 -30.5s-82.667 -43.5 -110 -69.5v-648z" />
    <glyph glyph-name="ydieresis" unicode="&#xff;" horiz-adv-x="876" 
d="M102 942l81.001 0.000976562c12 -116.667 30.667 -229 56 -337s52 -197.333 80 -268s54 -128.667 78 -174s43.667 -74.666 59 -87.999l2 -7c84 130 148.833 262.667 194.5 398s68.5 281.666 68.5 438.999v39h77v-41c0 -84.667 -6.33301 -166.167 -19 -244.5
s-32.834 -154.5 -60.501 -228.5s-56.5 -141.833 -86.5 -203.5s-69.5 -128.834 -118.5 -201.501s-93.333 -135.5 -133 -188.5l-152.5 -196.5l-57 39c115.333 148 196.666 256.333 243.999 325c-20 22 -43.667 57.167 -71 105.5s-57.5 111 -90.5 188s-63.667 172.667 -92 287
s-48.166 233.5 -59.499 357.5zM251.001 1117v135h77v-135h-77zM584.001 1117v135h77v-135h-77z" />
    <glyph glyph-name="Amacron" unicode="&#x100;" horiz-adv-x="1016" 
d="M78 0c12 143.333 31.334 282 58.001 416s55 247.667 85 341s62 178.666 96 255.999s63.333 136.666 88 177.999s45.667 71.666 63 90.999h82c17.333 -19.333 38.166 -49.666 62.499 -90.999s53.333 -100.666 87 -177.999s65.5 -162.666 95.5 -255.999
s58.167 -207 84.5 -341s45.5 -272.667 57.5 -416h-82c-14 147.333 -32.333 280.333 -55 399h-585c-26 -136 -44.333 -269 -55 -399h-82zM230.001 467l555 -0.000976562c-39.333 191.333 -86.5 353.333 -141.5 486s-99.833 217.334 -134.5 254.001
c-34.667 -36.667 -79.5 -121.167 -134.5 -253.5s-103.167 -294.5 -144.5 -486.5zM312.001 1327v60h399v-60h-399z" />
    <glyph glyph-name="amacron" unicode="&#x101;" horiz-adv-x="913" 
d="M75 249l-0.000976562 20c0 83.333 30.833 147.833 92.5 193.5s148.834 68.5 261.501 68.5c87.333 0 179.333 -16.667 276 -50v221c0 63.333 -18.333 111.833 -55 145.5s-96.667 50.5 -180 50.5c-92.667 0 -195.334 -12 -308.001 -36l-12 60
c43.333 10.667 96.833 20 160.5 28s119.834 12 168.501 12c202 0 303 -86.667 303 -260v-663c-89.333 -38 -199.333 -57 -330 -57c-45.333 0 -86.333 2.66699 -123 8s-71 14.333 -103 27s-59 29 -81 49s-39.167 45.5 -51.5 76.5s-18.5 66.5 -18.5 106.5zM157.999 249
c0 -74.667 25.333 -128.833 76 -162.5s124.667 -50.5 222 -50.5c88 0 171 13 249 39v349c-25.333 12 -61.5 23 -108.5 33s-98.5 15 -154.5 15c-189.333 0 -284 -70 -284 -210v-13zM282.999 1117v60h399v-60h-399z" />
    <glyph glyph-name="Abreve" unicode="&#x102;" horiz-adv-x="1016" 
d="M78 0c12 143.333 31.334 282 58.001 416s55 247.667 85 341s62 178.666 96 255.999s63.333 136.666 88 177.999s45.667 71.666 63 90.999h82c17.333 -19.333 38.166 -49.666 62.499 -90.999s53.333 -100.666 87 -177.999s65.5 -162.666 95.5 -255.999
s58.167 -207 84.5 -341s45.5 -272.667 57.5 -416h-82c-14 147.333 -32.333 280.333 -55 399h-585c-26 -136 -44.333 -269 -55 -399h-82zM230.001 467l555 -0.000976562c-39.333 191.333 -86.5 353.333 -141.5 486s-99.833 217.334 -134.5 254.001
c-34.667 -36.667 -79.5 -121.167 -134.5 -253.5s-103.167 -294.5 -144.5 -486.5zM315.001 1489h55c0 -40 13.5 -68.667 40.5 -86s59.833 -26 98.5 -26s71.5 8.66699 98.5 26s40.5 46 40.5 86h54c0 -55.333 -18.667 -96.166 -56 -122.499s-83 -39.5 -137 -39.5
s-99.833 13.167 -137.5 39.5s-56.5 67.166 -56.5 122.499z" />
    <glyph glyph-name="abreve" unicode="&#x103;" horiz-adv-x="913" 
d="M75 249l-0.000976562 20c0 83.333 30.833 147.833 92.5 193.5s148.834 68.5 261.501 68.5c87.333 0 179.333 -16.667 276 -50v221c0 63.333 -18.333 111.833 -55 145.5s-96.667 50.5 -180 50.5c-92.667 0 -195.334 -12 -308.001 -36l-12 60
c43.333 10.667 96.833 20 160.5 28s119.834 12 168.501 12c202 0 303 -86.667 303 -260v-663c-89.333 -38 -199.333 -57 -330 -57c-45.333 0 -86.333 2.66699 -123 8s-71 14.333 -103 27s-59 29 -81 49s-39.167 45.5 -51.5 76.5s-18.5 66.5 -18.5 106.5zM157.999 249
c0 -74.667 25.333 -128.833 76 -162.5s124.667 -50.5 222 -50.5c88 0 171 13 249 39v349c-25.333 12 -61.5 23 -108.5 33s-98.5 15 -154.5 15c-189.333 0 -284 -70 -284 -210v-13zM286.999 1279h55c0 -40 13.5 -68.833 40.5 -86.5s59.833 -26.5 98.5 -26.5
s71.5 8.83301 98.5 26.5s40.5 46.5 40.5 86.5h53c0 -55.333 -18.5 -96.166 -55.5 -122.499s-82.5 -39.5 -136.5 -39.5s-99.833 13.167 -137.5 39.5s-56.5 67.166 -56.5 122.499z" />
    <glyph glyph-name="Aogonek" unicode="&#x104;" horiz-adv-x="1016" 
d="M78 0c12 143.333 31.334 281.999 58.001 415.999s55 247.667 85 341s62 178.666 96 255.999s63.333 136.666 88 177.999s45.667 71.666 63 90.999h82c17.333 -19.333 38.166 -49.666 62.499 -90.999s53.333 -100.666 87 -177.999s65.5 -162.666 95.5 -255.999
s58.167 -207 84.5 -341s45.5 -272.667 57.5 -416h-15l2 -2c-38 -18 -68 -41.833 -90 -71.5s-33 -60.5 -33 -92.5c0 -29.333 9.66699 -55 29 -77s47.666 -33 84.999 -33c48 0 92 11.333 132 34l13 -16c-47.333 -36.667 -102 -55 -164 -55
c-53.333 0 -94.666 12.833 -123.999 38.5s-44 58.834 -44 99.501c0 33.333 11.5 65.333 34.5 96s58.5 57 106.5 79h-14c-14 147.333 -32.333 280.333 -55 399h-585c-26 -136 -44.333 -269 -55 -399h-82zM230.001 466.999l555 -0.000976562
c-39.333 191.333 -86.5 353.333 -141.5 486s-99.833 217.334 -134.5 254.001c-34.667 -36.667 -79.5 -121.167 -134.5 -253.5s-103.167 -294.5 -144.5 -486.5z" />
    <glyph glyph-name="aogonek" unicode="&#x105;" horiz-adv-x="913" 
d="M75 249l0.000976562 20.001c0 83.333 30.833 147.833 92.5 193.5s148.834 68.5 261.501 68.5c87.333 0 179.333 -16.667 276 -50v221c0 63.333 -18.333 111.833 -55 145.5s-96.667 50.5 -180 50.5c-92.667 0 -195.334 -12 -308.001 -36l-12 60
c43.333 10.667 96.833 20 160.5 28s119.834 12 168.501 12c202 0 303 -86.667 303 -260v-663l-29 -12c-36 -15.333 -64.5 -38.333 -85.5 -69s-31.5 -61.334 -31.5 -92.001c0 -29.333 9.66699 -55 29 -77s47.666 -33 84.999 -33c48 0 92 11.333 132 34l12 -16
c-47.333 -36.667 -102 -55 -164 -55c-53.333 0 -94.5 13 -123.5 39s-43.5 59.333 -43.5 100c0 54.667 27.667 102 83 142c-64.667 -12 -129.334 -18 -194.001 -18c-45.333 0 -86.333 2.66699 -123 8s-71 14.333 -103 27s-59 29 -81 49s-39.167 45.5 -51.5 76.5
s-18.5 66.5 -18.5 106.5zM158.001 249.001c0 -74.667 25.333 -128.833 76 -162.5s124.667 -50.5 222 -50.5c88 0 171 13 249 39v349c-25.333 12 -61.5 23 -108.5 33s-98.5 15 -154.5 15c-189.333 0 -284 -70 -284 -210v-13z" />
    <glyph glyph-name="Cacute" unicode="&#x106;" horiz-adv-x="956" 
d="M84 620v41.999c0 210.667 40.5 369.667 121.5 477s211.5 161 391.5 161c86.667 0 178.667 -11.333 276 -34l-13 -66c-94.667 21.333 -178.334 32 -251.001 32c-156.667 0 -268.5 -46.667 -335.5 -140s-100.5 -236.666 -100.5 -429.999v-44
c0 -192 34.167 -334.667 102.5 -428s179.5 -140 333.5 -140c82.667 0 168.334 8.33301 257.001 25l10 -66c-98 -18 -191.667 -27 -281 -27c-180.667 0 -311 53.5 -391 160.5s-120 266.167 -120 477.5zM565 1366l130 221h85l-153 -221h-62z" />
    <glyph glyph-name="cacute" unicode="&#x107;" horiz-adv-x="801" 
d="M100 458v27.999c0 317.333 129.333 476 388 476c77.333 0 153.333 -12 228 -36l-13 -60c-68 21.333 -135 32 -201 32c-112.667 0 -194 -34.833 -244 -104.5s-75 -172.167 -75 -307.5v-32c0 -137.333 25.5 -239.666 76.5 -306.999s134.833 -101 251.5 -101
c56 0 122 5.33301 198 16l9 -58c-78 -14.667 -151 -22 -219 -22c-140 0 -241.5 39.833 -304.5 119.5s-94.5 198.5 -94.5 356.5zM458 1117l130 220h85l-153 -220h-62z" />
    <glyph glyph-name="Ccircumflex" unicode="&#x108;" horiz-adv-x="956" 
d="M84 620v41.999c0 210.667 40.5 369.667 121.5 477s211.5 161 391.5 161c86.667 0 178.667 -11.333 276 -34l-13 -66c-94.667 21.333 -178.334 32 -251.001 32c-156.667 0 -268.5 -46.667 -335.5 -140s-100.5 -236.666 -100.5 -429.999v-44
c0 -192 34.167 -334.667 102.5 -428s179.5 -140 333.5 -140c82.667 0 168.334 8.33301 257.001 25l10 -66c-98 -18 -191.667 -27 -281 -27c-180.667 0 -311 53.5 -391 160.5s-120 266.167 -120 477.5zM394 1369l201 164l201 -164l-18 -19l-183 123l-184 -123z" />
    <glyph glyph-name="ccircumflex" unicode="&#x109;" horiz-adv-x="801" 
d="M100 458v27.999c0 317.333 129.333 476 388 476c77.333 0 153.333 -12 228 -36l-13 -60c-68 21.333 -135 32 -201 32c-112.667 0 -194 -34.833 -244 -104.5s-75 -172.167 -75 -307.5v-32c0 -137.333 25.5 -239.666 76.5 -306.999s134.833 -101 251.5 -101
c56 0 122 5.33301 198 16l9 -58c-78 -14.667 -151 -22 -219 -22c-140 0 -241.5 39.833 -304.5 119.5s-94.5 198.5 -94.5 356.5zM287 1120l201 164l201 -164l-18 -19l-183 122l-183 -122z" />
    <glyph glyph-name="Cdotaccent" unicode="&#x10a;" horiz-adv-x="956" 
d="M84 620v41.999c0 210.667 40.5 369.667 121.5 477s211.5 161 391.5 161c86.667 0 178.667 -11.333 276 -34l-13 -66c-94.667 21.333 -178.334 32 -251.001 32c-156.667 0 -268.5 -46.667 -335.5 -140s-100.5 -236.666 -100.5 -429.999v-44
c0 -192 34.167 -334.667 102.5 -428s179.5 -140 333.5 -140c82.667 0 168.334 8.33301 257.001 25l10 -66c-98 -18 -191.667 -27 -281 -27c-180.667 0 -311 53.5 -391 160.5s-120 266.167 -120 477.5zM556 1366v137h78v-137h-78z" />
    <glyph glyph-name="cdotaccent" unicode="&#x10b;" horiz-adv-x="801" 
d="M100 458v27.999c0 317.333 129.333 476 388 476c77.333 0 153.333 -12 228 -36l-13 -60c-68 21.333 -135 32 -201 32c-112.667 0 -194 -34.833 -244 -104.5s-75 -172.167 -75 -307.5v-32c0 -137.333 25.5 -239.666 76.5 -306.999s134.833 -101 251.5 -101
c56 0 122 5.33301 198 16l9 -58c-78 -14.667 -151 -22 -219 -22c-140 0 -241.5 39.833 -304.5 119.5s-94.5 198.5 -94.5 356.5zM451 1117v137h78v-137h-78z" />
    <glyph glyph-name="Ccaron" unicode="&#x10c;" horiz-adv-x="956" 
d="M84 620v41.999c0 210.667 40.5 369.667 121.5 477s211.5 161 391.5 161c86.667 0 178.667 -11.333 276 -34l-13 -66c-94.667 21.333 -178.334 32 -251.001 32c-156.667 0 -268.5 -46.667 -335.5 -140s-100.5 -236.666 -100.5 -429.999v-44
c0 -192 34.167 -334.667 102.5 -428s179.5 -140 333.5 -140c82.667 0 168.334 8.33301 257.001 25l10 -66c-98 -18 -191.667 -27 -281 -27c-180.667 0 -311 53.5 -391 160.5s-120 266.167 -120 477.5zM395 1514l18 19l184 -123l183 123l18 -19l-201 -164z" />
    <glyph glyph-name="ccaron" unicode="&#x10d;" horiz-adv-x="801" 
d="M100 458v27.999c0 317.333 129.333 476 388 476c77.333 0 153.333 -12 228 -36l-13 -60c-68 21.333 -135 32 -201 32c-112.667 0 -194 -34.833 -244 -104.5s-75 -172.167 -75 -307.5v-32c0 -137.333 25.5 -239.666 76.5 -306.999s134.833 -101 251.5 -101
c56 0 122 5.33301 198 16l9 -58c-78 -14.667 -151 -22 -219 -22c-140 0 -241.5 39.833 -304.5 119.5s-94.5 198.5 -94.5 356.5zM289 1264l17 20l184 -123l183 123l18 -20l-201 -163z" />
    <glyph glyph-name="Dcaron" unicode="&#x10e;" horiz-adv-x="1136" 
d="M148 32l-0.000976562 1231c137.333 24.667 251.333 37 342 37c196 0 339 -51.5 429 -154.5s135 -262.833 135 -479.5v-43c0 -210 -45.667 -366.667 -137 -470s-235.666 -155 -432.999 -155c-113.333 0 -225.333 11.333 -336 34zM231.999 91
c76.667 -16.667 162.667 -25 258 -25c165.333 0 285.5 45.167 360.5 135.5s112.5 230.833 112.5 421.5v43c0 195.333 -37.167 338.5 -111.5 429.5s-193.833 136.5 -358.5 136.5c-90.667 0 -177.667 -8.66699 -261 -26v-1115zM366.999 1537l18 19l183 -122l184 122l17 -19
l-201 -164z" />
    <glyph glyph-name="dcaron" unicode="&#x10f;" horiz-adv-x="1210" 
d="M100 458l0.000976562 17c0 156.667 32.333 277.5 97 362.5s160 127.5 286 127.5c86 0 173.667 -20.667 263 -62v401h77v-1268c-35.333 -16 -81.333 -29 -138 -39s-110.334 -15 -161.001 -15c-134.667 0 -239 38.833 -313 116.5s-111 197.5 -111 359.5zM183.001 458
c0 -274.667 114.667 -412 344 -412c40 0 81.5 4 124.5 12s74.5 17 94.5 27v750c-84 42.667 -165.333 64 -244 64c-212.667 0 -319 -141.667 -319 -425v-16zM999.001 947l78 341h88l-102 -341h-64z" />
    <glyph glyph-name="Dcroat" unicode="&#x110;" horiz-adv-x="1136" 
d="M0 620l-0.000976562 60h148v583c137.333 24.667 251.333 37 342 37c196 0 339 -51.5 429 -154.5s135 -262.833 135 -479.5v-43c0 -210 -45.667 -366.667 -137 -470s-235.666 -155 -432.999 -155c-113.333 0 -225.333 11.333 -336 34v588h-148zM231.999 91
c76.667 -16.667 162.667 -25 258 -25c165.333 0 285.5 45.167 360.5 135.5s112.5 230.833 112.5 421.5v43c0 195.333 -37.167 338.5 -111.5 429.5s-193.833 136.5 -358.5 136.5c-90.667 0 -177.667 -8.66699 -261 -26v-526h167v-60h-167v-529z" />
    <glyph glyph-name="dcroat" unicode="&#x111;" horiz-adv-x="956" 
d="M100 458l0.000976562 17c0 156.667 32.333 277.5 97 362.5s160 127.5 286 127.5c86 0 173.667 -20.667 263 -62v221h-160v69h160v111h77v-111h130v-69h-130v-1088c-35.333 -16 -81.333 -29 -138 -39s-110.334 -15 -161.001 -15c-134.667 0 -239 38.833 -313 116.5
s-111 197.5 -111 359.5zM183.001 458c0 -274.667 114.667 -412 344 -412c40 0 81.5 4 124.5 12s74.5 17 94.5 27v750c-84 42.667 -165.333 64 -244 64c-212.667 0 -319 -141.667 -319 -425v-16z" />
    <glyph glyph-name="Emacron" unicode="&#x112;" horiz-adv-x="883" 
d="M52 342v27.001c0 96.667 24.167 172.667 72.5 228s124.833 92 229.5 110c-72 19.333 -124.667 50.833 -158 94.5s-50 100.5 -50 170.5v24c0 106 34.667 183.167 104 231.5s178.333 72.5 327 72.5c104 0 190.667 -6.66699 260 -20l-11 -58c-86.667 10.667 -165 16 -235 16
c-124 0 -214.667 -19.333 -272 -58s-86 -100 -86 -184v-22c0 -81.333 26.667 -142.333 80 -183s138.333 -61 255 -61h80v-62h-94c-146 0 -251.667 -24 -317 -72s-98 -123.667 -98 -227v-25c0 -102.667 33.167 -178 99.5 -226s172.5 -72 318.5 -72
c90.667 0 185.667 7.33301 285 22l7 -63c-90.667 -15.333 -192.667 -23 -306 -23c-170 0 -294.333 29.667 -373 89s-118 149.666 -118 270.999zM379 1366v60h399v-60h-399z" />
    <glyph glyph-name="emacron" unicode="&#x113;" horiz-adv-x="927" 
d="M100 458v32c0 314.667 123.333 472 370 472c236.667 0 355 -153.333 355 -460v-32h-642v-12c0 -150.667 27.167 -257 81.5 -319s142.5 -93 264.5 -93c101.333 0 197.333 11.333 288 34l11 -60c-92.667 -25.333 -194 -38 -304 -38c-146 0 -253.167 38 -321.5 114
s-102.5 196.667 -102.5 362zM183 527h567.001c-2 122.667 -25.5 215.167 -70.5 277.5s-114.833 93.5 -209.5 93.5c-96.667 0 -167.834 -31 -213.501 -93s-70.167 -154.667 -73.5 -278zM269.001 1117v60h399v-60h-399z" />
    <glyph glyph-name="Ebreve" unicode="&#x114;" horiz-adv-x="883" 
d="M52 342v27.001c0 96.667 24.167 172.667 72.5 228s124.833 92 229.5 110c-72 19.333 -124.667 50.833 -158 94.5s-50 100.5 -50 170.5v24c0 106 34.667 183.167 104 231.5s178.333 72.5 327 72.5c104 0 190.667 -6.66699 260 -20l-11 -58c-86.667 10.667 -165 16 -235 16
c-124 0 -214.667 -19.333 -272 -58s-86 -100 -86 -184v-22c0 -81.333 26.667 -142.333 80 -183s138.333 -61 255 -61h80v-62h-94c-146 0 -251.667 -24 -317 -72s-98 -123.667 -98 -227v-25c0 -102.667 33.167 -178 99.5 -226s172.5 -72 318.5 -72
c90.667 0 185.667 7.33301 285 22l7 -63c-90.667 -15.333 -192.667 -23 -306 -23c-170 0 -294.333 29.667 -373 89s-118 149.666 -118 270.999zM383 1528h55c0 -40 13.5 -68.667 40.5 -86s59.833 -26 98.5 -26s71.5 8.66699 98.5 26s40.5 46 40.5 86h53
c0 -55.333 -18.5 -96.166 -55.5 -122.499s-82.5 -39.5 -136.5 -39.5s-99.833 13.167 -137.5 39.5s-56.5 67.166 -56.5 122.499z" />
    <glyph glyph-name="ebreve" unicode="&#x115;" horiz-adv-x="927" 
d="M100 458v31.999c0 314.667 123.333 472 370 472c118 0 206.667 -38.167 266 -114.5s89 -186.166 89 -329.499v-48h-642v-12c0 -150.667 27.167 -257 81.5 -319s142.5 -93 264.5 -93c101.333 0 197.333 11.333 288 34l11 -60c-92.667 -25.333 -194 -38 -304 -38
c-146 0 -253.167 38 -321.5 114s-102.5 196.667 -102.5 362zM183 526.999h567.001c-2 122.667 -25.5 215.167 -70.5 277.5s-114.833 93.5 -209.5 93.5c-96.667 0 -167.834 -31 -213.501 -93s-70.167 -154.667 -73.5 -278zM272.001 1279h55.999
c0 -40 13.5 -68.833 40.5 -86.5s59.833 -26.5 98.5 -26.5s71.334 8.83301 98.001 26.5s40 46.5 40 86.5h54c0 -55.333 -18.5 -96.166 -55.5 -122.499s-82.5 -39.5 -136.5 -39.5s-100 13.167 -138 39.5s-57 67.166 -57 122.499z" />
    <glyph glyph-name="Edotaccent" unicode="&#x116;" horiz-adv-x="883" 
d="M52 342v27.001c0 96.667 24.167 172.667 72.5 228s124.833 92 229.5 110c-72 19.333 -124.667 50.833 -158 94.5s-50 100.5 -50 170.5v24c0 106 34.667 183.167 104 231.5s178.333 72.5 327 72.5c104 0 190.667 -6.66699 260 -20l-11 -58c-86.667 10.667 -165 16 -235 16
c-124 0 -214.667 -19.333 -272 -58s-86 -100 -86 -184v-22c0 -81.333 26.667 -142.333 80 -183s138.333 -61 255 -61h80v-62h-94c-146 0 -251.667 -24 -317 -72s-98 -123.667 -98 -227v-25c0 -102.667 33.167 -178 99.5 -226s172.5 -72 318.5 -72
c90.667 0 185.667 7.33301 285 22l7 -63c-90.667 -15.333 -192.667 -23 -306 -23c-170 0 -294.333 29.667 -373 89s-118 149.666 -118 270.999zM538 1366v137h78v-137h-78z" />
    <glyph glyph-name="edotaccent" unicode="&#x117;" horiz-adv-x="927" 
d="M100 458v32c0 314.667 123.333 472 370 472c236.667 0 355 -153.333 355 -460v-32h-642v-12c0 -150.667 27.167 -257 81.5 -319s142.5 -93 264.5 -93c101.333 0 197.333 11.333 288 34l11 -60c-92.667 -25.333 -194 -38 -304 -38c-146 0 -253.167 38 -321.5 114
s-102.5 196.667 -102.5 362zM183 527h567.001c-2 122.667 -25.5 215.167 -70.5 277.5s-114.833 93.5 -209.5 93.5c-96.667 0 -167.834 -31 -213.501 -93s-70.167 -154.667 -73.5 -278zM429.001 1117v137h79v-137h-79z" />
    <glyph glyph-name="Eogonek" unicode="&#x118;" horiz-adv-x="883" 
d="M52 342l-0.000976562 26.999c0 96.667 24.167 172.667 72.5 228s124.833 92 229.5 110c-72 19.333 -124.667 50.833 -158 94.5s-50 100.5 -50 170.5v24c0 106 34.667 183.167 104 231.5s178.333 72.5 327 72.5c104 0 190.667 -6.66699 260 -20l-11 -58
c-86.667 10.667 -165 16 -235 16c-124 0 -214.667 -19.333 -272 -58s-86 -100 -86 -184v-22c0 -81.333 26.667 -142.333 80 -183s138.333 -61 255 -61h80v-62h-94c-146 0 -251.667 -24 -317 -72s-98 -123.667 -98 -227v-25c0 -102.667 33.167 -178 99.5 -226
s172.5 -72 318.5 -72c90.667 0 185.667 7.33301 285 22l7 -63c-90.667 -15.333 -192.667 -23 -306 -23h-7c-29.333 -18.667 -52.166 -41 -68.499 -67s-24.5 -53 -24.5 -81c0 -29.333 9.66699 -55 29 -77s47.666 -33 84.999 -33c48 0 92 11.333 132 34l13 -16
c-47.333 -36.667 -102 -55 -164 -55c-53.333 0 -94.666 12.833 -123.999 38.5s-44 58.834 -44 99.501c0 64 35.667 117 107 159c-147.333 6.66699 -255 39.5 -323 98.5s-102 145.5 -102 259.5z" />
    <glyph glyph-name="eogonek" unicode="&#x119;" horiz-adv-x="927" 
d="M100 458v31.998c0 314.667 123.333 472 370 472c118 0 206.667 -38.167 266 -114.5s89 -186.166 89 -329.499v-48h-642v-12c0 -150.667 27.167 -257 81.5 -319s142.5 -93 264.5 -93c101.333 0 197.333 11.333 288 34l11 -60c-92.667 -25.333 -194 -38 -304 -38h-9
c-29.333 -18.667 -52.166 -41 -68.499 -67s-24.5 -53 -24.5 -81c0 -29.333 9.66699 -55 29 -77s47.666 -33 84.999 -33c48 0 92 11.333 132 34l12 -16c-47.333 -36.667 -102 -55 -164 -55c-53.333 0 -94.5 12.833 -123.5 38.5s-43.5 58.834 -43.5 99.501
c0 28.667 9 57.167 27 85.5s45.667 53.5 83 75.5c-123.333 10 -214 52.833 -272 128.5s-87 190.167 -87 343.5zM183 526.998h567.001c-2 122.667 -25.5 215.167 -70.5 277.5s-114.833 93.5 -209.5 93.5c-96.667 0 -167.834 -31 -213.501 -93s-70.167 -154.667 -73.5 -278z
" />
    <glyph glyph-name="Ecaron" unicode="&#x11a;" horiz-adv-x="883" 
d="M52 342v27.001c0 96.667 24.167 172.667 72.5 228s124.833 92 229.5 110c-72 19.333 -124.667 50.833 -158 94.5s-50 100.5 -50 170.5v24c0 106 34.667 183.167 104 231.5s178.333 72.5 327 72.5c104 0 190.667 -6.66699 260 -20l-11 -58c-86.667 10.667 -165 16 -235 16
c-124 0 -214.667 -19.333 -272 -58s-86 -100 -86 -184v-22c0 -81.333 26.667 -142.333 80 -183s138.333 -61 255 -61h80v-62h-94c-146 0 -251.667 -24 -317 -72s-98 -123.667 -98 -227v-25c0 -102.667 33.167 -178 99.5 -226s172.5 -72 318.5 -72
c90.667 0 185.667 7.33301 285 22l7 -63c-90.667 -15.333 -192.667 -23 -306 -23c-170 0 -294.333 29.667 -373 89s-118 149.666 -118 270.999zM376 1516l18 19l183 -123l183 123l18 -19l-201 -164z" />
    <glyph glyph-name="ecaron" unicode="&#x11b;" horiz-adv-x="927" 
d="M100 458v31.999c0 314.667 123.333 472 370 472c118 0 206.667 -38.167 266 -114.5s89 -186.166 89 -329.499v-48h-642v-12c0 -150.667 27.167 -257 81.5 -319s142.5 -93 264.5 -93c101.333 0 197.333 11.333 288 34l11 -60c-92.667 -25.333 -194 -38 -304 -38
c-146 0 -253.167 38 -321.5 114s-102.5 196.667 -102.5 362zM183 526.999h567.001c-2 122.667 -25.5 215.167 -70.5 277.5s-114.833 93.5 -209.5 93.5c-96.667 0 -167.834 -31 -213.501 -93s-70.167 -154.667 -73.5 -278zM267.001 1264l18 20l183 -123l184 123l18 -20
l-202 -163z" />
    <glyph glyph-name="Gcircumflex" unicode="&#x11c;" horiz-adv-x="1084" 
d="M84 618v43.999c0 210.667 44.333 369.667 133 477s231.667 161 429 161c89.333 0 189.666 -12 300.999 -36l-12 -69c-101.333 22.667 -195.666 34 -282.999 34c-172 0 -294.833 -46.5 -368.5 -139.5s-110.5 -235.5 -110.5 -427.5v-44
c0 -191.333 36.5 -333.5 109.5 -426.5s191.5 -139.5 355.5 -139.5c72.667 0 149.667 5.33301 231 16v557h84v-609c-111.333 -22.667 -218.333 -34 -321 -34c-193.333 0 -333 53.333 -419 160s-129 265.334 -129 476.001zM443 1369l202 164l201 -164l-18 -19l-183 123
l-184 -123z" />
    <glyph glyph-name="gcircumflex" unicode="&#x11d;" horiz-adv-x="963" 
d="M69 -329l9 60.001c52.667 -11.333 102 -19.833 148 -25.5s82 -9 108 -10s59.667 -1.5 101 -1.5c196.667 0 295 42 295 126c0 26.667 -10.167 48.834 -30.5 66.501s-47 30.834 -80 39.501s-69.333 16.167 -109 22.5s-79.167 13.333 -118.5 21s-75.5 17.167 -108.5 28.5
s-59.667 28.666 -80 51.999s-30.5 51.666 -30.5 84.999c0 68 36.667 113.333 110 136c-134 47.333 -201 154.666 -201 321.999v23c0 110.667 30.667 196.5 92 257.5s152.333 91.5 273 91.5c117.333 0 207.666 -29.667 270.999 -89c19.333 57.333 65 86 137 86
c38 0 74.667 -7.66699 110 -23l-14 -54c-34.667 8.66699 -64.334 13 -89.001 13c-30 0 -51.833 -7.66699 -65.5 -23s-21.5 -40 -23.5 -74c26 -54 39 -115.667 39 -185v-23c0 -109.333 -30.333 -194.333 -91 -255s-150.334 -91.334 -269.001 -92.001h-23
c-50.667 0 -92.167 -9.33301 -124.5 -28s-48.5 -45.667 -48.5 -81c0 -25.333 10.167 -46.166 30.5 -62.499s46.833 -28.5 79.5 -36.5s68.834 -15.167 108.501 -21.5s79.334 -13.5 119.001 -21.5s75.834 -18.167 108.501 -30.5s59.167 -30.833 79.5 -55.5s30.5 -55 30.5 -91
c0 -60 -30.833 -105.833 -92.5 -137.5s-152.5 -47.5 -272.5 -47.5c-140.667 0 -266.667 12.667 -378 38zM164 593.001c0 -90.667 23.667 -161.167 71 -211.5s118 -75.5 212 -75.5c93.333 0 163.5 25.167 210.5 75.5s70.5 120.833 70.5 211.5v23
c0 90.667 -23.5 160.834 -70.5 210.501s-117.167 74.5 -210.5 74.5c-94 0 -164.667 -24.833 -212 -74.5s-71 -119.834 -71 -210.501v-23zM244 1120l201 164l201 -164l-17 -19l-184 122l-183 -122z" />
    <glyph glyph-name="Gbreve" unicode="&#x11e;" horiz-adv-x="1084" 
d="M84 618v43.999c0 210.667 44.333 369.667 133 477s231.667 161 429 161c89.333 0 189.666 -12 300.999 -36l-12 -69c-101.333 22.667 -195.666 34 -282.999 34c-172 0 -294.833 -46.5 -368.5 -139.5s-110.5 -235.5 -110.5 -427.5v-44
c0 -191.333 36.5 -333.5 109.5 -426.5s191.5 -139.5 355.5 -139.5c72.667 0 149.667 5.33301 231 16v557h84v-609c-111.333 -22.667 -218.333 -34 -321 -34c-193.333 0 -333 53.333 -419 160s-129 265.334 -129 476.001zM451 1528h55c0 -40 13.5 -68.667 40.5 -86
s59.833 -26 98.5 -26s71.5 8.66699 98.5 26s40.5 46 40.5 86h53c0 -55.333 -18.5 -96.166 -55.5 -122.499s-82.5 -39.5 -136.5 -39.5s-99.833 13.167 -137.5 39.5s-56.5 67.166 -56.5 122.499z" />
    <glyph glyph-name="gbreve" unicode="&#x11f;" horiz-adv-x="963" 
d="M69 -329l8.99902 60c52.667 -11.333 102 -19.833 148 -25.5s82 -9 108 -10s59.667 -1.5 101 -1.5c196.667 0 295 42 295 126c0 26.667 -10.167 48.834 -30.5 66.501s-47 30.834 -80 39.501s-69.333 16.167 -109 22.5s-79.167 13.333 -118.5 21s-75.5 17.167 -108.5 28.5
s-59.667 28.666 -80 51.999s-30.5 51.666 -30.5 84.999c0 68 36.667 113.333 110 136c-134 47.333 -201 154.666 -201 321.999v23c0 110.667 30.667 196.5 92 257.5s152.333 91.5 273 91.5c117.333 0 207.666 -29.667 270.999 -89c19.333 57.333 65 86 137 86
c38 0 74.667 -7.66699 110 -23l-14 -54c-34.667 8.66699 -64.334 13 -89.001 13c-30 0 -51.833 -7.66699 -65.5 -23s-21.5 -40 -23.5 -74c26 -54 39 -115.667 39 -185v-23c0 -110 -30.667 -195.333 -92 -256s-152.333 -91 -273 -91h-18
c-115.333 -4.66699 -173 -41 -173 -109c0 -25.333 10.167 -46.166 30.5 -62.499s46.833 -28.5 79.5 -36.5s68.834 -15.167 108.501 -21.5s79.334 -13.5 119.001 -21.5s75.834 -18.167 108.501 -30.5s59.167 -30.833 79.5 -55.5s30.5 -55 30.5 -91
c0 -60 -30.833 -105.833 -92.5 -137.5s-152.5 -47.5 -272.5 -47.5c-140.667 0 -266.667 12.667 -378 38zM163.999 593c0 -90.667 23.667 -161.167 71 -211.5s118 -75.5 212 -75.5c93.333 0 163.5 25.167 210.5 75.5s70.5 120.833 70.5 211.5v23
c0 90.667 -23.5 160.834 -70.5 210.501s-117.167 74.5 -210.5 74.5c-94 0 -164.667 -24.833 -212 -74.5s-71 -119.834 -71 -210.501v-23zM250.999 1280h55c0 -40 13.5 -68.667 40.5 -86s59.833 -26 98.5 -26s71.5 8.66699 98.5 26s40.5 46 40.5 86h54
c0 -55.333 -18.667 -96.166 -56 -122.499s-83 -39.5 -137 -39.5s-99.833 13.167 -137.5 39.5s-56.5 67.166 -56.5 122.499z" />
    <glyph glyph-name="Gdotaccent" unicode="&#x120;" horiz-adv-x="1084" 
d="M84 618v43.999c0 210.667 44.333 369.667 133 477s231.667 161 429 161c89.333 0 189.666 -12 300.999 -36l-12 -69c-101.333 22.667 -195.666 34 -282.999 34c-172 0 -294.833 -46.5 -368.5 -139.5s-110.5 -235.5 -110.5 -427.5v-44
c0 -191.333 36.5 -333.5 109.5 -426.5s191.5 -139.5 355.5 -139.5c72.667 0 149.667 5.33301 231 16v557h84v-609c-111.333 -22.667 -218.333 -34 -321 -34c-193.333 0 -333 53.333 -419 160s-129 265.334 -129 476.001zM605 1366v137h79v-137h-79z" />
    <glyph glyph-name="gdotaccent" unicode="&#x121;" horiz-adv-x="963" 
d="M69 -329l9 60c52.667 -11.333 102 -19.833 148 -25.5s82 -9 108 -10s59.667 -1.5 101 -1.5c196.667 0 295 42 295 126c0 26.667 -10.167 48.834 -30.5 66.501s-47 30.834 -80 39.501s-69.333 16.167 -109 22.5s-79.167 13.333 -118.5 21s-75.5 17.167 -108.5 28.5
s-59.667 28.666 -80 51.999s-30.5 51.666 -30.5 84.999c0 68 36.667 113.333 110 136c-134 47.333 -201 154.666 -201 321.999v23c0 110.667 30.667 196.5 92 257.5s152.333 91.5 273 91.5c117.333 0 207.666 -29.667 270.999 -89c19.333 57.333 65 86 137 86
c38 0 74.667 -7.66699 110 -23l-14 -54c-34.667 8.66699 -64.334 13 -89.001 13c-30 0 -51.833 -7.66699 -65.5 -23s-21.5 -40 -23.5 -74c26 -54 39 -115.667 39 -185v-23c0 -108.667 -30.333 -193.667 -91 -255s-150.334 -92 -269.001 -92
c-130.667 0 -196 -36.333 -196 -109c0 -25.333 10.167 -46.166 30.5 -62.499s46.833 -28.5 79.5 -36.5s68.834 -15.167 108.501 -21.5s79.334 -13.5 119.001 -21.5s75.834 -18.167 108.501 -30.5s59.167 -30.833 79.5 -55.5s30.5 -55 30.5 -91
c0 -60 -30.833 -105.833 -92.5 -137.5s-152.5 -47.5 -272.5 -47.5c-140.667 0 -266.667 12.667 -378 38zM164 593c0 -90.667 23.667 -161.167 71 -211.5s118 -75.5 212 -75.5c93.333 0 163.5 25.167 210.5 75.5s70.5 120.833 70.5 211.5v23
c0 90.667 -23.5 160.834 -70.5 210.501s-117.167 74.5 -210.5 74.5c-94 0 -164.667 -24.833 -212 -74.5s-71 -119.834 -71 -210.501v-23zM406 1117v137h78v-137h-78z" />
    <glyph glyph-name="Gcommaaccent" unicode="&#x122;" horiz-adv-x="1084" 
d="M84 618v43.999c0 210.667 44.333 369.667 133 477s231.667 161 429 161c89.333 0 189.666 -12 300.999 -36l-12 -69c-101.333 22.667 -195.666 34 -282.999 34c-172 0 -294.833 -46.5 -368.5 -139.5s-110.5 -235.5 -110.5 -427.5v-44
c0 -191.333 36.5 -333.5 109.5 -426.5s191.5 -139.5 355.5 -139.5c72.667 0 149.667 5.33301 231 16v557h84v-609c-111.333 -22.667 -218.333 -34 -321 -34c-193.333 0 -333 53.333 -419 160s-129 265.334 -129 476.001zM436 -301.001l80 235h77l-103 -235h-54z" />
    <glyph glyph-name="gcommaaccent" unicode="&#x123;" horiz-adv-x="963" 
d="M69 -329l9 60.001c52.667 -11.333 102 -19.833 148 -25.5s82 -9 108 -10s59.667 -1.5 101 -1.5c196.667 0 295 42 295 126c0 26.667 -10.167 48.834 -30.5 66.501s-47 30.834 -80 39.501s-69.333 16.167 -109 22.5s-79.167 13.333 -118.5 21s-75.5 17.167 -108.5 28.5
s-59.667 28.666 -80 51.999s-30.5 51.666 -30.5 84.999c0 68 36.667 113.333 110 136c-134 47.333 -201 154.666 -201 321.999v23c0 110.667 30.667 196.5 92 257.5s152.333 91.5 273 91.5c117.333 0 207.666 -29.667 270.999 -89c19.333 57.333 65 86 137 86
c38 0 74.667 -7.66699 110 -23l-14 -54c-34.667 8.66699 -64.334 13 -89.001 13c-30 0 -51.833 -7.66699 -65.5 -23s-21.5 -40 -23.5 -74c26 -54 39 -115.667 39 -185v-23c0 -109.333 -30.333 -194.333 -91 -255s-150.334 -91.334 -269.001 -92.001h-25
c-50 0 -91 -9.33301 -123 -28s-48 -45.667 -48 -81c0 -25.333 10.167 -46.166 30.5 -62.499s46.833 -28.5 79.5 -36.5s68.834 -15.167 108.501 -21.5s79.334 -13.5 119.001 -21.5s75.834 -18.167 108.501 -30.5s59.167 -30.833 79.5 -55.5s30.5 -55 30.5 -91
c0 -60 -30.833 -105.833 -92.5 -137.5s-152.5 -47.5 -272.5 -47.5c-140.667 0 -266.667 12.667 -378 38zM164 593.001c0 -90.667 23.667 -161.167 71 -211.5s118 -75.5 212 -75.5c93.333 0 163.5 25.167 210.5 75.5s70.5 120.833 70.5 211.5v23
c0 90.667 -23.5 160.834 -70.5 210.501s-117.167 74.5 -210.5 74.5c-94 0 -164.667 -24.833 -212 -74.5s-71 -119.834 -71 -210.501v-23zM399 1280l101 341h65l-79 -341h-87z" />
    <glyph glyph-name="Hcircumflex" unicode="&#x124;" horiz-adv-x="1043" 
d="M116 0v1282h83v-577h643v577h82v-1282h-82v636h-643v-636h-83zM317 1369l201 164l201 -164l-17 -19l-184 123l-183 -123z" />
    <glyph glyph-name="hcircumflex" unicode="&#x125;" 
d="M-36 1380l202 164l201 -164l-18 -19l-183 122l-184 -122zM132 0l0.00195312 1327h78v-428c106 42 210.667 63 314 63c105.333 0 183 -28.5 233 -85.5s75 -136.5 75 -238.5v-638h-77v632c0 82.667 -19.833 147.334 -59.5 194.001s-101.834 70 -186.501 70
c-49.333 0 -104.333 -7 -165 -21s-105.334 -28 -134.001 -42v-833h-78z" />
    <glyph glyph-name="Hbar" unicode="&#x126;" horiz-adv-x="1041" 
d="M-4 988v63h120v231h83v-231h643v231h82v-231h121v-63h-121v-988h-82v636h-643v-636h-83v988h-120zM199 705h643v283h-643v-283z" />
    <glyph glyph-name="hbar" unicode="&#x127;" 
d="M-32 1115l0.00195312 59.999h164v152h78v-152h157v-60h-157v-216c106 42 210.667 63 314 63c105.333 0 183 -28.5 233 -85.5s75 -136.5 75 -238.5v-638h-77v632c0 82.667 -19.833 147.334 -59.5 194.001s-101.834 70 -186.501 70c-49.333 0 -104.333 -7 -165 -21
s-105.334 -28 -134.001 -42v-833h-78v1115h-164z" />
    <glyph glyph-name="Itilde" unicode="&#x128;" horiz-adv-x="379" 
d="M-5 1403c28.667 56 69.668 84 123.001 84c29.333 0 59.666 -12.167 90.999 -36.5s56.666 -36.5 75.999 -36.5c34.667 0 60.334 14.333 77.001 43l33 -7c-25.333 -57.333 -63.666 -86 -114.999 -86c-17.333 0 -34 3.83301 -50 11.5s-29.333 16 -40 25
s-23.167 17.333 -37.5 25s-28.5 11.5 -42.5 11.5c-34.667 0 -62.334 -14.333 -83.001 -43zM148.001 0v1282h84v-1282h-84z" />
    <glyph glyph-name="itilde" unicode="&#x129;" horiz-adv-x="381" 
d="M-27 1154c28.667 56 69.666 84 122.999 84c18.667 0 36.167 -3.83301 52.5 -11.5s29.5 -16 39.5 -25s21.833 -17.333 35.5 -25s27.167 -11.5 40.5 -11.5c34.667 0 60 14 76 42l34 -7c-25.333 -56.667 -64 -85 -116 -85c-21.333 0 -41.666 6.16699 -60.999 18.5
l-55.5 36.5c-17.667 12 -35.167 18 -52.5 18c-35.333 0 -63.333 -14.333 -84 -43zM134.999 178l-0.000976562 765.999h77v-766c0 -39.333 6.33301 -68.166 19 -86.499s33.667 -27.5 63 -27.5c24.667 0 53.667 4.33301 87 13l14 -54
c-37.333 -15.333 -75.666 -23 -114.999 -23c-48 0 -84.167 13.5 -108.5 40.5s-36.5 72.833 -36.5 137.5z" />
    <glyph glyph-name="Imacron" unicode="&#x12a;" horiz-adv-x="379" 
d="M-7 1366v60h399v-60h-399zM148 0v1282h84v-1282h-84z" />
    <glyph glyph-name="imacron" unicode="&#x12b;" horiz-adv-x="381" 
d="M-28 1117v60h398v-60h-398zM135 178l-0.000976562 765.999h77v-766c0 -39.333 6.33301 -68.166 19 -86.499s33.667 -27.5 63 -27.5c24.667 0 53.667 4.33301 87 13l14 -54c-37.333 -15.333 -75.666 -23 -114.999 -23c-48 0 -84.167 13.5 -108.5 40.5
s-36.5 72.833 -36.5 137.5z" />
    <glyph glyph-name="Ibreve" unicode="&#x12c;" horiz-adv-x="379" 
d="M-4 1528h55.999c0 -40 13.5 -68.667 40.5 -86s59.833 -26 98.5 -26s71.334 8.66699 98.001 26s40 46 40 86h54c0 -55.333 -18.5 -96.166 -55.5 -122.499s-82.5 -39.5 -136.5 -39.5s-100 13.167 -138 39.5s-57 67.166 -57 122.499zM147.999 0v1282h84v-1282h-84z" />
    <glyph glyph-name="ibreve" unicode="&#x12d;" horiz-adv-x="381" 
d="M-25 1279h55c0 -40 13.5 -68.833 40.5 -86.5s59.833 -26.5 98.5 -26.5s71.5 8.83301 98.5 26.5s40.5 46.5 40.5 86.5h54c0 -55.333 -18.667 -96.166 -56 -122.499s-83 -39.5 -137 -39.5s-99.833 13.167 -137.5 39.5s-56.5 67.166 -56.5 122.499zM135 178
l-0.000976562 765.999h77v-766c0 -39.333 6.33301 -68.166 19 -86.499s33.667 -27.5 63 -27.5c24.667 0 53.667 4.33301 87 13l14 -54c-37.333 -15.333 -75.666 -23 -114.999 -23c-48 0 -84.167 13.5 -108.5 40.5s-36.5 72.833 -36.5 137.5z" />
    <glyph glyph-name="Iogonek" unicode="&#x12e;" horiz-adv-x="379" 
d="M14 -175c0 33.333 11.499 65.332 34.499 95.999s58.5 57 106.5 79h-7v1282h84v-1282h-24l2 -2c-38 -18 -68 -41.833 -90 -71.5s-33 -60.5 -33 -92.5c0 -29.333 9.66699 -55 29 -77s47.666 -33 84.999 -33c48 0 92 11.333 132 34l12 -16
c-47.333 -36.667 -101.666 -55 -162.999 -55c-53.333 0 -94.666 12.833 -123.999 38.5s-44 58.834 -44 99.501z" />
    <glyph glyph-name="iogonek" unicode="&#x12f;" horiz-adv-x="381" 
d="M110 -162c0 30.667 10.168 60.666 30.501 89.999s51.166 54.666 92.499 75.999c-65.333 14.667 -98 72.667 -98 174v766h77v-766c0 -39.333 6.33301 -68.166 19 -86.499s33.667 -27.5 63 -27.5c24.667 0 53.667 4.33301 87 13l14 -54c-35.333 -15.333 -72 -23 -110 -23
c-32 -18 -57 -40.667 -75 -68s-27 -55.666 -27 -84.999c0 -30 9.66699 -56 29 -78s47.666 -33 84.999 -33c48 0 92 11.333 132 34l13 -16c-47.333 -36.667 -102 -55 -164 -55c-53.333 0 -94.666 13 -123.999 39s-44 59.333 -44 100zM132.001 1117v147h85v-147h-85z" />
    <glyph glyph-name="Idotaccent" unicode="&#x130;" horiz-adv-x="379" 
d="M148 0v1282h84v-1282h-84zM151 1366v137h79v-137h-79z" />
    <glyph glyph-name="dotlessi" unicode="&#x131;" horiz-adv-x="381" 
d="M135 178l-0.000976562 765.999h77v-766c0 -39.333 6.33301 -68.166 19 -86.499s33.667 -27.5 63 -27.5c24.667 0 53.667 4.33301 87 13l14 -54c-37.333 -15.333 -75.666 -23 -114.999 -23c-48 0 -84.167 13.5 -108.5 40.5s-36.5 72.833 -36.5 137.5z" />
    <glyph glyph-name="IJ" unicode="&#x132;" horiz-adv-x="1237" 
d="M148 0v1282h84v-1282h-84zM415 14l11 66c88.667 -18.667 169.334 -28 242.001 -28c116.667 0 202.5 28 257.5 84s82.5 141.333 82.5 256v890h82v-903c0 -132.667 -32 -232 -96 -298s-165 -99 -303 -99c-44.667 0 -93.834 3.16699 -147.501 9.5s-96.5 13.833 -128.5 22.5z
" />
    <glyph glyph-name="ij" unicode="&#x133;" horiz-adv-x="724" 
d="M132 1117v147h85v-147h-85zM135 178l-0.000976562 765.999h77v-766c0 -39.333 6.33301 -68.166 19 -86.499s33.667 -27.5 63 -27.5c24.667 0 53.667 4.33301 87 13l14 -54c-37.333 -15.333 -75.666 -23 -114.999 -23c-48 0 -84.167 13.5 -108.5 40.5
s-36.5 72.833 -36.5 137.5zM238.999 -362.001l14 59c48 -12 84.667 -18 110 -18c48 0 85 13.833 111 41.5s39 69.167 39 124.5v1099h82v-1101c0 -72 -18.833 -128 -56.5 -168s-92.5 -60 -164.5 -60c-50.667 0 -95.667 7.66699 -135 23zM507.999 1113v151h87v-151h-87z" />
    <glyph glyph-name="Jcircumflex" unicode="&#x134;" horiz-adv-x="858" 
d="M36 14l10.001 66c88.667 -18.667 169.667 -28 243 -28c116.667 0 202.5 28 257.5 84s82.5 141.333 82.5 256v890h82v-903c0 -132.667 -32 -232 -96 -298s-165 -99 -303 -99c-44.667 0 -93.834 3.16699 -147.501 9.5s-96.5 13.833 -128.5 22.5zM465.001 1386l201 163
l201 -163l-18 -20l-183 123l-183 -123z" />
    <glyph glyph-name="jcircumflex" unicode="&#x135;" horiz-adv-x="318" 
d="M-123 -365l14 60c38 -10.667 72 -16 102 -16c46 0 82.167 13.833 108.5 41.5s39.5 69.167 39.5 124.5v1099h78v-1101c0 -72 -18.5 -128 -55.5 -168s-91.5 -60 -163.5 -60c-44.667 0 -85.667 6.66699 -123 20zM-41 1054l201 164l202 -164l-18 -19l-184 123l-183 -123z" />
    <glyph glyph-name="Kcommaaccent" unicode="&#x136;" horiz-adv-x="1047" 
d="M119 0l0.00195312 1282h82v-566c29.333 10.667 62.333 26.5 99 47.5s78.167 49 124.5 84s90.333 73.167 132 114.5s81.334 90.166 119.001 146.499s66.5 114.166 86.5 173.499h80c-18 -60.667 -44.167 -119.834 -78.5 -177.501s-71 -107.667 -110 -150
s-81.833 -82.666 -128.5 -120.999s-88.834 -69.333 -126.501 -93s-74.834 -44.834 -111.501 -63.501c37.333 -20.667 75.666 -44.5 114.999 -71.5s83 -61.833 131 -104.5s92.167 -88 132.5 -136s78.333 -104 114 -168s62.5 -129.667 80.5 -197h-80
c-20.667 66 -50.5 130.667 -89.5 194s-80 118.333 -123 165s-88.333 89.834 -136 129.501s-90.5 71.334 -128.5 95.001s-72 41.834 -102 54.501v-638h-82zM408.002 -301l80 235h77l-104 -235h-53z" />
    <glyph glyph-name="kcommaaccent" unicode="&#x137;" horiz-adv-x="853" 
d="M132 0l0.00292969 1327h78v-795c30 8 66.333 23.333 109 46s88.167 50.834 136.5 84.501s94.166 75.167 137.499 124.5s76 100.333 98 153h84c-14.667 -42 -36.334 -83.333 -65.001 -124s-59.334 -76.667 -92.001 -108s-68.5 -61.166 -107.5 -89.499s-75 -52 -108 -71
s-65.167 -35.833 -96.5 -50.5c42 -21.333 85 -46.833 129 -76.5s89.833 -65.167 137.5 -106.5s91 -89.5 130 -144.5s67.833 -111.5 86.5 -169.5h-82c-22 58.667 -55.5 116 -100.5 172s-92.5 103.333 -142.5 142s-97 71 -141 97s-81.667 44 -113 54v-465h-78z
M347.003 -301.002l80 235h77l-103 -235h-54z" />
    <glyph glyph-name="Lacute" unicode="&#x139;" horiz-adv-x="851" 
d="M125 1371l130 221h85l-153 -221h-62zM132 397l-0.000976562 885.001h83v-872c0 -114.667 25.333 -199.834 76 -255.501s133.667 -83.5 249 -83.5h279v-71h-303c-133.333 0 -230.666 33 -291.999 99s-92 165.333 -92 298z" />
    <glyph glyph-name="lacute" unicode="&#x13a;" horiz-adv-x="368" 
d="M125 178v1149h78v-1149c0 -40 6.16699 -69 18.5 -87s33.5 -27 63.5 -27c23.333 0 52.333 4.33301 87 13l13 -54c-35.333 -15.333 -73.333 -23 -114 -23c-48.667 0 -85.167 13.5 -109.5 40.5s-36.5 72.833 -36.5 137.5zM132 1366l130 221h85l-153 -221h-62z" />
    <glyph glyph-name="Lcommaaccent" unicode="&#x13b;" horiz-adv-x="851" 
d="M132 397l-0.000976562 885.001h83v-872c0 -114.667 25.333 -199.834 76 -255.501s133.667 -83.5 249 -83.5h279v-71h-303c-133.333 0 -230.666 33 -291.999 99s-92 165.333 -92 298zM320.999 -300.999l80 235h76l-103 -235h-53z" />
    <glyph glyph-name="lcommaaccent" unicode="&#x13c;" horiz-adv-x="379" 
d="M112 -301l80 235h77l-103 -235h-54zM134 178v1149h78v-1149c0 -40 6.16699 -69 18.5 -87s33.5 -27 63.5 -27c23.333 0 52.333 4.33301 87 13l13 -54c-35.333 -15.333 -73.333 -23 -114 -23c-48.667 0 -85.167 13.5 -109.5 40.5s-36.5 72.833 -36.5 137.5z" />
    <glyph glyph-name="Lcaron" unicode="&#x13d;" horiz-adv-x="858" 
d="M132 397l-0.000976562 885.001h83v-872c0 -114.667 25.333 -199.834 76 -255.501s133.667 -83.5 249 -83.5h279v-71h-303c-133.333 0 -230.666 33 -291.999 99s-92 165.333 -92 298z" />
    <glyph glyph-name="lcaron" unicode="&#x13e;" horiz-adv-x="621" 
d="M134 178v1149h78v-1149c0 -40 6.16699 -69 18.5 -87s33.5 -27 63.5 -27c23.333 0 52.333 4.33301 87 13l13 -54c-35.333 -15.333 -73.333 -23 -114 -23c-48.667 0 -85.167 13.5 -109.5 40.5s-36.5 72.833 -36.5 137.5zM411 949l79 340h87l-102 -340h-64z" />
    <glyph glyph-name="Ldot" unicode="&#x13f;" horiz-adv-x="851" 
d="M132 397l-0.000976562 885.001h83v-872c0 -114.667 25.333 -199.834 76 -255.501s133.667 -83.5 249 -83.5h279v-71h-303c-133.333 0 -230.666 33 -291.999 99s-92 165.333 -92 298zM384.999 438.001v151h80v-151h-80z" />
    <glyph glyph-name="ldot" unicode="&#x140;" horiz-adv-x="808" 
d="M134 178v1149h78v-1149c0 -40 6.16699 -69 18.5 -87s33.5 -27 63.5 -27c23.333 0 52.333 4.33301 87 13l13 -54c-35.333 -15.333 -73.333 -23 -114 -23c-48.667 0 -85.167 13.5 -109.5 40.5s-36.5 72.833 -36.5 137.5zM472 467v151h80v-151h-80z" />
    <glyph glyph-name="Lslash" unicode="&#x141;" horiz-adv-x="874" 
d="M-141 413l296.001 200.001v669h84v-614l256 174l41 -58l-297 -202v-172c0 -114.667 25.167 -199.834 75.5 -255.501s133.166 -83.5 248.499 -83.5h279v-71h-302c-133.333 0 -230.833 33 -292.5 99s-92.5 165.333 -92.5 298v130l-257 -173z" />
    <glyph glyph-name="lslash" unicode="&#x142;" horiz-adv-x="541" 
d="M-18 427l258 239v661h79v-590l224 209l41 -56l-265 -244v-468c0 -40 6.16699 -69 18.5 -87s33.5 -27 63.5 -27c23.333 0 52.333 4.33301 87 13l12 -54c-35.333 -15.333 -73.333 -23 -114 -23c-48.667 0 -85.167 13.5 -109.5 40.5s-36.5 72.833 -36.5 137.5v395l-219 -201
z" />
    <glyph glyph-name="Nacute" unicode="&#x143;" horiz-adv-x="1134" 
d="M148 0l0.000976562 1182c55.333 30.667 126.5 58 213.5 82s167.833 36 242.5 36c130.667 0 227.167 -38.333 289.5 -115s93.5 -182 93.5 -316v-869h-82v866c0 114 -24.167 203.333 -72.5 268s-124.5 97 -228.5 97c-62.667 0 -131.834 -10 -207.501 -30
s-130.5 -40.333 -164.5 -61v-1140h-84zM570.001 1366l130 221h85l-153 -221h-62z" />
    <glyph glyph-name="nacute" unicode="&#x144;" 
d="M132 0l0.00195312 873.998c46 23.333 105 43.833 177 61.5s140 26.5 204 26.5c108.667 0 189 -28.667 241 -86s78 -136.666 78 -237.999v-638h-77v632c0 82.667 -19.833 147.334 -59.5 194.001s-101.834 70 -186.501 70c-49.333 0 -104.333 -7 -165 -21
s-105.334 -28 -134.001 -42v-833h-78zM481.002 1117l130 220h85l-153 -220h-62z" />
    <glyph glyph-name="Ncommaaccent" unicode="&#x145;" horiz-adv-x="1134" 
d="M148 0l0.000976562 1182c55.333 30.667 126.5 58 213.5 82s167.833 36 242.5 36c130.667 0 227.167 -38.333 289.5 -115s93.5 -182 93.5 -316v-869h-82v866c0 114 -24.167 203.333 -72.5 268s-124.5 97 -228.5 97c-62.667 0 -131.834 -10 -207.501 -30
s-130.5 -40.333 -164.5 -61v-1140h-84zM463.001 -301l80 235h77l-104 -235h-53z" />
    <glyph glyph-name="ncommaaccent" unicode="&#x146;" 
d="M132 0l0.00195312 873.998c46 23.333 105 43.833 177 61.5s140 26.5 204 26.5c108.667 0 189 -28.667 241 -86s78 -136.666 78 -237.999v-638h-77v632c0 82.667 -19.833 147.334 -59.5 194.001s-101.834 70 -186.501 70c-49.333 0 -104.333 -7 -165 -21
s-105.334 -28 -134.001 -42v-833h-78zM404.002 -301.002l80 235h77l-103 -235h-54z" />
    <glyph glyph-name="Ncaron" unicode="&#x147;" horiz-adv-x="1134" 
d="M148 0l0.000976562 1182c55.333 30.667 126.5 58 213.5 82s167.833 36 242.5 36c130.667 0 227.167 -38.333 289.5 -115s93.5 -182 93.5 -316v-869h-82v866c0 114 -24.167 203.333 -72.5 268s-124.5 97 -228.5 97c-62.667 0 -131.834 -10 -207.501 -30
s-130.5 -40.333 -164.5 -61v-1140h-84zM402.001 1514l18 19l184 -123l183 123l18 -19l-201 -164z" />
    <glyph glyph-name="ncaron" unicode="&#x148;" 
d="M132 0l0.00195312 873.998c46 23.333 105 43.833 177 61.5s140 26.5 204 26.5c108.667 0 189 -28.667 241 -86s78 -136.666 78 -237.999v-638h-77v632c0 82.667 -19.833 147.334 -59.5 194.001s-101.834 70 -186.501 70c-49.333 0 -104.333 -7 -165 -21
s-105.334 -28 -134.001 -42v-833h-78zM312.002 1264l17 20l184 -123l183 123l18 -20l-201 -163z" />
    <glyph glyph-name="napostrophe" unicode="&#x149;" 
d="M132 0l0.00195312 873.998c46 23.333 105 43.833 177 61.5s140 26.5 204 26.5c108.667 0 189 -28.667 241 -86s78 -136.666 78 -237.999v-638h-77v632c0 82.667 -19.833 147.334 -59.5 194.001s-101.834 70 -186.501 70c-49.333 0 -104.333 -7 -165 -21
s-105.334 -28 -134.001 -42v-833h-78zM132.002 1092l80 235h77l-104 -235h-53z" />
    <glyph glyph-name="Eng" unicode="&#x14a;" horiz-adv-x="1134" 
d="M148 0v1182c55.333 30.667 126.5 58 213.5 82s167.833 36 242.5 36c130.667 0 227.167 -38.333 289.5 -115s93.5 -182 93.5 -316v-869c-2 -130 -34.667 -227.167 -98 -291.5s-163.666 -96.5 -300.999 -96.5c-44 0 -93 3.16699 -147 9.5s-97 13.833 -129 22.5l12 66
c88.667 -19.333 169 -29 241 -29c114 0 198.5 26.5 253.5 79.5s83.833 133.5 86.5 241.5v864c0 114 -24.167 203.333 -72.5 268s-124.5 97 -228.5 97c-62.667 0 -131.834 -10 -207.501 -30s-130.5 -40.333 -164.5 -61v-1140h-84z" />
    <glyph glyph-name="eng" unicode="&#x14b;" 
d="M132 0l0.00195312 873.998c46 23.333 105 43.833 177 61.5s140 26.5 204 26.5c108.667 0 189 -28.667 241 -86s78 -136.666 78 -237.999v-793c0 -72.667 -18.5 -129.167 -55.5 -169.5s-91.167 -60.5 -162.5 -60.5c-38.667 0 -80 7.33301 -124 22l14 60
c38 -10.667 72.333 -16 103 -16c46 0 82.167 13.667 108.5 41s39.5 68.333 39.5 123v787c0 82.667 -19.833 147.334 -59.5 194.001s-101.834 70 -186.501 70c-49.333 0 -104.333 -7 -165 -21s-105.334 -28 -134.001 -42v-833h-78z" />
    <glyph glyph-name="Omacron" unicode="&#x14c;" horiz-adv-x="1173" 
d="M84 623l-0.000976562 43c0 201.333 41.833 357.333 125.5 468s209.834 166 378.501 166c166.667 0 292 -55.5 376 -166.5s126 -266.833 126 -467.5v-43c0 -201.333 -42.167 -358.5 -126.5 -471.5s-209.5 -169.5 -375.5 -169.5c-168 0 -294 56.333 -378 169
s-126 270 -126 472zM172.999 623c0 -182 34.333 -322.999 103 -422.999s172.667 -150 312 -150c137.333 0 240.5 50.167 309.5 150.5s103.5 241.166 103.5 422.499v43c0 184 -34.333 324.333 -103 421s-172 145 -310 145c-276.667 0 -415 -188.667 -415 -566v-43z
M387.999 1366v60h399v-60h-399z" />
    <glyph glyph-name="omacron" unicode="&#x14d;" horiz-adv-x="990" 
d="M100 458v32c0 148.667 33.167 265 99.5 349s164.833 126 295.5 126c129.333 0 227.5 -42 294.5 -126s100.5 -200.333 100.5 -349v-32c0 -148.667 -33.5 -265.167 -100.5 -349.5s-165.167 -126.5 -294.5 -126.5c-130.667 0 -229.167 42.167 -295.5 126.5
s-99.5 200.833 -99.5 349.5zM183 458c0 -130 26.1689 -231.167 78.502 -303.5s130.166 -108.5 233.499 -108.5s181.166 36.167 233.499 108.5s78.5 173.5 78.5 303.5v32c0 130.667 -26 231.834 -78 303.501s-130 107.5 -234 107.5s-182 -35.833 -234 -107.5
s-78 -172.834 -78 -303.501v-32zM296.002 1117v60h399v-60h-399z" />
    <glyph glyph-name="Obreve" unicode="&#x14e;" horiz-adv-x="1173" 
d="M84 623l-0.000976562 43c0 201.333 41.833 357.333 125.5 468s209.834 166 378.501 166c166.667 0 292 -55.5 376 -166.5s126 -266.833 126 -467.5v-43c0 -201.333 -42.167 -358.5 -126.5 -471.5s-209.5 -169.5 -375.5 -169.5c-168 0 -294 56.333 -378 169
s-126 270 -126 472zM172.999 623c0 -182 34.333 -322.999 103 -422.999s172.667 -150 312 -150c137.333 0 240.5 50.167 309.5 150.5s103.5 241.166 103.5 422.499v43c0 184 -34.333 324.333 -103 421s-172 145 -310 145c-276.667 0 -415 -188.667 -415 -566v-43z
M391.999 1528h55c0 -40 13.5 -68.667 40.5 -86s59.833 -26 98.5 -26s71.5 8.66699 98.5 26s40.5 46 40.5 86h53c0 -55.333 -18.5 -96.166 -55.5 -122.499s-82.5 -39.5 -136.5 -39.5s-99.833 13.167 -137.5 39.5s-56.5 67.166 -56.5 122.499z" />
    <glyph glyph-name="obreve" unicode="&#x14f;" horiz-adv-x="990" 
d="M100 458v32c0 148.667 33.167 265 99.5 349s164.833 126 295.5 126c129.333 0 227.5 -42 294.5 -126s100.5 -200.333 100.5 -349v-32c0 -148.667 -33.5 -265.167 -100.5 -349.5s-165.167 -126.5 -294.5 -126.5c-130.667 0 -229.167 42.167 -295.5 126.5
s-99.5 200.833 -99.5 349.5zM183 458c0 -130 26.1689 -231.167 78.502 -303.5s130.166 -108.5 233.499 -108.5s181.166 36.167 233.499 108.5s78.5 173.5 78.5 303.5v32c0 130.667 -26 231.834 -78 303.501s-130 107.5 -234 107.5s-182 -35.833 -234 -107.5
s-78 -172.834 -78 -303.501v-32zM299.002 1279h55c0 -40 13.5 -68.833 40.5 -86.5s59.833 -26.5 98.5 -26.5s71.5 8.83301 98.5 26.5s40.5 46.5 40.5 86.5h54c0 -55.333 -18.667 -96.166 -56 -122.499s-83 -39.5 -137 -39.5s-99.833 13.167 -137.5 39.5
s-56.5 67.166 -56.5 122.499z" />
    <glyph glyph-name="Ohungarumlaut" unicode="&#x150;" horiz-adv-x="1173" 
d="M84 623l-0.000976562 43c0 201.333 41.833 357.333 125.5 468s209.834 166 378.501 166c166.667 0 292 -55.5 376 -166.5s126 -266.833 126 -467.5v-43c0 -201.333 -42.167 -358.5 -126.5 -471.5s-209.5 -169.5 -375.5 -169.5c-168 0 -294 56.333 -378 169
s-126 270 -126 472zM172.999 623c0 -182 34.333 -322.999 103 -422.999s172.667 -150 312 -150c137.333 0 240.5 50.167 309.5 150.5s103.5 241.166 103.5 422.499v43c0 184 -34.333 324.333 -103 421s-172 145 -310 145c-276.667 0 -415 -188.667 -415 -566v-43z
M507.999 1366l119 208h78l-133 -208h-64zM597.999 1366l120 208h78l-134 -208h-64z" />
    <glyph glyph-name="ohungarumlaut" unicode="&#x151;" horiz-adv-x="990" 
d="M100 458v32c0 148.667 33.167 265 99.5 349s164.833 126 295.5 126c129.333 0 227.5 -42 294.5 -126s100.5 -200.333 100.5 -349v-32c0 -148.667 -33.5 -265.167 -100.5 -349.5s-165.167 -126.5 -294.5 -126.5c-130.667 0 -229.167 42.167 -295.5 126.5
s-99.5 200.833 -99.5 349.5zM183 458c0 -130 26.1689 -231.167 78.502 -303.5s130.166 -108.5 233.499 -108.5s181.166 36.167 233.499 108.5s78.5 173.5 78.5 303.5v32c0 130.667 -26 231.834 -78 303.501s-130 107.5 -234 107.5s-182 -35.833 -234 -107.5
s-78 -172.834 -78 -303.501v-32zM415.002 1117l119 208h79l-134 -208h-64zM506.002 1117l119 208h78l-133 -208h-64z" />
    <glyph glyph-name="OE" unicode="&#x152;" horiz-adv-x="1820" 
d="M84 623l-0.00292969 43c0 201.333 41.833 357.333 125.5 468s209.834 166 378.501 166c166.667 0 292 -55.5 376 -166.5s126 -266.833 126 -467.5v-43c46.667 40 113.667 68 201 84c-72 19.333 -124.667 50.833 -158 94.5s-50 100.5 -50 170.5v24
c0 106 34.667 183.167 104 231.5s178.333 72.5 327 72.5c104 0 190.667 -6.66699 260 -20l-11 -58c-86.667 10.667 -165 16 -235 16c-124 0 -214.667 -19.333 -272 -58s-86 -100 -86 -184v-22c0 -81.333 26.667 -142.333 80 -183s138.333 -61 255 -61h80v-62h-94
c-146 0 -251.667 -24 -317 -72s-98 -123.667 -98 -227v-25c0 -102.667 33.167 -178 99.5 -226s172.5 -72 318.5 -72c90.667 0 185.667 7.33301 285 22l7 -63c-90.667 -15.333 -192.667 -23 -306 -23c-139.333 0 -247.666 19.167 -324.999 57.5
s-127.666 96.833 -150.999 175.5c-84 -155.333 -222.667 -233 -416 -233c-168 0 -294 56.333 -378 169s-126 270 -126 472zM172.997 623c0 -182 34.333 -322.999 103 -422.999s172.667 -150 312 -150c137.333 0 240.5 50.167 309.5 150.5s103.5 241.166 103.5 422.499v43
c0 184 -34.333 324.333 -103 421s-172 145 -310 145c-276.667 0 -415 -188.667 -415 -566v-43z" />
    <glyph glyph-name="oe" unicode="&#x153;" horiz-adv-x="1640" 
d="M100 458v31.999c0 148.667 33.167 265 99.5 349s164.833 126 295.5 126c87.333 0 160.666 -19.667 219.999 -59s103.666 -95.666 132.999 -168.999c53.333 150 164.666 225 333.999 225c236.667 0 355 -153.333 355 -460v-32h-641v-12c0 -150.667 27 -257 81 -319
s142 -93 264 -93c102 0 198.333 11.333 289 34l10 -60c-92.667 -25.333 -194 -38 -304 -38c-102.667 0 -185.667 18.167 -249 54.5s-109.666 93.5 -138.999 171.5c-29.333 -72.667 -73.666 -128.5 -132.999 -167.5s-132.666 -58.5 -219.999 -58.5
c-130.667 0 -229.167 42.167 -295.5 126.5s-99.5 200.833 -99.5 349.5zM183 457.999c0 -130 26.1689 -231.167 78.502 -303.5s130.166 -108.5 233.499 -108.5s181.166 36.167 233.499 108.5s78.5 173.5 78.5 303.5v32c0 130.667 -26 231.834 -78 303.501
s-130 107.5 -234 107.5s-182 -35.833 -234 -107.5s-78 -172.834 -78 -303.501v-32zM896.002 526.999h565.999c-2 122.667 -25.5 215.167 -70.5 277.5s-114.833 93.5 -209.5 93.5c-96.667 0 -167.667 -31 -213 -93s-69.666 -154.667 -72.999 -278z" />
    <glyph glyph-name="Racute" unicode="&#x154;" horiz-adv-x="979" 
d="M148 0l0.00390625 1272c110.667 18.667 212 28 304 28c141.333 0 244.333 -29.5 309 -88.5s97 -151.833 97 -278.5v-30c0 -106.667 -26 -189 -78 -247s-133.333 -93.333 -244 -106c34.667 -23.333 69.5 -51.333 104.5 -84s71.167 -71.667 108.5 -117
s71.166 -98.333 101.499 -159s53.166 -124 68.499 -190h-82c-19.333 71.333 -47.833 140 -85.5 206s-77.334 121.667 -119.001 167s-81.334 82.833 -119.001 112.5s-70.5 50.167 -98.5 61.5c-47.333 0 -109 3.33301 -185 10v-557h-82zM230.004 623
c8.66699 -0.666992 39.667 -3.5 93 -8.5s96.333 -7.5 129 -7.5c111.333 0 192.333 24.333 243 73s76 123.667 76 225v28c0 103.333 -25.333 179.333 -76 228s-131.667 73 -243 73c-61.333 0 -135.333 -6.33301 -222 -19v-592zM426.004 1366l130 221h85l-153 -221h-62z" />
    <glyph glyph-name="racute" unicode="&#x155;" horiz-adv-x="609" 
d="M132 0v898c82.667 42.667 183 64 301 64c60 0 118 -6.66699 174 -20l-16 -60c-42 11.333 -91.667 17 -149 17c-92.667 0 -170 -14 -232 -42v-857h-78zM354 1117l130 220h86l-153 -220h-63z" />
    <glyph glyph-name="Rcommaaccent" unicode="&#x156;" horiz-adv-x="979" 
d="M148 0l0.00390625 1272c110.667 18.667 212 28 304 28c141.333 0 244.333 -29.5 309 -88.5s97 -151.833 97 -278.5v-30c0 -106.667 -26 -189 -78 -247s-133.333 -93.333 -244 -106c34.667 -23.333 69.5 -51.333 104.5 -84s71.167 -71.667 108.5 -117
s71.166 -98.333 101.499 -159s53.166 -124 68.499 -190h-82c-19.333 71.333 -47.833 140 -85.5 206s-77.334 121.667 -119.001 167s-81.334 82.833 -119.001 112.5s-70.5 50.167 -98.5 61.5c-47.333 0 -109 3.33301 -185 10v-557h-82zM230.004 623
c8.66699 -0.666992 39.667 -3.5 93 -8.5s96.333 -7.5 129 -7.5c111.333 0 192.333 24.333 243 73s76 123.667 76 225v28c0 103.333 -25.333 179.333 -76 228s-131.667 73 -243 73c-61.333 0 -135.333 -6.33301 -222 -19v-592zM385.004 -301l80 235h76l-103 -235h-53z" />
    <glyph glyph-name="rcommaaccent" unicode="&#x157;" horiz-adv-x="609" 
d="M132 0v898c82.667 42.667 183 64 301 64c60 0 118 -6.66699 174 -20l-16 -60c-42 11.333 -91.667 17 -149 17c-92.667 0 -170 -14 -232 -42v-857h-78zM226 -301l80 235h77l-103 -235h-54z" />
    <glyph glyph-name="Rcaron" unicode="&#x158;" horiz-adv-x="979" 
d="M148 0l0.00390625 1272c110.667 18.667 212 28 304 28c141.333 0 244.333 -29.5 309 -88.5s97 -151.833 97 -278.5v-30c0 -106.667 -26 -189 -78 -247s-133.333 -93.333 -244 -106c34.667 -23.333 69.5 -51.333 104.5 -84s71.167 -71.667 108.5 -117
s71.166 -98.333 101.499 -159s53.166 -124 68.499 -190h-82c-19.333 71.333 -47.833 140 -85.5 206s-77.334 121.667 -119.001 167s-81.334 82.833 -119.001 112.5s-70.5 50.167 -98.5 61.5c-47.333 0 -109 3.33301 -185 10v-557h-82zM230.004 623
c8.66699 -0.666992 39.667 -3.5 93 -8.5s96.333 -7.5 129 -7.5c111.333 0 192.333 24.333 243 73s76 123.667 76 225v28c0 103.333 -25.333 179.333 -76 228s-131.667 73 -243 73c-61.333 0 -135.333 -6.33301 -222 -19v-592zM256.004 1514l18 19l184 -123l183 123l18 -19
l-201 -164z" />
    <glyph glyph-name="rcaron" unicode="&#x159;" horiz-adv-x="609" 
d="M132 0v898c82.667 42.667 183 64 301 64c60 0 118 -6.66699 174 -20l-16 -60c-42 11.333 -91.667 17 -149 17c-92.667 0 -170 -14 -232 -42v-857h-78zM185 1264l18 20l183 -123l184 123l18 -20l-202 -163z" />
    <glyph glyph-name="Sacute" unicode="&#x15a;" horiz-adv-x="901" 
d="M80 23l10.998 61.001c149.333 -26 261 -39 335 -39c53.333 0 99.833 6.5 139.5 19.5s70.334 29.167 92.001 48.5s39.167 42.5 52.5 69.5s21.833 52 25.5 75s5.5 47.5 5.5 73.5c0 47.333 -7.33301 89.166 -22 125.499s-34.334 66 -59.001 89s-53.167 43.167 -85.5 60.5
s-66.166 32.333 -101.499 45l-106.5 38.5c-35.667 13 -69.667 28.333 -102 46s-60.833 38.167 -85.5 61.5s-44.334 53.333 -59.001 90s-22 79.334 -22 128.001c0 44 6.5 82.667 19.5 116s30.5 60.666 52.5 81.999s49.667 38.5 83 51.5s68.5 22.167 105.5 27.5
s78.5 8 124.5 8c96 0 199.667 -13.667 311 -41l-9 -60c-110.667 26 -211 39 -301 39c-45.333 0 -85 -3 -119 -9s-65.833 -16.833 -95.5 -32.5s-52.334 -38.5 -68.001 -68.5s-23.5 -67 -23.5 -111c0 -41.333 7.33301 -77.333 22 -108s34.334 -55.667 59.001 -75
s53.167 -36.5 85.5 -51.5s66.333 -28.667 102 -41s71.167 -25.333 106.5 -39s69.166 -30.5 101.499 -50.5s60.833 -43.333 85.5 -70s44.334 -61.167 59.001 -103.5s22 -90.833 22 -145.5c0 -50 -7 -95.667 -21 -137s-35.667 -78.333 -65 -111s-69.166 -58 -119.499 -76
s-109.5 -27 -177.5 -27c-60.667 0 -115.667 2.5 -165 7.5s-113.666 16.167 -192.999 33.5zM450.998 1366l130 221h85l-153 -221h-62z" />
    <glyph glyph-name="sacute" unicode="&#x15b;" horiz-adv-x="808" 
d="M84 12l8.99707 60.999c100 -18.667 195.333 -28 286 -28c44.667 0 83.834 4.5 117.501 13.5s59.667 20.167 78 33.5s33 29.166 44 47.499s18.167 35.166 21.5 50.499s5 31.666 5 48.999c0 44 -10 81.5 -30 112.5s-46 55.167 -78 72.5s-67.167 32.5 -105.5 45.5
l-115.5 39.5c-38.667 13.333 -74 28.833 -106 46.5s-58 42.834 -78 75.501s-30 71.667 -30 117c0 34 5.66699 63.833 17 89.5s26.5 46.334 45.5 62.001s42.833 28.334 71.5 38.001s58.334 16.167 89.001 19.5s65.334 5 104.001 5c85.333 0 175.666 -9 270.999 -27l-11 -61
c-92.667 18 -177.334 27 -254.001 27c-38 0 -70.833 -2 -98.5 -6s-54.167 -11 -79.5 -21s-44.5 -25.333 -57.5 -46s-19.5 -46 -19.5 -76c0 -32 7.83301 -59.833 23.5 -83.5s36.167 -42.167 61.5 -55.5s54.333 -26.333 87 -39s65.834 -23.667 99.501 -33
s66.834 -22.333 99.501 -39s61.667 -35.167 87 -55.5s45.833 -48.166 61.5 -83.499s23.5 -76.333 23.5 -123c0 -172 -116.333 -258 -349 -258c-78 0 -174.667 10 -290 30zM398.997 1117l130 220h85l-153 -220h-62z" />
    <glyph glyph-name="Scircumflex" unicode="&#x15c;" horiz-adv-x="901" 
d="M80 23l10.998 61.001c149.333 -26 261 -39 335 -39c53.333 0 99.833 6.5 139.5 19.5s70.334 29.167 92.001 48.5s39.167 42.5 52.5 69.5s21.833 52 25.5 75s5.5 47.5 5.5 73.5c0 47.333 -7.33301 89.166 -22 125.499s-34.334 66 -59.001 89s-53.167 43.167 -85.5 60.5
s-66.166 32.333 -101.499 45l-106.5 38.5c-35.667 13 -69.667 28.333 -102 46s-60.833 38.167 -85.5 61.5s-44.334 53.333 -59.001 90s-22 79.334 -22 128.001c0 44 6.5 82.667 19.5 116s30.5 60.666 52.5 81.999s49.667 38.5 83 51.5s68.5 22.167 105.5 27.5
s78.5 8 124.5 8c96 0 199.667 -13.667 311 -41l-9 -60c-110.667 26 -211 39 -301 39c-45.333 0 -85 -3 -119 -9s-65.833 -16.833 -95.5 -32.5s-52.334 -38.5 -68.001 -68.5s-23.5 -67 -23.5 -111c0 -41.333 7.33301 -77.333 22 -108s34.334 -55.667 59.001 -75
s53.167 -36.5 85.5 -51.5s66.333 -28.667 102 -41s71.167 -25.333 106.5 -39s69.166 -30.5 101.499 -50.5s60.833 -43.333 85.5 -70s44.334 -61.167 59.001 -103.5s22 -90.833 22 -145.5c0 -50 -7 -95.667 -21 -137s-35.667 -78.333 -65 -111s-69.166 -58 -119.499 -76
s-109.5 -27 -177.5 -27c-60.667 0 -115.667 2.5 -165 7.5s-113.666 16.167 -192.999 33.5zM279.998 1369l201 164l201 -164l-18 -19l-183 123l-184 -123z" />
    <glyph glyph-name="scircumflex" unicode="&#x15d;" horiz-adv-x="808" 
d="M84 12l8.99707 60.999c100 -18.667 195.333 -28 286 -28c44.667 0 83.834 4.5 117.501 13.5s59.667 20.167 78 33.5s33 29.166 44 47.499s18.167 35.166 21.5 50.499s5 31.666 5 48.999c0 44 -10 81.5 -30 112.5s-46 55.167 -78 72.5s-67.167 32.5 -105.5 45.5
l-115.5 39.5c-38.667 13.333 -74 28.833 -106 46.5s-58 42.834 -78 75.501s-30 71.667 -30 117c0 34 5.66699 63.833 17 89.5s26.5 46.334 45.5 62.001s42.833 28.334 71.5 38.001s58.334 16.167 89.001 19.5s65.334 5 104.001 5c85.333 0 175.666 -9 270.999 -27l-11 -61
c-92.667 18 -177.334 27 -254.001 27c-38 0 -70.833 -2 -98.5 -6s-54.167 -11 -79.5 -21s-44.5 -25.333 -57.5 -46s-19.5 -46 -19.5 -76c0 -32 7.83301 -59.833 23.5 -83.5s36.167 -42.167 61.5 -55.5s54.333 -26.333 87 -39s65.834 -23.667 99.501 -33
s66.834 -22.333 99.501 -39s61.667 -35.167 87 -55.5s45.833 -48.166 61.5 -83.499s23.5 -76.333 23.5 -123c0 -172 -116.333 -258 -349 -258c-78 0 -174.667 10 -290 30zM227.997 1120l201 164l201 -164l-17 -19l-184 122l-183 -122z" />
    <glyph glyph-name="Scedilla" unicode="&#x15e;" horiz-adv-x="901" 
d="M80 23l11 61c149.333 -26 261 -39 335 -39c53.333 0 99.833 6.5 139.5 19.5s70.334 29.167 92.001 48.5s39.167 42.5 52.5 69.5s21.833 52 25.5 75s5.5 47.5 5.5 73.5c0 47.333 -7.33301 89.166 -22 125.499s-34.334 66 -59.001 89s-53.167 43.167 -85.5 60.5
s-66.166 32.333 -101.499 45l-106.5 38.5c-35.667 13 -69.667 28.333 -102 46s-60.833 38.167 -85.5 61.5s-44.334 53.333 -59.001 90s-22 79.334 -22 128.001c0 44 6.5 82.667 19.5 116s30.5 60.666 52.5 81.999s49.667 38.5 83 51.5s68.5 22.167 105.5 27.5
s78.5 8 124.5 8c96 0 199.667 -13.667 311 -41l-9 -60c-110.667 26 -211 39 -301 39c-45.333 0 -85 -3 -119 -9s-65.833 -16.833 -95.5 -32.5s-52.334 -38.5 -68.001 -68.5s-23.5 -67 -23.5 -111c0 -41.333 7.33301 -77.333 22 -108s34.334 -55.667 59.001 -75
s53.167 -36.5 85.5 -51.5s66.333 -28.667 102 -41s71.167 -25.333 106.5 -39s69.166 -30.5 101.499 -50.5s60.833 -43.333 85.5 -70s44.334 -61.167 59.001 -103.5s22 -90.833 22 -145.5c0 -50 -7 -95.5 -21 -136.5s-35.5 -77.833 -64.5 -110.5s-68.5 -58 -118.5 -76
s-108.333 -27.333 -175 -28l-31 -59c41.333 0 76.333 -9.33301 105 -28s43 -46 43 -82c0 -41.333 -14.167 -71.333 -42.5 -90s-63.833 -28 -106.5 -28c-50 0 -91 10.333 -123 31l12 23c28 -16.667 61.333 -25 100 -25c29.333 0 53.5 6.83301 72.5 20.5
s28.5 35.834 28.5 66.501c0 58 -44.333 87 -133 87l43 84c-106 2 -216 15.667 -330 41z" />
    <glyph glyph-name="scedilla" unicode="&#x15f;" horiz-adv-x="808" 
d="M84 12l8.99707 60.998c100 -18.667 195.333 -28 286 -28c44.667 0 83.834 4.5 117.501 13.5s59.667 20.167 78 33.5s33 29.166 44 47.499s18.167 35.166 21.5 50.499s5 31.666 5 48.999c0 44 -10 81.5 -30 112.5s-46 55.167 -78 72.5s-67.167 32.5 -105.5 45.5
l-115.5 39.5c-38.667 13.333 -74 28.833 -106 46.5s-58 42.834 -78 75.501s-30 71.667 -30 117c0 34 5.66699 63.833 17 89.5s26.5 46.334 45.5 62.001s42.833 28.334 71.5 38.001s58.334 16.167 89.001 19.5s65.334 5 104.001 5c85.333 0 175.666 -9 270.999 -27l-11 -61
c-92.667 18 -177.334 27 -254.001 27c-38 0 -70.833 -2 -98.5 -6s-54.167 -11 -79.5 -21s-44.5 -25.333 -57.5 -46s-19.5 -46 -19.5 -76c0 -32 7.83301 -59.833 23.5 -83.5s36.167 -42.167 61.5 -55.5s54.333 -26.333 87 -39s65.834 -23.667 99.501 -33
s66.834 -22.333 99.501 -39s61.667 -35.167 87 -55.5s45.833 -48.166 61.5 -83.499s23.5 -76.333 23.5 -123c0 -167.333 -111.667 -253.333 -335 -258l-34 -66c41.333 0 76.333 -9.33301 105 -28s43 -46 43 -82c0 -41.333 -14.167 -71.333 -42.5 -90s-63.833 -28 -106.5 -28
c-50 0 -91 10.333 -123 31l12 23c28 -16.667 61.333 -25 100 -25c29.333 0 53.5 6.83301 72.5 20.5s28.5 35.834 28.5 66.501c0 58 -44.333 87 -133 87l48 91c-80.667 2.66699 -172 12.667 -274 30z" />
    <glyph glyph-name="Scaron" unicode="&#x160;" horiz-adv-x="901" 
d="M80 23l10.998 61.001c149.333 -26 261 -39 335 -39c53.333 0 99.833 6.5 139.5 19.5s70.334 29.167 92.001 48.5s39.167 42.5 52.5 69.5s21.833 52 25.5 75s5.5 47.5 5.5 73.5c0 47.333 -7.33301 89.166 -22 125.499s-34.334 66 -59.001 89s-53.167 43.167 -85.5 60.5
s-66.166 32.333 -101.499 45l-106.5 38.5c-35.667 13 -69.667 28.333 -102 46s-60.833 38.167 -85.5 61.5s-44.334 53.333 -59.001 90s-22 79.334 -22 128.001c0 44 6.5 82.667 19.5 116s30.5 60.666 52.5 81.999s49.667 38.5 83 51.5s68.5 22.167 105.5 27.5
s78.5 8 124.5 8c96 0 199.667 -13.667 311 -41l-9 -60c-110.667 26 -211 39 -301 39c-45.333 0 -85 -3 -119 -9s-65.833 -16.833 -95.5 -32.5s-52.334 -38.5 -68.001 -68.5s-23.5 -67 -23.5 -111c0 -41.333 7.33301 -77.333 22 -108s34.334 -55.667 59.001 -75
s53.167 -36.5 85.5 -51.5s66.333 -28.667 102 -41s71.167 -25.333 106.5 -39s69.166 -30.5 101.499 -50.5s60.833 -43.333 85.5 -70s44.334 -61.167 59.001 -103.5s22 -90.833 22 -145.5c0 -50 -7 -95.667 -21 -137s-35.667 -78.333 -65 -111s-69.166 -58 -119.499 -76
s-109.5 -27 -177.5 -27c-60.667 0 -115.667 2.5 -165 7.5s-113.666 16.167 -192.999 33.5zM280.998 1514l18 19l184 -123l183 123l18 -19l-201 -164z" />
    <glyph glyph-name="scaron" unicode="&#x161;" horiz-adv-x="808" 
d="M84 12l8.99707 60.999c100 -18.667 195.333 -28 286 -28c44.667 0 83.834 4.5 117.501 13.5s59.667 20.167 78 33.5s33 29.166 44 47.499s18.167 35.166 21.5 50.499s5 31.666 5 48.999c0 44 -10 81.5 -30 112.5s-46 55.167 -78 72.5s-67.167 32.5 -105.5 45.5
l-115.5 39.5c-38.667 13.333 -74 28.833 -106 46.5s-58 42.834 -78 75.501s-30 71.667 -30 117c0 34 5.66699 63.833 17 89.5s26.5 46.334 45.5 62.001s42.833 28.334 71.5 38.001s58.334 16.167 89.001 19.5s65.334 5 104.001 5c85.333 0 175.666 -9 270.999 -27l-11 -61
c-92.667 18 -177.334 27 -254.001 27c-38 0 -70.833 -2 -98.5 -6s-54.167 -11 -79.5 -21s-44.5 -25.333 -57.5 -46s-19.5 -46 -19.5 -76c0 -32 7.83301 -59.833 23.5 -83.5s36.167 -42.167 61.5 -55.5s54.333 -26.333 87 -39s65.834 -23.667 99.501 -33
s66.834 -22.333 99.501 -39s61.667 -35.167 87 -55.5s45.833 -48.166 61.5 -83.499s23.5 -76.333 23.5 -123c0 -172 -116.333 -258 -349 -258c-78 0 -174.667 10 -290 30zM229.997 1264l18 20l183 -123l183 123l18 -20l-201 -163z" />
    <glyph glyph-name="Tcommaaccent" unicode="&#x162;" horiz-adv-x="851" 
d="M11 1216v66h830v-66h-374v-1216h-82v1216h-374zM321 -301l80 235h76l-103 -235h-53z" />
    <glyph glyph-name="tcommaaccent" unicode="&#x163;" horiz-adv-x="479" 
d="M18 880l0.000976562 64h101v203h77v-203h215v-64h-215v-631c0 -57.333 10.667 -102.5 32 -135.5s53.333 -49.5 96 -49.5c45.333 0 84 5.33301 116 16l9 -60c-30.667 -13.333 -75.334 -20 -134.001 -20c-130.667 0 -196 82.667 -196 248v632h-101zM135.001 -301l80 235h77
l-103 -235h-54z" />
    <glyph glyph-name="Tcaron" unicode="&#x164;" horiz-adv-x="851" 
d="M11 1216v66h830v-66h-374v-1216h-82v1216h-374zM224 1519l18 20l184 -123l183 123l18 -20l-201 -164z" />
    <glyph glyph-name="tcaron" unicode="&#x165;" horiz-adv-x="733" 
d="M18 880l0.000976562 64h101v203h77v-203h215v-64h-215v-631c0 -57.333 10.667 -102.5 32 -135.5s53.333 -49.5 96 -49.5c45.333 0 84 5.33301 116 16l9 -60c-30.667 -13.333 -75.334 -20 -134.001 -20c-130.667 0 -196 82.667 -196 248v632h-101z" />
    <glyph glyph-name="Tbar" unicode="&#x166;" horiz-adv-x="911" 
d="M11 1209v71h890v-71h-404v-374h164v-62h-164v-773h-84v773h-160v62h160v374h-402z" />
    <glyph glyph-name="tbar" unicode="&#x167;" horiz-adv-x="479" 
d="M16 719l0.000976562 61h103v100h-101v64h101v203h77v-203h215v-64h-215v-100h244v-61h-244v-470c0 -57.333 10.667 -102.5 32 -135.5s53.333 -49.5 96 -49.5c45.333 0 84 5.33301 116 16l9 -60c-30.667 -13.333 -75.334 -20 -134.001 -20
c-130.667 0 -196 82.667 -196 248v471h-103z" />
    <glyph glyph-name="Utilde" unicode="&#x168;" horiz-adv-x="1109" 
d="M148 402l0.000976562 880h80v-878c0 -109.333 26.5 -195.333 79.5 -258s135.167 -94 246.5 -94c53.333 0 113.666 3.66699 180.999 11s116.333 14.666 147 21.999v1197h80v-1246c-52.667 -14 -117.667 -26.5 -195 -37.5s-148.333 -16.5 -213 -16.5
c-139.333 0 -241.833 36.833 -307.5 110.5s-98.5 176.834 -98.5 309.501zM354.001 1403c28.667 56 69.666 84 122.999 84c28.667 0 59 -12.167 91 -36.5s57.667 -36.5 77 -36.5c34 0 59.333 14.333 76 43l34 -7c-25.333 -57.333 -64 -86 -116 -86
c-21.333 0 -41.666 6 -60.999 18s-37.833 24.167 -55.5 36.5s-35.167 18.5 -52.5 18.5c-35.333 0 -63.333 -14.333 -84 -43z" />
    <glyph glyph-name="utilde" unicode="&#x169;" horiz-adv-x="959" 
d="M132 338l-0.000976562 606h76v-602c0 -92 19.667 -164 59 -216s101 -78 185 -78c49.333 0 104.5 5.16699 165.5 15.5s105.833 20.5 134.5 30.5v850h76v-898c-44.667 -16.667 -103.167 -31.5 -175.5 -44.5s-139.166 -19.5 -200.499 -19.5
c-110 0 -190.833 31.167 -242.5 93.5s-77.5 149.833 -77.5 262.5zM277.999 1154c28.667 56 69.666 84 122.999 84c18.667 0 36 -3.83301 52 -11.5s29 -16 39 -25s21.833 -17.333 35.5 -25s27.167 -11.5 40.5 -11.5c35.333 0 61 14 77 42l34 -7
c-25.333 -56.667 -64 -85 -116 -85c-21.333 0 -41.666 6.16699 -60.999 18.5l-55.5 36.5c-17.667 12 -35.167 18 -52.5 18c-35.333 0 -63.333 -14.333 -84 -43z" />
    <glyph glyph-name="Umacron" unicode="&#x16a;" horiz-adv-x="1109" 
d="M148 402l0.000976562 880h80v-878c0 -109.333 26.5 -195.333 79.5 -258s135.167 -94 246.5 -94c53.333 0 113.666 3.66699 180.999 11s116.333 14.666 147 21.999v1197h80v-1246c-52.667 -14 -117.667 -26.5 -195 -37.5s-148.333 -16.5 -213 -16.5
c-139.333 0 -241.833 36.833 -307.5 110.5s-98.5 176.834 -98.5 309.501zM351.001 1366v60h399v-60h-399z" />
    <glyph glyph-name="umacron" unicode="&#x16b;" horiz-adv-x="959" 
d="M132 338l-0.000976562 606h76v-602c0 -92 19.667 -164 59 -216s101 -78 185 -78c49.333 0 104.5 5.16699 165.5 15.5s105.833 20.5 134.5 30.5v850h76v-898c-44.667 -16.667 -103.167 -31.5 -175.5 -44.5s-139.166 -19.5 -200.499 -19.5
c-110 0 -190.833 31.167 -242.5 93.5s-77.5 149.833 -77.5 262.5zM273.999 1117v60h399v-60h-399z" />
    <glyph glyph-name="Ubreve" unicode="&#x16c;" horiz-adv-x="1109" 
d="M148 402l0.000976562 880h80v-878c0 -109.333 26.5 -195.333 79.5 -258s135.167 -94 246.5 -94c53.333 0 113.666 3.66699 180.999 11s116.333 14.666 147 21.999v1197h80v-1246c-52.667 -14 -117.667 -26.5 -195 -37.5s-148.333 -16.5 -213 -16.5
c-139.333 0 -241.833 36.833 -307.5 110.5s-98.5 176.834 -98.5 309.501zM354.001 1528h55.999c0 -40 13.5 -68.667 40.5 -86s59.833 -26 98.5 -26s71.334 8.66699 98.001 26s40 46 40 86h54c0 -55.333 -18.5 -96.166 -55.5 -122.499s-82.5 -39.5 -136.5 -39.5
s-100 13.167 -138 39.5s-57 67.166 -57 122.499z" />
    <glyph glyph-name="ubreve" unicode="&#x16d;" horiz-adv-x="959" 
d="M132 338l-0.000976562 606h76v-602c0 -92 19.667 -164 59 -216s101 -78 185 -78c49.333 0 104.5 5.16699 165.5 15.5s105.833 20.5 134.5 30.5v850h76v-898c-44.667 -16.667 -103.167 -31.5 -175.5 -44.5s-139.166 -19.5 -200.499 -19.5
c-110 0 -190.833 31.167 -242.5 93.5s-77.5 149.833 -77.5 262.5zM277.999 1279h55c0 -40 13.5 -68.833 40.5 -86.5s59.833 -26.5 98.5 -26.5s71.5 8.83301 98.5 26.5s40.5 46.5 40.5 86.5h53c0 -55.333 -18.5 -96.166 -55.5 -122.499s-82.5 -39.5 -136.5 -39.5
s-99.833 13.167 -137.5 39.5s-56.5 67.166 -56.5 122.499z" />
    <glyph glyph-name="Uring" unicode="&#x16e;" horiz-adv-x="1109" 
d="M148 402l0.000976562 880h80v-878c0 -109.333 26.5 -195.333 79.5 -258s135.167 -94 246.5 -94c53.333 0 113.666 3.66699 180.999 11s116.333 14.666 147 21.999v1197h80v-1246c-52.667 -14 -117.667 -26.5 -195 -37.5s-148.333 -16.5 -213 -16.5
c-139.333 0 -241.833 36.833 -307.5 110.5s-98.5 176.834 -98.5 309.501zM408.001 1473c0 36.667 13.833 65.334 41.5 86.001s61.167 31 100.5 31c38.667 0 71.834 -10.333 99.501 -31s41.5 -49.334 41.5 -86.001c0 -38 -13.833 -67.167 -41.5 -87.5
s-60.834 -30.5 -99.501 -30.5s-72 10.167 -100 30.5s-42 49.5 -42 87.5zM467.001 1473c0 -23.333 8.5 -42 25.5 -56s36.167 -21 57.5 -21c20.667 0 39.5 7 56.5 21s25.5 32.667 25.5 56c0 24 -8.5 42.667 -25.5 56s-35.833 20 -56.5 20c-22 0 -41.333 -6.66699 -58 -20
s-25 -32 -25 -56z" />
    <glyph glyph-name="uring" unicode="&#x16f;" horiz-adv-x="959" 
d="M132 338l-0.000976562 606h76v-602c0 -92 19.667 -164 59 -216s101 -78 185 -78c49.333 0 104.5 5.16699 165.5 15.5s105.833 20.5 134.5 30.5v850h76v-898c-44.667 -16.667 -103.167 -31.5 -175.5 -44.5s-139.166 -19.5 -200.499 -19.5
c-110 0 -190.833 31.167 -242.5 93.5s-77.5 149.833 -77.5 262.5zM330.999 1223c0 37.333 14 66.334 42 87.001s61.667 31 101 31c38 0 70.833 -10.5 98.5 -31.5s41.5 -49.833 41.5 -86.5c0 -38 -13.667 -67 -41 -87s-60.333 -30 -99 -30s-72.167 10.167 -100.5 30.5
s-42.5 49.166 -42.5 86.499zM389.999 1223c0 -23.333 8.66797 -41.833 26.001 -55.5s36.666 -20.5 57.999 -20.5c20.667 0 39.5 6.83301 56.5 20.5s25.5 32.167 25.5 55.5c0 24 -8.5 42.833 -25.5 56.5s-35.833 20.5 -56.5 20.5c-22 0 -41.5 -6.83301 -58.5 -20.5
s-25.5 -32.5 -25.5 -56.5z" />
    <glyph glyph-name="Uhungarumlaut" unicode="&#x170;" horiz-adv-x="1109" 
d="M148 402l0.000976562 880h80v-878c0 -109.333 26.5 -195.333 79.5 -258s135.167 -94 246.5 -94c53.333 0 113.666 3.66699 180.999 11s116.333 14.666 147 21.999v1197h80v-1246c-52.667 -14 -117.667 -26.5 -195 -37.5s-148.333 -16.5 -213 -16.5
c-139.333 0 -241.833 36.833 -307.5 110.5s-98.5 176.834 -98.5 309.501zM470.001 1366l119 208h79l-134 -208h-64zM561.001 1366l119 208h79l-134 -208h-64z" />
    <glyph glyph-name="uhungarumlaut" unicode="&#x171;" horiz-adv-x="959" 
d="M132 338l-0.000976562 606h76v-602c0 -92 19.667 -164 59 -216s101 -78 185 -78c49.333 0 104.5 5.16699 165.5 15.5s105.833 20.5 134.5 30.5v850h76v-898c-44.667 -16.667 -103.167 -31.5 -175.5 -44.5s-139.166 -19.5 -200.499 -19.5
c-110 0 -190.833 31.167 -242.5 93.5s-77.5 149.833 -77.5 262.5zM393.999 1117l119 208h78l-133 -208h-64zM483.999 1117l120 208h78l-133 -208h-65z" />
    <glyph glyph-name="Uogonek" unicode="&#x172;" horiz-adv-x="1109" 
d="M148 402l0.00292969 880h80v-878c0 -109.333 26.5 -195.333 79.5 -258s135.167 -94 246.5 -94c53.333 0 113.666 3.66699 180.999 11s116.333 14.666 147 21.999v1197h80v-1246c-51.333 -13.333 -111.333 -25.333 -180 -36c-35.333 -18 -62.833 -41 -82.5 -69
s-29.5 -57.667 -29.5 -89c0 -30 9.66699 -56 29 -78s47.666 -33 84.999 -33c47.333 0 91 11.333 131 34l13 -16c-47.333 -36.667 -102 -55 -164 -55c-53.333 0 -94.5 13 -123.5 39s-43.5 59.333 -43.5 100c0 64 35.333 116.667 106 158c-62.667 -6 -112.334 -9 -149.001 -9
c-139.333 0 -241.833 36.833 -307.5 110.5s-98.5 176.834 -98.5 309.501z" />
    <glyph glyph-name="uogonek" unicode="&#x173;" horiz-adv-x="959" 
d="M132 338l0.000976562 605.999h76v-602c0 -92 19.667 -164 59 -216s101 -78 185 -78c49.333 0 104.5 5.16699 165.5 15.5s105.833 20.5 134.5 30.5v850h76v-898c-42.667 -14.667 -76.167 -37.167 -100.5 -67.5s-36.5 -62.833 -36.5 -97.5c0 -30 9.66699 -56 29 -78
s47.666 -33 84.999 -33c48 0 92 11.333 132 34l12 -16c-47.333 -36.667 -102 -55 -164 -55c-53.333 0 -94.5 13 -123.5 39s-43.5 59.333 -43.5 100c0 52.667 26 98.334 78 137.001c-100 -18 -181.333 -27 -244 -27c-110 0 -190.833 31.167 -242.5 93.5
s-77.5 149.833 -77.5 262.5z" />
    <glyph glyph-name="Wcircumflex" unicode="&#x174;" horiz-adv-x="1706" 
d="M78 1282l83.9951 -0.00390625c14 -166.667 36.167 -325.334 66.5 -476.001s62.333 -274.5 96 -371.5s64.334 -175.5 92.001 -235.5s50.834 -100.667 69.501 -122c18.667 21.333 41.834 62 69.501 122s58.5 138.667 92.5 236s66.167 221.333 96.5 372s52.833 309 67.5 475
h82c14.667 -166.667 37.167 -325.334 67.5 -476.001s62.166 -274.5 95.499 -371.5s64 -175.667 92 -236s51 -100.833 69 -121.5c18.667 21.333 41.834 62 69.501 122s58.5 138.667 92.5 236s66.167 221.333 96.5 372s52.833 309 67.5 475h84
c-11.333 -143.333 -29.666 -282 -54.999 -416s-52.166 -247.667 -80.499 -341s-58.333 -178.666 -90 -255.999s-59.167 -136.666 -82.5 -177.999s-43 -71.666 -59 -90.999h-84c-18 20 -40.5 57.333 -67.5 112s-57.167 125.167 -90.5 211.5s-65.333 194.666 -96 324.999
s-54 266.166 -70 407.499c-16.667 -141.333 -40.5 -277.166 -71.5 -407.499s-63 -238.666 -96 -324.999s-63.167 -156.833 -90.5 -211.5s-50 -92 -68 -112h-82c-21.333 26 -47.833 70.333 -79.5 133s-67.167 145.834 -106.5 249.501s-75.833 235.334 -109.5 395.001
s-57.5 327.834 -71.5 504.501zM649.995 1369l201 164l201 -164l-17 -19l-184 123l-183 -123z" />
    <glyph glyph-name="wcircumflex" unicode="&#x175;" horiz-adv-x="1298" 
d="M64 944l79.998 0.000976562c10.667 -118.667 26.834 -232.167 48.501 -340.5s44.667 -197.833 69 -268.5s46.333 -128.167 66 -172.5s35.834 -74.166 48.501 -89.499c12.667 15.333 29 45.166 49 89.499s42.167 102 66.5 173s47.5 160.667 69.5 269s38 221.5 48 339.5h80
c10.667 -118.667 26.834 -232.167 48.501 -340.5s44.667 -197.833 69 -268.5s46.333 -128.167 66 -172.5s35.834 -74.166 48.501 -89.499c13.333 15.333 30 45.166 50 89.499s42 102 66 173s46.833 160.667 68.5 269s37.834 221.5 48.501 339.5h82
c-10.667 -128.667 -28.5 -251.334 -53.5 -368.001s-52.167 -213.334 -81.5 -290.001s-55.666 -138.5 -78.999 -185.5s-43.333 -80.5 -60 -100.5h-80c-14.667 19.333 -31.5 48 -50.5 86s-40.833 88.667 -65.5 152s-47.834 142.333 -69.501 237s-37.834 194.667 -48.501 300
c-10.667 -105.333 -26.834 -205.333 -48.501 -300s-44.834 -173.667 -69.501 -237s-46.167 -113.833 -64.5 -151.5s-34.5 -66.5 -48.5 -86.5h-82c-16 20.667 -35.333 54.167 -58 100.5s-48.667 108 -78 185s-56.5 173.833 -81.5 290.5s-42.833 239.334 -53.5 368.001z
M444.998 1120l201 164l202 -164l-18 -19l-184 122l-183 -122z" />
    <glyph glyph-name="Ycircumflex" unicode="&#x176;" horiz-adv-x="947" 
d="M48 1282l84.001 -0.00195312c12 -77.333 30 -152.5 54 -225.5s49 -135.5 75 -187.5s53.5 -99.167 82.5 -141.5s54.333 -75.166 76 -98.499s39.834 -40 54.501 -50c19.333 12.667 43.666 36.834 72.999 72.501s61.833 82 97.5 139s69.5 129.333 101.5 217
s55.667 179.167 71 274.5h82c-12 -86 -31 -169.167 -57 -249.5s-53.5 -148.5 -82.5 -204.5s-60.333 -107.833 -94 -155.5s-62.334 -84.167 -86.001 -109.5s-44.834 -45.666 -63.501 -60.999v-502h-85v502c-18.667 15.333 -39.667 35.5 -63 60.5s-52 61.667 -86 110
s-65.5 100.166 -94.5 155.499s-56.667 123.333 -83 204s-45.166 164 -56.499 250zM271.001 1369l201 164l201 -164l-18 -19l-183 123l-183 -123z" />
    <glyph glyph-name="ycircumflex" unicode="&#x177;" horiz-adv-x="876" 
d="M102 942l81.001 0.000976562c12 -116.667 30.667 -229 56 -337s52 -197.333 80 -268s54 -128.667 78 -174s43.667 -74.666 59 -87.999l2 -7c84 130 148.833 262.667 194.5 398s68.5 281.666 68.5 438.999v39h77v-41c0 -84.667 -6.33301 -166.167 -19 -244.5
s-32.834 -154.5 -60.501 -228.5s-56.5 -141.833 -86.5 -203.5s-69.5 -128.834 -118.5 -201.501s-93.333 -135.5 -133 -188.5l-152.5 -196.5l-57 39c115.333 148 196.666 256.333 243.999 325c-20 22 -43.667 57.167 -71 105.5s-57.5 111 -90.5 188s-63.667 172.667 -92 287
s-48.166 233.5 -59.499 357.5zM253.001 1120l201 164l201 -164l-17 -19l-184 122l-183 -122z" />
    <glyph glyph-name="Ydieresis" unicode="&#x178;" horiz-adv-x="947" 
d="M48 1282l84.001 -0.00195312c12 -77.333 30 -152.5 54 -225.5s49 -135.5 75 -187.5s53.5 -99.167 82.5 -141.5s54.333 -75.166 76 -98.499s39.834 -40 54.501 -50c19.333 12.667 43.666 36.834 72.999 72.501s61.833 82 97.5 139s69.5 129.333 101.5 217
s55.667 179.167 71 274.5h82c-12 -86 -31 -169.167 -57 -249.5s-53.5 -148.5 -82.5 -204.5s-60.333 -107.833 -94 -155.5s-62.334 -84.167 -86.001 -109.5s-44.834 -45.666 -63.501 -60.999v-502h-85v502c-18.667 15.333 -39.667 35.5 -63 60.5s-52 61.667 -86 110
s-65.5 100.166 -94.5 155.499s-56.667 123.333 -83 204s-45.166 164 -56.499 250zM269.001 1366v135h76v-135h-76zM602.001 1366v135h77v-135h-77z" />
    <glyph glyph-name="Zacute" unicode="&#x179;" horiz-adv-x="1022" 
d="M100 0v178c0 46.667 8.16699 91 24.5 133s38.333 79.667 66 113s59.5 65.666 95.5 96.999s74 61 114 89l119.5 84c39.667 28 77.5 57.5 113.5 88.5s67.833 63 95.5 96s49.667 70.333 66 112s24.5 85.5 24.5 131.5v89h-700v75h780v-175
c0 -50.667 -8.16699 -98.667 -24.5 -144s-38.333 -85.666 -66 -120.999s-59.5 -69.333 -95.5 -102s-73.833 -63.167 -113.5 -91.5l-118.5 -84.5c-39.333 -28 -77 -56.667 -113 -86s-67.833 -59.666 -95.5 -90.999s-49.667 -66.333 -66 -105s-24.5 -79.334 -24.5 -122.001
v-89h737v-75h-819zM486 1366l130 221h86l-153 -221h-63z" />
    <glyph glyph-name="zacute" unicode="&#x17a;" horiz-adv-x="817" 
d="M85 0v143.998c0 43.333 10.167 83.833 30.5 121.5s46.833 70.5 79.5 98.5s68.667 55.167 108 81.5l118 78c39.333 25.667 75.333 52.167 108 79.5s59.167 58.833 79.5 94.5s30.5 73.834 30.5 114.501v62h-539v70h619v-141c0 -46 -10.167 -89.167 -30.5 -129.5
s-47 -75.333 -80 -105s-69.333 -58 -109 -85l-118.5 -79c-39.333 -25.667 -75.5 -51.5 -108.5 -77.5s-59.667 -55.667 -80 -89s-30.5 -68.666 -30.5 -105.999v-63h570v-69h-647zM383 1117l130 220h85l-153 -220h-62z" />
    <glyph glyph-name="Zdotaccent" unicode="&#x17b;" horiz-adv-x="1022" 
d="M100 0v178c0 46.667 8.16699 91 24.5 133s38.333 79.667 66 113s59.5 65.666 95.5 96.999s74 61 114 89l119.5 84c39.667 28 77.5 57.5 113.5 88.5s67.833 63 95.5 96s49.667 70.333 66 112s24.5 85.5 24.5 131.5v89h-700v75h780v-175
c0 -50.667 -8.16699 -98.667 -24.5 -144s-38.333 -85.666 -66 -120.999s-59.5 -69.333 -95.5 -102s-73.833 -63.167 -113.5 -91.5l-118.5 -84.5c-39.333 -28 -77 -56.667 -113 -86s-67.833 -59.666 -95.5 -90.999s-49.667 -66.333 -66 -105s-24.5 -79.334 -24.5 -122.001
v-89h737v-75h-819zM479 1366v137h78v-137h-78z" />
    <glyph glyph-name="zdotaccent" unicode="&#x17c;" horiz-adv-x="817" 
d="M85 0v143.998c0 43.333 10.167 83.833 30.5 121.5s46.833 70.5 79.5 98.5s68.667 55.167 108 81.5l118 78c39.333 25.667 75.333 52.167 108 79.5s59.167 58.833 79.5 94.5s30.5 73.834 30.5 114.501v62h-539v70h619v-141c0 -46 -10.167 -89.167 -30.5 -129.5
s-47 -75.333 -80 -105s-69.333 -58 -109 -85l-118.5 -79c-39.333 -25.667 -75.5 -51.5 -108.5 -77.5s-59.667 -55.667 -80 -89s-30.5 -68.666 -30.5 -105.999v-63h570v-69h-647zM374 1117v137h78v-137h-78z" />
    <glyph glyph-name="Zcaron" unicode="&#x17d;" horiz-adv-x="1022" 
d="M100 0v178c0 46.667 8.16699 91 24.5 133s38.333 79.667 66 113s59.5 65.666 95.5 96.999s74 61 114 89l119.5 84c39.667 28 77.5 57.5 113.5 88.5s67.833 63 95.5 96s49.667 70.333 66 112s24.5 85.5 24.5 131.5v89h-700v75h780v-175
c0 -50.667 -8.16699 -98.667 -24.5 -144s-38.333 -85.666 -66 -120.999s-59.5 -69.333 -95.5 -102s-73.833 -63.167 -113.5 -91.5l-118.5 -84.5c-39.333 -28 -77 -56.667 -113 -86s-67.833 -59.666 -95.5 -90.999s-49.667 -66.333 -66 -105s-24.5 -79.334 -24.5 -122.001
v-89h737v-75h-819zM317 1514l18 19l183 -123l184 123l17 -19l-201 -164z" />
    <glyph glyph-name="zcaron" unicode="&#x17e;" horiz-adv-x="817" 
d="M85 0v143.998c0 43.333 10.167 83.833 30.5 121.5s46.833 70.5 79.5 98.5s68.667 55.167 108 81.5l118 78c39.333 25.667 75.333 52.167 108 79.5s59.167 58.833 79.5 94.5s30.5 73.834 30.5 114.501v62h-539v70h619v-141c0 -46 -10.167 -89.167 -30.5 -129.5
s-47 -75.333 -80 -105s-69.333 -58 -109 -85l-118.5 -79c-39.333 -25.667 -75.5 -51.5 -108.5 -77.5s-59.667 -55.667 -80 -89s-30.5 -68.666 -30.5 -105.999v-63h570v-69h-647zM214 1264l18 20l183 -123l183 123l18 -20l-201 -163z" />
    <glyph glyph-name="longs" unicode="&#x17f;" horiz-adv-x="546" 
d="M-5 880l-0.000976562 64h117v139c0 77.333 18 137.333 54 180s89.333 64 160 64c57.333 0 109 -7.66699 155 -23l-13 -59c-39.333 12 -82.666 18 -129.999 18c-98 0 -147 -60.667 -147 -182v-137h190v-64h-190v-880h-79v880h-117z" />
    <glyph glyph-name="florin" unicode="&#x192;" horiz-adv-x="546" 
d="M-5 880l-0.000976562 64h117v139c0 77.333 18 137.333 54 180s89.333 64 160 64c57.333 0 109 -7.66699 155 -23l-13 -59c-39.333 12 -82.666 18 -129.999 18c-98 0 -147 -60.667 -147 -182v-137h190v-64h-190v-880h-79v880h-117z" />
    <glyph glyph-name="AEacute" unicode="&#x1fc;" horiz-adv-x="1654" 
d="M78 0c12 143.333 31.332 282.004 57.999 416.004s55 247.667 85 341s62 178.666 96 255.999s63.333 136.666 88 177.999s45.667 71.666 63 90.999h82c38.667 -44.667 87.834 -132.667 147.501 -264s111.5 -292 155.5 -482c44 89.333 134.333 146.333 271 171
c-139.333 37.333 -209 125.666 -209 264.999v24c0 106 34.667 183.167 104 231.5s178.333 72.5 327 72.5c104 0 190.667 -6.66699 260 -20l-10 -58c-86.667 10.667 -165 16 -235 16c-124 0 -214.667 -19.333 -272 -58s-86 -100 -86 -184v-22
c0 -82 26.667 -143.167 80 -183.5s138 -60.5 254 -60.5h81v-62h-95c-146 0 -251.667 -24 -317 -72s-98 -123.667 -98 -227v-25c0 -102 33.333 -177.167 100 -225.5s173 -72.5 319 -72.5c90.667 0 185.667 7.33301 285 22l7 -63c-90.667 -15.333 -192.667 -23 -306 -23
c-177.333 0 -305 32 -383 96l7 -78h-82c-14 147.333 -32.333 280.333 -55 399h-585c-26 -136 -44.333 -269 -55 -399h-82zM229.999 467.004l555 -0.000976562c-39.333 191.333 -86.5 353.333 -141.5 486s-99.833 217.334 -134.5 254.001
c-34.667 -36.667 -79.5 -121.167 -134.5 -253.5s-103.167 -294.5 -144.5 -486.5zM832.999 1353l130 221h86l-153 -221h-63z" />
    <glyph glyph-name="aeacute" unicode="&#x1fd;" horiz-adv-x="1535" 
d="M75 249v20c0 83.333 30.833 147.833 92.5 193.5s148.834 68.5 261.501 68.5c87.333 0 179.333 -16.667 276 -50v221c0 63.333 -18.333 111.833 -55 145.5s-96.667 50.5 -180 50.5c-92.667 0 -195.334 -12 -308.001 -36l-12 60c43.333 10.667 96.833 20 160.5 28
s119.834 12 168.501 12c160.667 0 257 -54.667 289 -164c60.667 109.333 163.334 164 308.001 164c122 0 211.5 -39 268.5 -117s85.5 -192.333 85.5 -343v-32h-641v-12c0 -150.667 27 -257 81 -319s142 -93 264 -93c102 0 198.333 11.333 289 34l11 -60
c-92.667 -25.333 -194.334 -38 -305.001 -38c-166.667 0 -282.334 48.667 -347.001 146v-89c-89.333 -38 -199.333 -57 -330 -57c-45.333 0 -86.333 2.66699 -123 8s-71 14.333 -103 27s-59 29 -81 49s-39.167 45.5 -51.5 76.5s-18.5 66.5 -18.5 106.5zM158 249
c0 -74.667 25.333 -128.833 76 -162.5s124.667 -50.5 222 -50.5c88 0 171 13 249 39v349c-25.333 12 -61.5 23 -108.5 33s-98.5 15 -154.5 15c-189.333 0 -284 -70 -284 -210v-13zM778 1013l130 221h86l-153 -221h-63zM789 527.001h566.002
c-2 122.667 -25.333 215.167 -70 277.5s-114.334 93.5 -209.001 93.5c-96.667 0 -167.834 -31 -213.501 -93s-70.167 -154.667 -73.5 -278z" />
    <glyph glyph-name="Oslashacute" unicode="&#x1fe;" horiz-adv-x="1173" 
d="M84 623l-0.000976562 43.001c0 201.333 41.833 357.333 125.5 468s209.834 166 378.501 166c68 0 132.667 -11.333 194 -34l19 52h79l-32 -84c80 -47.333 140.333 -119.5 181 -216.5s61 -214.167 61 -351.5v-43c0 -201.333 -42.167 -358.5 -126.5 -471.5
s-209.5 -169.5 -375.5 -169.5c-70 0 -135.333 10.667 -196 32l-20 -51h-78l32 83c-161.333 95.333 -242 287.666 -242 576.999zM172.999 623.001c0 -247.333 60 -415.333 180 -504l404 1081c-48.667 21.333 -105 32 -169 32c-276.667 0 -415 -188.667 -415 -566v-43z
M416.999 82.001c48.667 -21.333 105.667 -31.999 171 -31.999c137.333 0 240.5 50.167 309.5 150.5s103.5 241.166 103.5 422.499v43c0 245.333 -60 411 -180 497zM551.999 1366l130 221h86l-154 -221h-62z" />
    <glyph glyph-name="oslashacute" unicode="&#x1ff;" horiz-adv-x="990" 
d="M100 458v32c0 148.667 33.167 265 99.5 349s164.833 126 295.5 126c44 0 87.333 -6 130 -18l103 266h59l-110 -285c70 -33.333 123 -87.833 159 -163.5s54 -167.167 54 -274.5v-32c0 -148.667 -33.5 -265.167 -100.5 -349.5s-165.167 -126.5 -294.5 -126.5
c-60.667 0 -117.667 10.667 -171 32l-107 -279h-57l116 304c-117.333 74 -176 213.667 -176 419zM183 458c0 -164 40 -280.332 120 -348.999l299 776c-31.333 10.667 -67 16 -107 16c-104 0 -182 -35.833 -234 -107.5s-78 -172.834 -78 -303.501v-32zM349 78.001
c41.333 -21.333 90.001 -32 146.001 -32c103.333 0 181.166 36.167 233.499 108.5s78.5 173.5 78.5 303.5v32c0 188 -51.667 312 -155 372zM461.001 1118l130 221h86l-153 -221h-63z" />
    <glyph glyph-name="Scommaaccent" unicode="&#x218;" horiz-adv-x="901" 
d="M80 23l10.998 61.001c149.333 -26 261 -39 335 -39c53.333 0 99.833 6.5 139.5 19.5s70.334 29.167 92.001 48.5s39.167 42.5 52.5 69.5s21.833 52 25.5 75s5.5 47.5 5.5 73.5c0 47.333 -7.33301 89.166 -22 125.499s-34.334 66 -59.001 89s-53.167 43.167 -85.5 60.5
s-66.166 32.333 -101.499 45l-106.5 38.5c-35.667 13 -69.667 28.333 -102 46s-60.833 38.167 -85.5 61.5s-44.334 53.333 -59.001 90s-22 79.334 -22 128.001c0 44 6.5 82.667 19.5 116s30.5 60.666 52.5 81.999s49.667 38.5 83 51.5s68.5 22.167 105.5 27.5
s78.5 8 124.5 8c96 0 199.667 -13.667 311 -41l-9 -60c-110.667 26 -211 39 -301 39c-45.333 0 -85 -3 -119 -9s-65.833 -16.833 -95.5 -32.5s-52.334 -38.5 -68.001 -68.5s-23.5 -67 -23.5 -111c0 -41.333 7.33301 -77.333 22 -108s34.334 -55.667 59.001 -75
s53.167 -36.5 85.5 -51.5s66.333 -28.667 102 -41s71.167 -25.333 106.5 -39s69.166 -30.5 101.499 -50.5s60.833 -43.333 85.5 -70s44.334 -61.167 59.001 -103.5s22 -90.833 22 -145.5c0 -50 -7 -95.667 -21 -137s-35.667 -78.333 -65 -111s-69.166 -58 -119.499 -76
s-109.5 -27 -177.5 -27c-60.667 0 -115.667 2.5 -165 7.5s-113.666 16.167 -192.999 33.5zM357.998 -300.999l80 235h77l-104 -235h-53z" />
    <glyph glyph-name="scommaaccent" unicode="&#x219;" horiz-adv-x="808" 
d="M84 12l8.99707 60.999c100 -18.667 195.333 -28 286 -28c44.667 0 83.834 4.5 117.501 13.5s59.667 20.167 78 33.5s33 29.166 44 47.499s18.167 35.166 21.5 50.499s5 31.666 5 48.999c0 44 -10 81.5 -30 112.5s-46 55.167 -78 72.5s-67.167 32.5 -105.5 45.5
l-115.5 39.5c-38.667 13.333 -74 28.833 -106 46.5s-58 42.834 -78 75.501s-30 71.667 -30 117c0 34 5.66699 63.833 17 89.5s26.5 46.334 45.5 62.001s42.833 28.334 71.5 38.001s58.334 16.167 89.001 19.5s65.334 5 104.001 5c85.333 0 175.666 -9 270.999 -27l-11 -61
c-92.667 18 -177.334 27 -254.001 27c-38 0 -70.833 -2 -98.5 -6s-54.167 -11 -79.5 -21s-44.5 -25.333 -57.5 -46s-19.5 -46 -19.5 -76c0 -32 7.83301 -59.833 23.5 -83.5s36.167 -42.167 61.5 -55.5s54.333 -26.333 87 -39s65.834 -23.667 99.501 -33
s66.834 -22.333 99.501 -39s61.667 -35.167 87 -55.5s45.833 -48.166 61.5 -83.499s23.5 -76.333 23.5 -123c0 -172 -116.333 -258 -349 -258c-78 0 -174.667 10 -290 30zM325.997 -301.001l80 235h77l-104 -235h-53z" />
    <glyph glyph-name="uni0237" unicode="&#x237;" horiz-adv-x="345" 
d="M-128 -365l14 60c38 -10.667 72 -16 102 -16c46 0 82 13.833 108 41.5s39 69.167 39 124.5v1099h79v-1101c0 -72 -18.5 -128 -55.5 -168s-91.5 -60 -163.5 -60c-44.667 0 -85.667 6.66699 -123 20z" />
    <glyph glyph-name="circumflex" unicode="&#x2c6;" horiz-adv-x="577" 
d="M80 1054l201 164l202 -164l-18 -19l-184 123l-183 -123z" />
    <glyph glyph-name="caron" unicode="&#x2c7;" horiz-adv-x="560" 
d="M80 1199l18 19l183 -123l184 123l18 -19l-202 -164z" />
    <glyph glyph-name="breve" unicode="&#x2d8;" horiz-adv-x="692" 
d="M153 1279h55c0 -40 13.5 -68.833 40.5 -86.5s59.833 -26.5 98.5 -26.5s71.5 8.83301 98.5 26.5s40.5 46.5 40.5 86.5h54c0 -55.333 -18.667 -96.166 -56 -122.499s-83 -39.5 -137 -39.5s-99.833 13.167 -137.5 39.5s-56.5 67.166 -56.5 122.499z" />
    <glyph glyph-name="dotaccent" unicode="&#x2d9;" horiz-adv-x="356" 
d="M148 1051v137h78v-137h-78z" />
    <glyph glyph-name="ring" unicode="&#x2da;" horiz-adv-x="482" 
d="M100 1165c0 36.667 13.833 65.334 41.5 86.001s61.167 31 100.5 31c38.667 0 71.834 -10.333 99.501 -31s41.5 -49.334 41.5 -86.001c0 -38 -13.833 -67.167 -41.5 -87.5s-60.834 -30.5 -99.501 -30.5s-72 10.167 -100 30.5s-42 49.5 -42 87.5zM158 1165
c0 -23.333 8.66797 -42 26.001 -56s36.666 -21 57.999 -21c20.667 0 39.5 7 56.5 21s25.5 32.667 25.5 56c0 24 -8.5 42.667 -25.5 56s-35.833 20 -56.5 20c-22 0 -41.5 -6.66699 -58.5 -20s-25.5 -32 -25.5 -56z" />
    <glyph glyph-name="ogonek" unicode="&#x2db;" horiz-adv-x="366" 
d="M45 -158c0 37.333 15.168 73.333 45.501 108s76.833 62.667 139.5 84l10 -20c-38 -18 -67.833 -41.667 -89.5 -71s-32.5 -60.333 -32.5 -93c0 -29.333 9.66699 -55 29 -77s47.666 -33 84.999 -33c47.333 0 91 11.333 131 34l13 -16c-47.333 -36.667 -102 -55 -164 -55
c-53.333 0 -94.5 13 -123.5 39s-43.5 59.333 -43.5 100z" />
    <glyph glyph-name="tilde" unicode="&#x2dc;" horiz-adv-x="502" 
d="M61 1086c28.667 56 69.333 84 122 84c28.667 0 59 -12.167 91 -36.5s57.667 -36.5 77 -36.5c34 0 59.333 14.333 76 43l34 -7c-25.333 -57.333 -64 -86 -116 -86c-21.333 0 -41.666 6.16699 -60.999 18.5l-55.5 36.5c-17.667 12 -35.167 18 -52.5 18
c-34.667 0 -62.334 -14.333 -83.001 -43z" />
    <glyph glyph-name="hungarumlaut" unicode="&#x2dd;" horiz-adv-x="530" 
d="M141 1051l119 208h78l-133 -208h-64zM232 1051l119 208h78l-133 -208h-64z" />
    <glyph glyph-name="Wgrave" unicode="&#x1e80;" horiz-adv-x="1706" 
d="M78 1282l83.9951 -0.00390625c14 -166.667 36.167 -325.334 66.5 -476.001s62.333 -274.5 96 -371.5s64.334 -175.5 92.001 -235.5s50.834 -100.667 69.501 -122c18.667 21.333 41.834 62 69.501 122s58.5 138.667 92.5 236s66.167 221.333 96.5 372s52.833 309 67.5 475
h82c14.667 -166.667 37.167 -325.334 67.5 -476.001s62.166 -274.5 95.499 -371.5s64 -175.667 92 -236s51 -100.833 69 -121.5c18.667 21.333 41.834 62 69.501 122s58.5 138.667 92.5 236s66.167 221.333 96.5 372s52.833 309 67.5 475h84
c-11.333 -143.333 -29.666 -282 -54.999 -416s-52.166 -247.667 -80.499 -341s-58.333 -178.666 -90 -255.999s-59.167 -136.666 -82.5 -177.999s-43 -71.666 -59 -90.999h-84c-18 20 -40.5 57.333 -67.5 112s-57.167 125.167 -90.5 211.5s-65.333 194.666 -96 324.999
s-54 266.166 -70 407.499c-16.667 -141.333 -40.5 -277.166 -71.5 -407.499s-63 -238.666 -96 -324.999s-63.167 -156.833 -90.5 -211.5s-50 -92 -68 -112h-82c-21.333 26 -47.833 70.333 -79.5 133s-67.167 145.834 -106.5 249.501s-75.833 235.334 -109.5 395.001
s-57.5 327.834 -71.5 504.501zM672.995 1573h84l141 -207h-68z" />
    <glyph glyph-name="wgrave" unicode="&#x1e81;" horiz-adv-x="1298" 
d="M64 944l79.998 0.000976562c10.667 -118.667 26.834 -232.167 48.501 -340.5s44.667 -197.833 69 -268.5s46.333 -128.167 66 -172.5s35.834 -74.166 48.501 -89.499c12.667 15.333 29 45.166 49 89.499s42.167 102 66.5 173s47.5 160.667 69.5 269s38 221.5 48 339.5h80
c10.667 -118.667 26.834 -232.167 48.501 -340.5s44.667 -197.833 69 -268.5s46.333 -128.167 66 -172.5s35.834 -74.166 48.501 -89.499c13.333 15.333 30 45.166 50 89.499s42 102 66 173s46.833 160.667 68.5 269s37.834 221.5 48.501 339.5h82
c-10.667 -128.667 -28.5 -251.334 -53.5 -368.001s-52.167 -213.334 -81.5 -290.001s-55.666 -138.5 -78.999 -185.5s-43.333 -80.5 -60 -100.5h-80c-14.667 19.333 -31.5 48 -50.5 86s-40.833 88.667 -65.5 152s-47.834 142.333 -69.501 237s-37.834 194.667 -48.501 300
c-10.667 -105.333 -26.834 -205.333 -48.501 -300s-44.834 -173.667 -69.501 -237s-46.167 -113.833 -64.5 -151.5s-34.5 -66.5 -48.5 -86.5h-82c-16 20.667 -35.333 54.167 -58 100.5s-48.667 108 -78 185s-56.5 173.833 -81.5 290.5s-42.833 239.334 -53.5 368.001z
M467.998 1323h84l141 -206h-68z" />
    <glyph glyph-name="Wacute" unicode="&#x1e82;" horiz-adv-x="1706" 
d="M78 1282l83.9951 -0.00390625c14 -166.667 36.167 -325.334 66.5 -476.001s62.333 -274.5 96 -371.5s64.334 -175.5 92.001 -235.5s50.834 -100.667 69.501 -122c18.667 21.333 41.834 62 69.501 122s58.5 138.667 92.5 236s66.167 221.333 96.5 372s52.833 309 67.5 475
h82c14.667 -166.667 37.167 -325.334 67.5 -476.001s62.166 -274.5 95.499 -371.5s64 -175.667 92 -236s51 -100.833 69 -121.5c18.667 21.333 41.834 62 69.501 122s58.5 138.667 92.5 236s66.167 221.333 96.5 372s52.833 309 67.5 475h84
c-11.333 -143.333 -29.666 -282 -54.999 -416s-52.166 -247.667 -80.499 -341s-58.333 -178.666 -90 -255.999s-59.167 -136.666 -82.5 -177.999s-43 -71.666 -59 -90.999h-84c-18 20 -40.5 57.333 -67.5 112s-57.167 125.167 -90.5 211.5s-65.333 194.666 -96 324.999
s-54 266.166 -70 407.499c-16.667 -141.333 -40.5 -277.166 -71.5 -407.499s-63 -238.666 -96 -324.999s-63.167 -156.833 -90.5 -211.5s-50 -92 -68 -112h-82c-21.333 26 -47.833 70.333 -79.5 133s-67.167 145.834 -106.5 249.501s-75.833 235.334 -109.5 395.001
s-57.5 327.834 -71.5 504.501zM820.995 1366l130 221h85l-153 -221h-62z" />
    <glyph glyph-name="wacute" unicode="&#x1e83;" horiz-adv-x="1298" 
d="M64 944l79.998 0.000976562c10.667 -118.667 26.834 -232.167 48.501 -340.5s44.667 -197.833 69 -268.5s46.333 -128.167 66 -172.5s35.834 -74.166 48.501 -89.499c12.667 15.333 29 45.166 49 89.499s42.167 102 66.5 173s47.5 160.667 69.5 269s38 221.5 48 339.5h80
c10.667 -118.667 26.834 -232.167 48.501 -340.5s44.667 -197.833 69 -268.5s46.333 -128.167 66 -172.5s35.834 -74.166 48.501 -89.499c13.333 15.333 30 45.166 50 89.499s42 102 66 173s46.833 160.667 68.5 269s37.834 221.5 48.501 339.5h82
c-10.667 -128.667 -28.5 -251.334 -53.5 -368.001s-52.167 -213.334 -81.5 -290.001s-55.666 -138.5 -78.999 -185.5s-43.333 -80.5 -60 -100.5h-80c-14.667 19.333 -31.5 48 -50.5 86s-40.833 88.667 -65.5 152s-47.834 142.333 -69.501 237s-37.834 194.667 -48.501 300
c-10.667 -105.333 -26.834 -205.333 -48.501 -300s-44.834 -173.667 -69.501 -237s-46.167 -113.833 -64.5 -151.5s-34.5 -66.5 -48.5 -86.5h-82c-16 20.667 -35.333 54.167 -58 100.5s-48.667 108 -78 185s-56.5 173.833 -81.5 290.5s-42.833 239.334 -53.5 368.001z
M613.998 1117l130 220h86l-153 -220h-63z" />
    <glyph glyph-name="Wdieresis" unicode="&#x1e84;" horiz-adv-x="1706" 
d="M78 1282l83.9951 -0.00390625c14 -166.667 36.167 -325.334 66.5 -476.001s62.333 -274.5 96 -371.5s64.334 -175.5 92.001 -235.5s50.834 -100.667 69.501 -122c18.667 21.333 41.834 62 69.501 122s58.5 138.667 92.5 236s66.167 221.333 96.5 372s52.833 309 67.5 475
h82c14.667 -166.667 37.167 -325.334 67.5 -476.001s62.166 -274.5 95.499 -371.5s64 -175.667 92 -236s51 -100.833 69 -121.5c18.667 21.333 41.834 62 69.501 122s58.5 138.667 92.5 236s66.167 221.333 96.5 372s52.833 309 67.5 475h84
c-11.333 -143.333 -29.666 -282 -54.999 -416s-52.166 -247.667 -80.499 -341s-58.333 -178.666 -90 -255.999s-59.167 -136.666 -82.5 -177.999s-43 -71.666 -59 -90.999h-84c-18 20 -40.5 57.333 -67.5 112s-57.167 125.167 -90.5 211.5s-65.333 194.666 -96 324.999
s-54 266.166 -70 407.499c-16.667 -141.333 -40.5 -277.166 -71.5 -407.499s-63 -238.666 -96 -324.999s-63.167 -156.833 -90.5 -211.5s-50 -92 -68 -112h-82c-21.333 26 -47.833 70.333 -79.5 133s-67.167 145.834 -106.5 249.501s-75.833 235.334 -109.5 395.001
s-57.5 327.834 -71.5 504.501zM647.995 1366v135h77v-135h-77zM980.995 1366v135h77v-135h-77z" />
    <glyph glyph-name="wdieresis" unicode="&#x1e85;" horiz-adv-x="1298" 
d="M64 944l79.998 0.000976562c10.667 -118.667 26.834 -232.167 48.501 -340.5s44.667 -197.833 69 -268.5s46.333 -128.167 66 -172.5s35.834 -74.166 48.501 -89.499c12.667 15.333 29 45.166 49 89.499s42.167 102 66.5 173s47.5 160.667 69.5 269s38 221.5 48 339.5h80
c10.667 -118.667 26.834 -232.167 48.501 -340.5s44.667 -197.833 69 -268.5s46.333 -128.167 66 -172.5s35.834 -74.166 48.501 -89.499c13.333 15.333 30 45.166 50 89.499s42 102 66 173s46.833 160.667 68.5 269s37.834 221.5 48.501 339.5h82
c-10.667 -128.667 -28.5 -251.334 -53.5 -368.001s-52.167 -213.334 -81.5 -290.001s-55.666 -138.5 -78.999 -185.5s-43.333 -80.5 -60 -100.5h-80c-14.667 19.333 -31.5 48 -50.5 86s-40.833 88.667 -65.5 152s-47.834 142.333 -69.501 237s-37.834 194.667 -48.501 300
c-10.667 -105.333 -26.834 -205.333 -48.501 -300s-44.834 -173.667 -69.501 -237s-46.167 -113.833 -64.5 -151.5s-34.5 -66.5 -48.5 -86.5h-82c-16 20.667 -35.333 54.167 -58 100.5s-48.667 108 -78 185s-56.5 173.833 -81.5 290.5s-42.833 239.334 -53.5 368.001z
M442.998 1117v135h77v-135h-77zM775.998 1117v135h77v-135h-77z" />
    <glyph glyph-name="Ygrave" unicode="&#x1ef2;" horiz-adv-x="947" 
d="M48 1282l84.001 -0.00195312c12 -77.333 30 -152.5 54 -225.5s49 -135.5 75 -187.5s53.5 -99.167 82.5 -141.5s54.333 -75.166 76 -98.499s39.834 -40 54.501 -50c19.333 12.667 43.666 36.834 72.999 72.501s61.833 82 97.5 139s69.5 129.333 101.5 217
s55.667 179.167 71 274.5h82c-12 -86 -31 -169.167 -57 -249.5s-53.5 -148.5 -82.5 -204.5s-60.333 -107.833 -94 -155.5s-62.334 -84.167 -86.001 -109.5s-44.834 -45.666 -63.501 -60.999v-502h-85v502c-18.667 15.333 -39.667 35.5 -63 60.5s-52 61.667 -86 110
s-65.5 100.166 -94.5 155.499s-56.667 123.333 -83 204s-45.166 164 -56.499 250zM294.001 1573h84l140 -207h-67z" />
    <glyph glyph-name="ygrave" unicode="&#x1ef3;" horiz-adv-x="876" 
d="M102 942l81.001 0.000976562c12 -116.667 30.667 -229 56 -337s52 -197.333 80 -268s54 -128.667 78 -174s43.667 -74.666 59 -87.999l2 -7c84 130 148.833 262.667 194.5 398s68.5 281.666 68.5 438.999v39h77v-41c0 -84.667 -6.33301 -166.167 -19 -244.5
s-32.834 -154.5 -60.501 -228.5s-56.5 -141.833 -86.5 -203.5s-69.5 -128.834 -118.5 -201.501s-93.333 -135.5 -133 -188.5l-152.5 -196.5l-57 39c115.333 148 196.666 256.333 243.999 325c-20 22 -43.667 57.167 -71 105.5s-57.5 111 -90.5 188s-63.667 172.667 -92 287
s-48.166 233.5 -59.499 357.5zM274.001 1323h84l141 -206h-68z" />
    <glyph glyph-name="endash" unicode="&#x2013;" horiz-adv-x="1061" 
d="M148 493v70h767v-70h-767z" />
    <glyph glyph-name="emdash" unicode="&#x2014;" horiz-adv-x="1576" 
d="M148 493v70h1280v-70h-1280z" />
    <glyph glyph-name="quoteleft" unicode="&#x2018;" horiz-adv-x="254" 
d="M43 942l101 340h64l-78 -340h-87z" />
    <glyph glyph-name="quoteright" unicode="&#x2019;" horiz-adv-x="254" 
d="M43 942l78 340h87l-101 -340h-64z" />
    <glyph glyph-name="quotesinglbase" unicode="&#x201a;" horiz-adv-x="240" 
d="M53 -187l79 338h87l-101 -338h-65z" />
    <glyph glyph-name="quotedblleft" unicode="&#x201c;" horiz-adv-x="459" 
d="M43 942l101 340h64l-78 -340h-87zM221 942l101 340h64l-78 -340h-87z" />
    <glyph glyph-name="quotedblright" unicode="&#x201d;" horiz-adv-x="439" 
d="M43 942l78 340h87l-101 -340h-64zM221 942l78 340h87l-101 -340h-64z" />
    <glyph glyph-name="quotedblbase" unicode="&#x201e;" horiz-adv-x="633" 
d="M53 -187l79 338h87l-101 -338h-65zM329 -187l79 338h87l-101 -338h-65z" />
    <glyph glyph-name="dagger" unicode="&#x2020;" horiz-adv-x="703" 
d="M7 926v70h303v333h82v-333h304v-70h-304v-1277h-82v1277h-303z" />
    <glyph glyph-name="daggerdbl" unicode="&#x2021;" horiz-adv-x="740" 
d="M21 639v73h316v207h-316v73h316v326h80v-326h315v-73h-315v-207h315v-73h-315v-986h-80v986h-316z" />
    <glyph glyph-name="bullet" unicode="&#x2022;" horiz-adv-x="577" 
d="M148 256v463h283v-463h-283z" />
    <glyph glyph-name="onedotenleader" unicode="&#x2024;" horiz-adv-x="352" 
d="M148 0v151h78v-151h-78z" />
    <glyph glyph-name="twodotenleader" unicode="&#x2025;" horiz-adv-x="703" 
d="M148 0v151h78v-151h-78zM499 0v151h76v-151h-76z" />
    <glyph glyph-name="ellipsis" unicode="&#x2026;" horiz-adv-x="991" 
d="M123 0v151h85v-151h-85zM454 0v151h86v-151h-86zM784 0v151h85v-151h-85z" />
    <glyph glyph-name="perthousand" unicode="&#x2030;" horiz-adv-x="2081" 
d="M100 958v20c0 96.667 22.333 171.5 67 224.5s110 79.5 196 79.5c86.667 0 152.667 -26.5 198 -79.5s68 -127.833 68 -224.5v-20c0 -96.667 -22.667 -171.334 -68 -224.001s-111.333 -79 -198 -79s-152.167 26.333 -196.5 79s-66.5 127.334 -66.5 224.001zM180 958
c0 -77.333 15.167 -137.333 45.5 -180s76.166 -64 137.499 -64s107.666 21.333 138.999 64s47 102.667 47 180v20c0 78 -15.667 138.167 -47 180.5s-77.666 63.5 -138.999 63.5s-107.166 -21.167 -137.499 -63.5s-45.5 -102.5 -45.5 -180.5v-20zM417 0l493 1280h87
l-493 -1280h-87zM800 301v20c0 97.333 22.167 172.333 66.5 225s109.833 79 196.5 79s152.334 -26.5 197.001 -79.5s67 -127.833 67 -224.5v-20c0 -96.667 -22.333 -171.334 -67 -224.001s-110.334 -79 -197.001 -79s-152.167 26.333 -196.5 79s-66.5 127.334 -66.5 224.001
zM878 301c0 -76.667 15.5 -136.5 46.5 -179.5s77.167 -64.5 138.5 -64.5c60.667 0 106.667 21.5 138 64.5s47 102.833 47 179.5v20c0 77.333 -15.667 137.333 -47 180s-77.333 64 -138 64c-61.333 0 -107.5 -21.167 -138.5 -63.5s-46.5 -102.5 -46.5 -180.5v-20zM1434 301
v20c0 96.667 22.333 171.5 67 224.5s110 79.5 196 79.5c86.667 0 152.667 -26.5 198 -79.5s68 -127.833 68 -224.5v-20c0 -96.667 -22.667 -171.334 -68 -224.001s-111.333 -79 -198 -79s-152.167 26.333 -196.5 79s-66.5 127.334 -66.5 224.001zM1514 301
c0 -77.333 15.3311 -137.333 45.998 -180s76.334 -64 137.001 -64c61.333 0 107.5 21.333 138.5 64s46.5 102.667 46.5 180v20c0 78 -15.5 138.167 -46.5 180.5s-77.167 63.5 -138.5 63.5s-107.166 -21.167 -137.499 -63.5s-45.5 -102.5 -45.5 -180.5v-20z" />
    </font>
</defs>
</svg>
